{"glyphs":{"0":{"ha":1081,"x_min":0,"x_max":0,"o":"m 540 592 b 472 563 513 592 490 582 b 447 485 456 543 447 518 l 447 400 b 474 322 447 367 456 342 b 540 294 490 304 513 294 b 608 322 569 294 592 304 b 632 400 625 342 632 367 l 632 486 b 607 564 632 518 625 544 b 540 592 590 582 568 592 z m 593 393 b 581 343 593 372 589 356 b 542 325 571 332 558 325 b 503 343 525 325 511 332 b 489 393 493 356 489 372 l 489 494 b 501 543 489 515 493 532 b 540 561 511 556 524 561 b 581 543 558 561 571 556 b 594 494 589 532 594 515 l 594 393 z m 1011 822 b 860 972 1011 917 954 972 b 222 972 647 972 435 972 b 69 821 125 972 71 917 b 69 488 69 710 69 599 b 69 149 69 374 69 261 b 218 1 71 57 126 1 b 861 1 433 1 647 1 b 1011 150 954 1 1011 57 b 1011 822 1011 374 1011 599 z m 217 803 b 215 326 217 644 217 485 b 199 285 215 313 208 294 b 100 178 168 247 133 213 b 93 179 97 179 96 179 b 93 206 93 189 93 197 b 93 819 93 410 93 615 b 224 949 94 903 140 949 b 774 942 407 949 589 949 b 714 935 754 939 733 935 b 349 933 592 933 471 935 b 217 803 265 935 217 886 z m 831 304 b 729 201 831 239 793 201 b 342 201 600 201 471 201 b 240 301 279 201 240 240 b 240 807 240 469 240 639 b 336 908 240 867 278 907 b 738 908 471 910 603 910 b 832 808 794 907 832 867 b 832 553 832 724 832 638 b 831 304 831 471 831 388 z "},"1":{"ha":1082,"x_min":0,"x_max":0,"o":"m 489 551 l 553 551 l 553 299 l 592 299 l 592 592 l 489 582 z m 1011 822 b 860 972 1011 917 954 972 b 222 972 647 972 435 972 b 69 821 126 972 69 917 b 69 488 69 710 69 599 b 69 149 69 375 69 261 b 218 1 71 58 128 1 b 861 1 433 1 647 1 b 1011 150 954 1 1011 57 b 1011 822 1013 374 1013 599 z m 217 803 b 215 326 217 644 217 485 b 199 285 215 313 208 294 b 100 178 168 247 133 213 b 93 179 99 179 96 179 b 93 206 93 189 93 197 b 93 819 93 410 93 615 b 224 949 93 903 139 949 b 772 942 407 949 589 949 b 714 935 753 939 733 935 b 349 933 592 933 469 935 b 217 803 265 935 217 886 z m 831 304 b 729 201 831 239 793 201 b 342 201 600 201 471 201 b 242 301 281 201 242 240 b 242 807 242 469 242 639 b 336 908 242 867 278 907 b 738 908 471 910 604 910 b 832 808 796 907 832 867 b 832 553 832 724 832 638 b 831 304 831 471 831 388 z "},"2":{"ha":1082,"x_min":0,"x_max":0,"o":"m 499 329 l 572 415 b 611 469 589 436 603 456 b 624 514 619 485 624 499 b 601 569 624 538 617 556 b 540 592 586 585 567 592 b 472 567 511 592 489 583 b 449 507 457 550 449 531 l 450 506 l 488 506 b 501 544 488 521 492 533 b 540 560 510 556 524 560 b 572 547 554 560 565 556 b 585 514 579 539 585 528 b 575 479 585 503 582 492 b 543 432 569 468 558 453 l 451 325 l 451 299 l 632 299 l 632 329 l 500 329 z m 1011 822 b 860 972 1011 917 954 972 b 222 972 647 972 435 972 b 69 821 126 972 69 917 b 69 488 69 710 69 599 b 69 149 69 375 69 261 b 218 1 71 58 128 1 b 861 1 433 1 647 1 b 1011 150 954 1 1011 57 b 1011 822 1013 374 1013 599 z m 217 803 b 215 326 217 644 217 485 b 199 285 215 313 208 294 b 100 178 168 247 133 213 b 93 179 99 179 96 179 b 93 206 93 189 93 197 b 93 819 93 410 93 615 b 224 949 93 903 139 949 b 772 942 407 949 589 949 b 714 935 753 939 733 935 b 349 933 592 933 469 935 b 217 803 265 935 217 886 z m 831 304 b 729 201 831 239 793 201 b 342 201 600 201 471 201 b 242 301 281 201 242 240 b 242 807 242 469 242 639 b 336 908 242 867 278 907 b 738 908 471 910 604 910 b 832 808 796 907 832 867 b 832 553 832 724 832 638 b 831 304 831 471 831 388 z "},"3":{"ha":1081,"x_min":0,"x_max":0,"o":"m 588 449 b 617 475 600 454 610 464 b 628 513 624 486 628 499 b 604 572 628 539 619 558 b 540 592 589 586 568 592 b 475 569 514 592 492 585 b 450 513 457 553 450 536 l 451 511 l 489 511 b 503 547 489 526 493 538 b 540 561 513 557 525 561 b 576 547 557 561 568 557 b 588 513 583 539 588 526 b 576 475 588 497 583 485 b 539 463 569 467 557 463 l 508 463 l 508 432 l 540 432 b 581 419 558 432 572 428 b 593 378 589 410 593 396 b 579 339 593 363 589 349 b 542 324 571 329 558 324 b 503 338 526 324 513 328 b 488 374 492 347 488 360 l 450 374 l 450 372 b 476 315 449 349 457 329 b 542 293 494 300 517 293 b 607 315 568 293 590 300 b 632 378 622 331 632 351 b 621 421 632 394 628 410 b 588 449 613 435 601 443 z m 1011 822 b 861 972 1011 917 956 972 b 222 972 649 972 435 972 b 71 821 126 972 71 917 b 71 488 71 710 71 599 b 71 149 71 375 69 261 b 219 1 71 58 128 1 b 863 1 433 1 647 1 b 1011 150 956 1 1011 57 b 1011 822 1011 374 1011 599 z m 217 803 b 217 326 217 644 217 485 b 200 285 217 313 210 294 b 101 178 168 247 133 213 b 94 179 99 179 96 179 b 94 206 94 189 94 197 b 94 819 94 410 94 615 b 224 949 94 903 140 949 b 774 942 407 949 589 949 b 714 935 754 939 733 935 b 349 933 592 933 471 935 b 217 803 265 935 217 886 z m 831 304 b 729 201 831 239 793 201 b 342 201 600 201 471 201 b 240 301 279 201 240 240 b 240 807 240 469 240 639 b 336 908 240 867 278 907 b 738 908 471 910 603 910 b 832 808 794 907 832 867 b 832 553 832 724 832 638 b 831 304 831 471 831 388 z "},"4":{"ha":1081,"x_min":0,"x_max":0,"o":"m 603 589 l 561 589 l 440 388 l 440 365 l 564 365 l 564 299 l 603 299 l 603 365 l 643 365 l 643 396 l 603 396 z m 481 396 l 558 522 l 563 532 l 564 532 l 564 396 z m 1011 822 b 861 972 1011 917 956 972 b 222 972 649 972 435 972 b 71 821 126 972 71 917 b 71 488 71 710 71 599 b 71 149 71 375 69 261 b 219 1 71 58 128 1 b 863 1 433 1 647 1 b 1011 150 956 1 1011 57 b 1011 822 1011 374 1011 599 z m 217 803 b 217 326 217 644 217 485 b 200 285 217 313 210 294 b 101 178 168 247 133 213 b 94 179 99 179 96 179 b 94 206 94 189 94 197 b 94 819 94 410 94 615 b 224 949 94 903 140 949 b 774 942 407 949 589 949 b 714 935 754 939 733 935 b 349 933 592 933 471 935 b 217 803 265 935 217 886 z m 831 304 b 729 201 831 239 793 201 b 342 201 600 201 471 201 b 240 301 279 201 240 240 b 240 807 240 469 240 639 b 336 908 240 867 278 907 b 738 908 471 910 603 910 b 832 808 794 907 832 867 b 832 553 832 724 832 638 b 831 304 831 471 831 388 z "},"5":{"ha":1081,"x_min":0,"x_max":0,"o":"m 543 486 b 517 482 533 486 525 485 b 496 471 508 479 503 475 l 506 554 l 618 554 l 618 589 l 472 589 l 456 429 l 489 425 b 504 446 492 435 496 442 b 538 453 511 451 522 453 b 576 436 554 453 567 447 b 590 392 586 425 590 410 b 578 343 590 371 586 354 b 539 326 568 332 556 326 b 503 339 524 326 513 331 b 490 375 494 347 490 360 l 454 375 l 454 374 b 476 315 453 347 461 328 b 539 294 493 301 514 294 b 607 321 568 294 590 304 b 629 392 622 339 629 363 b 607 461 629 421 622 444 b 543 486 590 478 569 486 z m 1011 822 b 861 972 1011 917 956 972 b 222 972 649 972 435 972 b 71 821 126 972 71 917 b 71 488 71 710 71 599 b 71 149 71 375 69 261 b 219 1 71 58 128 1 b 863 1 433 1 647 1 b 1011 150 956 1 1011 57 b 1011 822 1011 374 1011 599 z m 217 803 b 217 326 217 644 217 485 b 200 285 217 313 210 294 b 101 178 168 247 133 213 b 94 179 99 179 96 179 b 94 206 94 189 94 197 b 94 819 94 410 94 615 b 224 949 94 903 140 949 b 774 942 407 949 589 949 b 714 935 754 939 733 935 b 349 933 592 933 471 935 b 217 803 265 935 217 886 z m 831 304 b 729 201 831 239 793 201 b 342 201 600 201 471 201 b 240 301 279 201 240 240 b 240 807 240 469 240 639 b 336 908 240 867 278 907 b 738 908 471 910 603 910 b 832 808 794 907 832 867 b 832 553 832 724 832 638 b 831 304 831 471 832 388 z "},"6":{"ha":1081,"x_min":0,"x_max":0,"o":"m 551 483 b 515 476 539 483 526 481 b 488 457 504 472 494 465 l 488 479 b 504 539 488 503 493 522 b 549 561 515 554 531 561 b 578 558 560 561 569 561 b 601 550 586 557 594 554 l 610 581 b 582 589 603 585 593 586 b 549 592 571 590 560 592 b 478 560 519 592 496 581 b 449 475 458 538 449 510 l 449 408 b 475 325 449 374 457 346 b 543 294 493 304 515 294 b 608 321 569 294 592 303 b 633 392 625 339 633 363 b 611 458 633 419 625 442 b 551 483 596 475 576 483 z m 581 343 b 543 325 572 331 558 325 b 504 346 528 325 515 332 b 488 404 493 361 488 381 l 488 425 b 508 446 492 433 499 440 b 539 454 517 451 528 454 b 579 438 557 454 569 449 b 594 393 589 426 594 411 b 581 343 593 372 589 356 z m 1011 822 b 860 972 1011 917 954 972 b 222 972 647 972 435 972 b 69 821 126 972 69 917 b 69 488 69 710 69 599 b 69 149 69 375 69 261 b 218 1 71 58 128 1 b 861 1 433 1 647 1 b 1011 150 954 1 1011 57 b 1011 822 1011 374 1011 599 z m 217 803 b 215 326 217 644 217 485 b 199 285 215 313 208 294 b 100 178 168 247 133 213 b 93 179 99 179 96 179 b 93 206 93 189 93 197 b 93 819 93 410 93 615 b 224 949 93 903 139 949 b 772 942 407 949 589 949 b 714 935 753 939 733 935 b 349 933 592 933 469 935 b 217 803 265 935 217 886 z m 831 304 b 729 201 831 239 792 201 b 342 201 599 201 471 201 b 240 301 279 201 240 240 b 240 807 240 469 240 639 b 336 908 240 867 276 907 b 738 908 469 910 603 910 b 831 808 794 907 831 867 b 831 553 832 724 831 638 b 831 304 831 471 831 388 z "},"7":{"ha":1082,"x_min":0,"x_max":0,"o":"m 444 557 l 599 557 b 528 449 568 519 544 483 b 504 329 511 413 504 374 l 504 299 l 543 299 l 543 329 b 563 442 543 371 550 408 b 636 557 575 475 600 514 l 636 588 l 444 588 z m 1011 822 b 860 972 1011 917 954 972 b 222 972 647 972 435 972 b 69 821 126 972 69 917 b 69 488 69 710 69 599 b 69 149 69 375 69 261 b 218 1 71 58 128 1 b 861 1 433 1 647 1 b 1011 150 954 1 1011 57 b 1011 822 1013 374 1013 599 z m 217 803 b 215 326 217 644 217 485 b 199 285 215 313 208 294 b 100 178 168 247 133 213 b 93 179 99 179 96 179 b 93 206 93 189 93 197 b 93 819 93 410 93 615 b 224 949 93 903 139 949 b 772 942 407 949 589 949 b 714 935 753 939 733 935 b 349 933 592 933 469 935 b 217 803 265 935 217 886 z m 831 304 b 729 201 831 239 793 201 b 342 201 600 201 471 201 b 242 301 281 201 242 240 b 242 807 242 469 242 639 b 336 908 242 867 278 907 b 738 908 471 910 604 910 b 832 808 796 907 832 867 b 832 553 832 724 832 638 b 831 304 831 471 831 388 z "},"8":{"ha":1082,"x_min":0,"x_max":0,"o":"m 581 449 b 614 474 594 454 606 463 b 626 514 622 485 626 499 b 603 572 626 539 618 558 b 543 592 588 586 567 592 b 479 572 517 592 496 586 b 454 514 463 558 454 539 b 467 474 454 499 458 485 b 501 449 476 463 488 454 b 461 421 485 443 471 433 b 446 378 450 408 446 394 b 472 315 446 351 456 331 b 543 294 490 300 514 294 b 608 315 569 294 592 301 b 635 378 626 329 635 351 b 621 421 635 394 631 408 b 581 449 611 433 597 443 z m 494 514 b 507 549 494 529 499 540 b 543 561 517 558 528 561 b 575 549 556 561 567 557 b 588 514 583 539 588 528 b 575 478 588 499 583 488 b 543 464 567 469 556 464 b 507 478 528 464 517 469 b 494 514 499 488 494 499 z m 582 339 b 543 325 571 329 558 325 b 501 339 526 325 513 329 b 486 378 492 349 486 363 b 503 417 486 394 492 407 b 544 433 514 426 528 433 b 582 417 558 433 572 428 b 597 378 593 407 597 394 b 582 339 596 363 592 350 z m 1011 822 b 860 972 1011 917 954 972 b 222 972 647 972 435 972 b 69 821 126 972 69 917 b 69 488 69 710 69 599 b 69 149 69 375 69 261 b 218 1 71 58 128 1 b 861 1 433 1 647 1 b 1011 150 954 1 1011 57 b 1011 822 1013 374 1013 599 z m 217 803 b 215 326 217 644 217 485 b 199 285 215 313 208 294 b 100 178 168 247 133 213 b 93 179 99 179 96 179 b 93 206 93 189 93 197 b 93 819 93 410 93 615 b 224 949 93 903 139 949 b 772 942 407 949 589 949 b 714 935 753 939 733 935 b 349 933 592 933 469 935 b 217 803 265 935 217 886 z m 831 304 b 729 201 831 239 793 201 b 342 201 600 201 471 201 b 242 301 281 201 242 240 b 242 807 242 469 242 639 b 336 908 242 867 278 907 b 738 908 471 910 604 910 b 832 808 796 907 832 867 b 832 553 832 724 832 638 b 831 304 831 471 831 388 z "},"9":{"ha":1082,"x_min":0,"x_max":0,"o":"m 536 592 b 474 565 511 592 490 583 b 449 493 457 546 449 522 b 472 421 449 463 457 439 b 538 396 488 404 510 396 b 569 403 549 396 560 397 b 593 425 579 407 586 415 l 593 400 b 576 344 593 376 588 357 b 531 325 564 332 549 325 b 500 328 519 325 510 326 b 475 338 492 329 483 333 l 469 307 b 499 297 478 303 489 300 b 531 294 510 296 519 294 b 604 322 560 294 585 304 b 633 400 624 342 633 367 l 633 489 b 607 565 633 521 624 547 b 536 592 589 583 565 592 z m 593 460 b 574 436 589 450 582 442 b 539 426 564 431 553 426 b 501 444 524 426 510 432 b 488 493 492 457 488 474 b 501 543 488 514 492 531 b 538 561 511 556 524 561 b 579 543 556 561 569 556 b 593 493 589 532 593 515 z m 1011 822 b 860 972 1011 917 954 972 b 222 972 647 972 435 972 b 69 821 126 972 69 917 b 69 488 69 710 69 599 b 69 149 69 375 69 261 b 218 1 71 58 128 1 b 861 1 433 1 647 1 b 1011 150 954 1 1011 57 b 1011 822 1013 374 1013 599 z m 217 803 b 215 326 217 644 217 485 b 199 285 215 313 208 294 b 100 178 168 247 133 213 b 93 179 99 179 96 179 b 93 206 93 189 93 197 b 93 819 93 410 93 615 b 224 949 93 903 139 949 b 772 942 407 949 589 949 b 714 935 753 939 733 935 b 349 933 592 933 469 935 b 217 803 265 935 217 886 z m 831 304 b 729 201 831 239 793 201 b 342 201 600 201 471 201 b 242 301 281 201 242 240 b 242 807 242 469 242 639 b 336 908 242 867 278 907 b 738 908 471 910 604 910 b 832 808 796 907 832 867 b 832 553 832 724 832 638 b 831 304 831 471 831 388 z "},"\u0000":{"ha":0,"x_min":0,"x_max":0,"o":""},"\n":{"ha":0,"x_min":0,"x_max":0,"o":""}," ":{"ha":540,"x_min":0,"x_max":0,"o":""},"!":{"ha":1082,"x_min":0,"x_max":0,"o":"m 560 394 l 560 589 l 521 589 l 521 394 z m 560 299 l 560 339 l 521 339 l 521 299 z m 1011 822 b 860 972 1011 917 954 972 b 222 972 647 972 435 972 b 69 821 126 972 69 917 b 69 488 69 710 69 599 b 69 149 69 375 69 261 b 218 1 71 58 128 1 b 861 1 433 1 647 1 b 1011 150 954 1 1011 57 b 1011 822 1013 374 1013 599 z m 217 803 b 215 326 217 644 217 485 b 199 285 215 313 208 294 b 100 178 168 247 133 213 b 93 179 99 179 96 179 b 93 206 93 189 93 197 b 93 819 93 410 93 615 b 224 949 93 903 139 949 b 772 942 407 949 589 949 b 714 935 753 939 733 935 b 349 933 592 933 469 935 b 217 803 265 935 217 886 z m 831 304 b 729 201 831 239 793 201 b 342 201 600 201 471 201 b 242 301 281 201 242 240 b 242 807 242 469 242 639 b 336 908 242 867 278 907 b 738 908 471 910 604 910 b 832 808 796 907 832 867 b 832 553 832 724 832 638 b 831 304 831 471 831 388 z "},"\"":{"ha":1081,"x_min":0,"x_max":0,"o":"m 488 518 l 488 481 l 528 481 l 528 589 l 508 589 z m 554 518 l 554 481 l 593 481 l 593 589 l 574 589 z m 1011 822 b 860 972 1011 917 954 972 b 222 972 647 972 435 972 b 69 821 126 972 69 917 b 69 488 69 710 69 599 b 69 149 69 375 69 261 b 218 1 71 58 128 1 b 861 1 433 1 647 1 b 1011 150 954 1 1011 57 b 1011 822 1011 374 1011 599 z m 217 803 b 215 326 217 644 217 485 b 199 285 215 313 208 294 b 100 178 168 247 133 213 b 93 179 99 179 96 179 b 93 206 93 189 93 197 b 93 819 93 410 93 615 b 224 949 93 903 139 949 b 772 942 407 949 589 949 b 714 935 753 939 733 935 b 349 933 592 933 469 935 b 217 803 265 935 217 886 z m 831 304 b 729 201 831 239 792 201 b 342 201 599 201 471 201 b 240 301 279 201 240 240 b 240 807 240 469 240 639 b 336 908 240 867 276 907 b 738 908 469 910 603 910 b 831 808 794 907 831 867 b 831 553 832 724 831 638 b 831 304 831 471 831 388 z "},"#":{"ha":1081,"x_min":0,"x_max":0,"o":"m 628 589 l 599 589 l 582 506 l 531 506 l 547 589 l 518 589 l 501 506 l 444 506 l 444 478 l 496 478 l 482 407 l 429 407 l 429 381 l 476 381 l 460 299 l 490 299 l 506 381 l 557 381 l 540 299 l 571 299 l 586 381 l 636 381 l 636 407 l 593 407 l 606 478 l 651 478 l 651 506 l 611 506 z m 563 407 l 511 407 l 525 478 l 576 478 z m 1011 822 b 860 972 1011 917 954 972 b 222 972 647 972 435 972 b 69 821 126 972 69 917 b 69 488 69 710 69 599 b 69 149 69 375 69 261 b 218 1 71 58 128 1 b 861 1 433 1 647 1 b 1011 150 954 1 1011 57 b 1011 822 1011 374 1011 599 z m 217 803 b 215 326 217 644 217 485 b 199 285 215 313 208 294 b 100 178 168 247 133 213 b 93 179 99 179 96 179 b 93 206 93 189 93 197 b 93 819 93 410 93 615 b 224 949 93 903 139 949 b 772 942 407 949 589 949 b 714 935 753 939 733 935 b 349 933 592 933 469 935 b 217 803 265 935 217 886 z m 831 304 b 729 201 831 239 792 201 b 342 201 599 201 471 201 b 240 301 279 201 240 240 b 240 807 240 469 240 639 b 336 908 240 867 276 907 b 738 908 469 910 603 910 b 831 808 794 907 831 867 b 831 553 832 724 831 638 b 831 304 831 471 831 388 z "},"$":{"ha":1082,"x_min":0,"x_max":0,"o":"m 554 460 b 510 482 533 468 518 475 b 499 514 501 490 499 501 b 510 547 499 528 501 539 b 546 560 518 556 529 560 b 579 543 560 560 572 554 b 593 503 588 533 593 519 l 632 503 b 613 564 632 528 625 549 b 561 590 601 579 583 589 l 561 636 l 529 636 l 529 592 b 478 567 508 589 490 581 b 460 513 465 553 460 536 b 479 460 460 490 467 472 b 540 426 493 446 514 435 b 582 404 560 421 574 413 b 594 374 590 396 594 386 b 581 340 594 360 590 349 b 540 328 571 332 557 328 b 501 342 525 328 513 333 b 486 385 492 350 486 364 l 449 385 l 447 383 b 468 321 447 356 454 335 b 525 296 483 307 501 299 l 525 258 l 556 258 l 556 296 b 613 319 579 299 599 307 b 632 375 625 333 632 351 b 613 428 632 397 625 415 b 554 460 601 440 581 451 z m 1011 822 b 860 972 1011 917 954 972 b 222 972 647 972 435 972 b 69 821 126 972 69 917 b 69 488 69 710 69 599 b 69 149 69 375 69 261 b 218 1 71 58 128 1 b 861 1 433 1 647 1 b 1011 150 954 1 1011 57 b 1011 822 1013 374 1013 599 z m 217 803 b 215 326 217 644 217 485 b 199 285 215 313 208 294 b 100 178 168 247 133 213 b 93 179 99 179 96 179 b 93 206 93 189 93 197 b 93 819 93 410 93 615 b 224 949 93 903 139 949 b 772 942 407 949 589 949 b 714 935 753 939 733 935 b 349 933 592 933 469 935 b 217 803 265 935 217 886 z m 831 304 b 729 201 831 239 793 201 b 342 201 600 201 471 201 b 242 301 281 201 242 240 b 242 807 242 469 242 639 b 336 908 242 867 278 907 b 738 908 471 910 604 910 b 832 808 796 907 832 867 b 832 553 832 724 832 638 b 831 304 831 471 831 388 z "},"%":{"ha":1082,"x_min":0,"x_max":0,"o":"m 514 475 b 531 518 525 486 531 500 l 531 533 b 514 576 531 550 525 565 b 471 593 503 588 489 593 b 428 576 453 593 438 588 b 411 533 417 565 411 550 l 411 518 b 428 475 411 500 417 488 b 471 458 439 464 453 458 b 514 475 489 458 504 464 z m 447 492 b 439 517 442 499 439 507 l 439 532 b 447 558 439 542 442 550 b 471 568 453 565 460 568 b 493 558 481 568 488 565 b 501 532 499 551 501 542 l 501 517 b 493 492 501 507 499 499 b 471 481 488 483 481 481 b 447 492 461 482 453 485 z m 611 429 b 568 413 593 429 578 424 b 551 369 557 401 551 386 l 551 354 b 568 311 551 336 557 322 b 613 294 579 300 593 294 b 656 311 631 294 644 300 b 672 354 667 322 672 336 l 672 369 b 656 413 672 386 667 400 b 611 429 643 424 629 429 z m 642 354 b 633 328 642 344 639 335 b 611 318 628 322 621 318 b 588 328 601 318 593 322 b 579 354 583 335 579 343 l 579 369 b 588 394 579 379 583 388 b 611 406 593 401 601 406 b 633 394 621 406 628 401 b 642 369 638 388 642 381 z m 601 560 l 460 333 l 481 319 l 622 547 z m 1011 822 b 860 972 1011 917 954 972 b 222 972 647 972 435 972 b 69 821 126 972 69 917 b 69 488 69 710 69 599 b 69 149 69 375 69 261 b 218 1 71 58 128 1 b 861 1 433 1 647 1 b 1011 150 954 1 1011 57 b 1011 822 1013 374 1013 599 z m 217 803 b 215 326 217 644 217 485 b 199 285 215 313 208 294 b 100 178 168 247 133 213 b 93 179 99 179 96 179 b 93 206 93 189 93 197 b 93 819 93 410 93 615 b 224 949 93 903 139 949 b 772 942 407 949 589 949 b 714 935 753 939 733 935 b 349 933 592 933 469 935 b 217 803 265 935 217 886 z m 831 304 b 729 201 831 239 793 201 b 342 201 600 201 471 201 b 242 301 281 201 242 240 b 242 807 242 469 242 639 b 336 908 242 867 278 907 b 738 908 471 910 604 910 b 832 808 796 907 832 867 b 832 553 832 724 832 638 b 831 304 831 471 831 388 z "},"&":{"ha":1081,"x_min":0,"x_max":0,"o":"m 642 383 b 650 432 647 399 650 415 l 615 432 b 610 400 615 421 613 410 b 597 371 607 389 603 379 l 529 453 l 551 468 b 582 497 564 478 575 488 b 592 531 589 507 592 518 b 572 575 592 549 586 563 b 522 592 560 586 543 592 b 469 575 500 592 482 586 b 450 522 456 563 450 546 b 457 492 450 511 451 501 b 481 456 463 481 469 469 b 438 419 461 444 447 432 b 424 376 428 407 424 393 b 450 318 424 353 432 333 b 518 294 467 303 489 294 b 558 300 532 294 544 297 b 593 318 571 306 583 311 l 611 299 l 657 299 l 621 343 b 642 383 629 356 638 368 z m 497 550 b 522 561 503 558 511 561 b 547 551 532 561 540 558 b 557 531 554 546 557 539 b 553 511 557 522 556 517 b 538 494 550 504 544 500 l 510 475 b 493 500 503 485 497 493 b 489 522 490 508 489 515 b 497 550 489 533 492 543 z m 547 329 b 519 325 539 326 529 325 b 478 339 501 325 488 329 b 464 376 468 349 464 361 b 469 399 464 383 465 390 b 493 425 474 407 482 415 l 501 431 l 574 344 b 547 329 565 338 557 333 z m 1011 822 b 861 972 1011 917 956 972 b 222 972 649 972 435 972 b 71 821 126 972 71 917 b 71 488 71 710 71 599 b 71 149 71 375 69 261 b 219 1 71 58 128 1 b 863 1 433 1 647 1 b 1011 150 956 1 1011 57 b 1011 822 1011 374 1011 599 z m 217 803 b 217 326 217 644 217 485 b 200 285 217 313 210 294 b 101 178 168 247 133 213 b 94 179 99 179 96 179 b 94 206 94 189 94 197 b 94 819 94 410 94 615 b 224 949 94 903 140 949 b 774 942 407 949 589 949 b 714 935 754 939 733 935 b 349 933 592 933 471 935 b 217 803 265 935 217 886 z m 831 304 b 729 201 831 239 793 201 b 342 201 600 201 471 201 b 240 301 279 201 240 240 b 240 807 240 469 240 639 b 336 908 240 867 278 907 b 738 908 471 910 603 910 b 832 808 794 907 832 867 b 832 553 832 724 832 638 b 831 304 831 471 831 388 z "},"'":{"ha":1081,"x_min":0,"x_max":0,"o":"m 521 518 l 521 481 l 560 481 l 560 517 l 561 589 l 542 589 z m 1011 822 b 861 972 1011 917 956 972 b 222 972 649 972 435 972 b 71 821 126 972 71 917 b 71 488 71 710 71 599 b 71 149 71 375 69 261 b 219 1 71 58 128 1 b 863 1 433 1 647 1 b 1011 150 956 1 1011 57 b 1011 822 1011 374 1011 599 z m 217 803 b 217 326 217 644 217 485 b 200 285 217 313 210 294 b 101 178 168 247 133 213 b 94 179 99 179 96 179 b 94 206 94 189 94 197 b 94 819 94 410 94 615 b 224 949 94 903 140 949 b 774 942 407 949 589 949 b 714 935 754 939 733 935 b 349 933 592 933 471 935 b 217 803 265 935 217 886 z m 831 304 b 729 201 831 239 793 201 b 342 201 600 201 471 201 b 240 301 279 201 240 240 b 240 807 240 469 240 639 b 336 908 240 867 278 907 b 738 908 471 910 603 910 b 832 808 794 907 832 867 b 832 553 832 724 832 638 b 831 304 831 471 832 388 z "},"(":{"ha":1081,"x_min":0,"x_max":0,"o":"m 546 532 b 594 600 560 564 575 586 l 586 624 l 585 624 b 518 550 563 611 539 586 b 488 415 497 513 488 468 l 488 414 b 518 281 488 363 497 317 b 585 207 539 244 563 219 l 586 207 l 594 228 b 546 299 576 244 560 267 b 526 414 533 329 526 368 l 526 417 b 546 532 526 463 533 501 z m 1011 822 b 860 972 1011 917 954 972 b 222 972 647 972 435 972 b 69 821 126 972 69 917 b 69 488 69 710 69 599 b 69 149 69 375 69 261 b 218 1 71 58 128 1 b 861 1 433 1 647 1 b 1011 150 954 1 1011 57 b 1011 822 1011 374 1011 599 z m 217 803 b 215 326 217 644 217 485 b 199 285 215 313 208 294 b 100 178 168 247 133 213 b 93 179 99 179 96 179 b 93 206 93 189 93 197 b 93 819 93 410 93 615 b 224 949 93 903 139 949 b 772 942 407 949 589 949 b 714 935 753 939 733 935 b 349 933 592 933 469 935 b 217 803 265 935 217 886 z m 831 304 b 729 201 831 239 792 201 b 342 201 599 201 471 201 b 240 301 279 201 240 240 b 240 807 240 469 240 639 b 336 908 240 867 276 907 b 738 908 469 910 603 910 b 831 808 794 907 831 867 b 831 553 832 724 831 638 b 831 304 831 471 831 388 z "},")":{"ha":1082,"x_min":0,"x_max":0,"o":"m 496 625 l 494 625 l 488 603 b 533 532 504 588 519 565 b 554 417 547 500 554 461 l 554 414 b 535 297 554 368 547 329 b 488 228 521 265 506 242 l 494 207 l 496 207 b 563 281 519 219 540 243 b 594 414 583 317 594 363 l 594 415 b 563 550 594 468 583 513 b 496 625 542 588 519 611 z m 1011 822 b 860 972 1011 917 954 972 b 222 972 647 972 435 972 b 69 821 126 972 69 917 b 69 488 69 710 69 599 b 69 149 69 375 69 261 b 218 1 71 58 128 1 b 861 1 433 1 647 1 b 1011 150 954 1 1011 57 b 1011 822 1013 374 1013 599 z m 217 803 b 215 326 217 644 217 485 b 199 285 215 313 208 294 b 100 178 168 247 133 213 b 93 179 99 179 96 179 b 93 206 93 189 93 197 b 93 819 93 410 93 615 b 224 949 93 903 139 949 b 772 942 407 949 589 949 b 714 935 753 939 733 935 b 349 933 592 933 469 935 b 217 803 265 935 217 886 z m 831 304 b 729 201 831 239 793 201 b 342 201 600 201 471 201 b 242 301 281 201 242 240 b 242 807 242 469 242 639 b 336 908 242 867 278 907 b 738 908 471 910 604 910 b 832 808 796 907 832 867 b 832 553 832 724 832 638 b 831 304 831 471 831 388 z "},"*":{"ha":1082,"x_min":0,"x_max":0,"o":"m 601 479 l 556 463 l 557 514 l 525 514 l 526 463 l 481 481 l 469 450 l 517 436 l 486 396 l 513 378 l 539 419 l 567 376 l 593 394 l 563 435 l 611 449 z m 1011 822 b 860 972 1011 917 954 972 b 222 972 647 972 435 972 b 69 821 126 972 69 917 b 69 488 69 710 69 599 b 69 149 69 375 69 261 b 218 1 71 58 128 1 b 861 1 433 1 647 1 b 1011 150 954 1 1011 57 b 1011 822 1013 374 1013 599 z m 217 803 b 215 326 217 644 217 485 b 199 285 215 313 208 294 b 100 178 168 247 133 213 b 93 179 99 179 96 179 b 93 206 93 189 93 197 b 93 819 93 410 93 615 b 224 949 93 903 139 949 b 772 942 407 949 589 949 b 714 935 753 939 733 935 b 349 933 592 933 469 935 b 217 803 265 935 217 886 z m 831 304 b 729 201 831 239 793 201 b 342 201 600 201 471 201 b 242 301 281 201 242 240 b 242 807 242 469 242 639 b 336 908 242 867 278 907 b 738 908 471 910 604 910 b 832 808 796 907 832 867 b 832 553 832 724 832 638 b 831 304 831 471 831 388 z "},"+":{"ha":1081,"x_min":0,"x_max":0,"o":"m 560 539 l 521 539 l 521 454 l 440 454 l 440 419 l 521 419 l 521 328 l 560 328 l 560 419 l 640 419 l 640 454 l 560 454 z m 1011 822 b 860 972 1011 917 954 972 b 222 972 647 972 435 972 b 69 821 126 972 69 917 b 69 488 69 710 69 599 b 69 149 69 375 69 261 b 218 1 71 58 128 1 b 861 1 433 1 647 1 b 1011 150 954 1 1011 57 b 1011 822 1011 374 1011 599 z m 217 803 b 215 326 217 644 217 485 b 199 285 215 313 208 294 b 100 178 168 247 133 213 b 93 179 99 179 96 179 b 93 206 93 189 93 197 b 93 819 93 410 93 615 b 224 949 93 903 139 949 b 772 942 407 949 589 949 b 714 935 753 939 733 935 b 349 933 592 933 469 935 b 217 803 265 935 217 886 z m 831 304 b 729 201 831 239 792 201 b 342 201 599 201 471 201 b 240 301 279 201 240 240 b 240 807 240 469 240 639 b 336 908 240 867 276 907 b 738 908 469 910 603 910 b 831 808 794 907 831 867 b 831 553 832 724 831 638 b 831 304 831 471 831 388 z "},",":{"ha":1082,"x_min":0,"x_max":0,"o":"m 528 310 l 514 247 l 538 247 l 568 308 l 568 343 l 528 343 z m 1011 822 b 860 972 1011 917 954 972 b 222 972 647 972 435 972 b 69 821 126 972 69 917 b 69 488 69 710 69 599 b 69 149 69 375 69 261 b 218 1 71 58 128 1 b 861 1 433 1 647 1 b 1011 150 954 1 1011 57 b 1011 822 1013 374 1013 599 z m 217 803 b 215 326 217 644 217 485 b 199 285 215 313 208 294 b 100 178 168 247 133 213 b 93 179 99 179 96 179 b 93 206 93 189 93 197 b 93 819 93 410 93 615 b 224 949 93 903 139 949 b 772 942 407 949 589 949 b 714 935 753 939 733 935 b 349 933 592 933 469 935 b 217 803 265 935 217 886 z m 831 304 b 729 201 831 239 793 201 b 342 201 600 201 471 201 b 242 301 281 201 242 240 b 242 807 242 469 242 639 b 336 908 242 867 278 907 b 738 908 471 910 604 910 b 832 808 796 907 832 867 b 832 553 832 724 832 638 b 831 304 831 471 831 388 z "},"-":{"ha":1081,"x_min":0,"x_max":0,"o":"m 599 406 l 599 436 l 482 436 l 482 406 z m 1011 822 b 860 972 1011 917 954 972 b 222 972 647 972 435 972 b 69 821 126 972 69 917 b 69 488 69 710 69 599 b 69 149 69 375 69 261 b 218 1 71 58 128 1 b 861 1 433 1 647 1 b 1011 150 954 1 1011 57 b 1011 822 1011 374 1011 599 z m 217 803 b 215 326 217 644 217 485 b 199 285 215 313 208 294 b 100 178 168 247 133 213 b 93 179 99 179 96 179 b 93 206 93 189 93 197 b 93 819 93 410 93 615 b 224 949 93 903 139 949 b 772 942 407 949 589 949 b 714 935 753 939 733 935 b 349 933 592 933 469 935 b 217 803 265 935 217 886 z m 831 304 b 729 201 831 239 793 201 b 342 201 600 201 471 201 b 242 301 281 201 242 240 b 242 807 242 469 242 639 b 336 908 242 867 278 907 b 738 908 471 910 604 910 b 832 808 796 907 832 867 b 832 553 832 724 832 638 b 831 304 831 471 831 388 z "},".":{"ha":1082,"x_min":0,"x_max":0,"o":"m 560 299 l 560 339 l 521 339 l 521 299 z m 1011 822 b 860 972 1011 917 954 972 b 222 972 647 972 435 972 b 69 821 126 972 69 917 b 69 488 69 710 69 599 b 69 149 69 375 69 261 b 218 1 71 58 128 1 b 861 1 433 1 647 1 b 1011 150 954 1 1011 57 b 1011 822 1013 374 1013 599 z m 217 803 b 215 326 217 644 217 485 b 199 285 215 313 208 294 b 100 178 168 247 133 213 b 93 179 99 179 96 179 b 93 206 93 189 93 197 b 93 819 93 410 93 615 b 224 949 93 903 139 949 b 772 942 407 949 589 949 b 714 935 753 939 733 935 b 349 933 592 933 469 935 b 217 803 265 935 217 886 z m 831 304 b 729 201 831 239 793 201 b 342 201 600 201 471 201 b 242 301 281 201 242 240 b 242 807 242 469 242 639 b 336 908 242 867 278 907 b 738 908 471 910 604 910 b 832 808 796 907 832 867 b 832 553 832 724 832 638 b 831 304 831 471 831 388 z "},"/":{"ha":1081,"x_min":0,"x_max":0,"o":"m 463 274 l 497 274 l 617 589 l 585 589 z m 1011 822 b 860 972 1011 917 954 972 b 222 972 647 972 435 972 b 69 821 126 972 69 917 b 69 488 69 710 69 599 b 69 149 69 375 69 261 b 218 1 71 58 128 1 b 861 1 433 1 647 1 b 1011 150 954 1 1011 57 b 1011 822 1011 374 1011 599 z m 217 803 b 215 326 217 644 217 485 b 199 285 215 313 208 294 b 100 178 168 247 133 213 b 93 179 99 179 96 179 b 93 206 93 189 93 197 b 93 819 93 410 93 615 b 224 949 93 903 139 949 b 772 942 407 949 589 949 b 714 935 753 939 733 935 b 349 933 592 933 469 935 b 217 803 265 935 217 886 z m 831 304 b 729 201 831 239 792 201 b 342 201 599 201 471 201 b 240 301 279 201 240 240 b 240 807 240 469 240 639 b 336 908 240 867 276 907 b 738 908 469 910 603 910 b 831 808 794 907 831 867 b 831 553 832 724 831 638 b 831 304 831 471 831 388 z "},":":{"ha":1081,"x_min":0,"x_max":0,"o":"m 560 299 l 560 339 l 521 339 l 521 299 z m 560 472 l 560 513 l 521 513 l 521 472 z m 1011 822 b 860 972 1011 917 954 972 b 222 972 647 972 435 972 b 69 821 126 972 69 917 b 69 488 69 710 69 599 b 69 149 69 375 69 261 b 218 1 71 58 128 1 b 861 1 433 1 647 1 b 1011 150 954 1 1011 57 b 1011 822 1011 374 1011 599 z m 217 803 b 215 326 217 644 217 485 b 199 285 215 313 208 294 b 100 178 168 247 133 213 b 93 179 99 179 96 179 b 93 206 93 189 93 197 b 93 819 93 410 93 615 b 224 949 93 903 139 949 b 772 942 407 949 589 949 b 714 935 753 939 733 935 b 349 933 592 933 469 935 b 217 803 265 935 217 886 z m 831 304 b 729 201 831 239 792 201 b 342 201 599 201 471 201 b 240 301 279 201 240 240 b 240 807 240 469 240 639 b 336 908 240 867 276 907 b 738 908 469 910 603 910 b 831 808 794 907 831 867 b 831 553 832 724 831 638 b 831 304 831 471 831 388 z "},";":{"ha":1082,"x_min":0,"x_max":0,"o":"m 565 472 l 565 513 l 526 513 l 526 472 z m 528 310 l 514 247 l 538 247 l 567 308 l 567 343 l 528 343 z m 1011 822 b 860 972 1011 917 954 972 b 222 972 647 972 435 972 b 69 821 126 972 69 917 b 69 488 69 710 69 599 b 69 149 69 375 69 261 b 218 1 71 58 128 1 b 861 1 433 1 647 1 b 1011 150 954 1 1011 57 b 1011 822 1013 374 1013 599 z m 217 803 b 215 326 217 644 217 485 b 199 285 215 313 208 294 b 100 178 168 247 133 213 b 93 179 99 179 96 179 b 93 206 93 189 93 197 b 93 819 93 410 93 615 b 224 949 93 903 139 949 b 772 942 407 949 589 949 b 714 935 753 939 733 935 b 349 933 592 933 469 935 b 217 803 265 935 217 886 z m 831 304 b 729 201 831 239 793 201 b 342 201 600 201 471 201 b 242 301 281 201 242 240 b 242 807 242 469 242 639 b 336 908 242 867 278 907 b 738 908 471 910 604 910 b 832 808 796 907 832 867 b 832 553 832 724 832 638 b 831 304 831 471 831 388 z "},"<":{"ha":1081,"x_min":0,"x_max":0,"o":"m 460 394 l 622 319 l 622 360 l 511 406 l 493 410 l 511 414 l 622 460 l 622 500 l 460 425 z m 1011 822 b 861 972 1011 917 956 972 b 222 972 649 972 435 972 b 71 821 126 972 71 917 b 71 488 71 710 71 599 b 71 149 71 375 69 261 b 219 1 71 58 128 1 b 863 1 433 1 647 1 b 1011 150 956 1 1011 57 b 1011 822 1011 374 1011 599 z m 217 803 b 217 326 217 644 217 485 b 200 285 217 313 210 294 b 101 178 168 247 133 213 b 94 179 99 179 96 179 b 94 206 94 189 94 197 b 94 819 94 410 94 615 b 224 949 94 903 140 949 b 774 942 407 949 589 949 b 714 935 754 939 733 935 b 349 933 592 933 471 935 b 217 803 265 935 217 886 z m 831 304 b 729 201 831 239 793 201 b 342 201 600 201 471 201 b 240 301 279 201 240 240 b 240 807 240 469 240 639 b 336 908 240 867 278 907 b 738 908 471 910 603 910 b 832 808 794 907 832 867 b 832 553 832 724 832 638 b 831 304 831 471 831 388 z "},"=":{"ha":1081,"x_min":0,"x_max":0,"o":"m 624 379 l 624 413 l 457 413 l 457 379 z m 624 463 l 624 494 l 457 494 l 457 463 z m 1011 822 b 860 972 1011 917 954 972 b 222 972 647 972 435 972 b 69 821 126 972 69 917 b 69 488 69 710 69 599 b 69 149 69 375 69 261 b 218 1 71 58 128 1 b 861 1 433 1 647 1 b 1011 150 954 1 1011 57 b 1011 822 1011 374 1011 599 z m 217 803 b 215 326 217 644 217 485 b 199 285 215 313 208 294 b 100 178 168 247 133 213 b 93 179 99 179 96 179 b 93 206 93 189 93 197 b 93 819 93 410 93 615 b 224 949 93 903 139 949 b 772 942 407 949 589 949 b 714 935 753 939 733 935 b 349 933 592 933 469 935 b 217 803 265 935 217 886 z m 831 304 b 729 201 831 239 792 201 b 342 201 599 201 471 201 b 240 301 279 201 240 240 b 240 807 240 469 240 639 b 336 908 240 867 276 907 b 738 908 469 910 603 910 b 831 808 794 907 831 867 b 831 553 832 724 831 638 b 831 304 831 471 831 388 z "},">":{"ha":1081,"x_min":0,"x_max":0,"o":"m 456 458 l 575 411 l 592 407 l 592 406 l 575 403 l 456 354 l 456 315 l 625 392 l 625 421 l 456 496 z m 1011 822 b 860 972 1011 917 954 972 b 222 972 647 972 435 972 b 69 821 126 972 69 917 b 69 488 69 710 69 599 b 69 149 69 375 69 261 b 218 1 71 58 128 1 b 861 1 433 1 647 1 b 1011 150 954 1 1011 57 b 1011 822 1011 374 1011 599 z m 217 803 b 215 326 217 644 217 485 b 199 285 215 313 208 294 b 100 178 168 247 133 213 b 93 179 99 179 96 179 b 93 206 93 189 93 197 b 93 819 93 410 93 615 b 224 949 93 903 139 949 b 772 942 407 949 589 949 b 714 935 753 939 733 935 b 349 933 592 933 469 935 b 217 803 265 935 217 886 z m 831 304 b 729 201 831 239 793 201 b 342 201 600 201 471 201 b 242 301 281 201 242 240 b 242 807 242 469 242 639 b 336 908 242 867 278 907 b 738 908 471 910 604 910 b 832 808 796 907 832 867 b 832 553 832 724 832 638 b 831 304 831 471 831 388 z "},"?":{"ha":1081,"x_min":0,"x_max":0,"o":"m 557 299 l 557 339 l 517 339 l 517 299 z m 540 592 b 481 572 517 592 497 586 b 458 521 465 560 458 543 l 460 519 l 497 519 b 510 549 497 532 501 542 b 540 558 518 556 528 558 b 572 547 554 558 565 556 b 583 515 579 540 583 529 b 575 485 583 503 581 493 b 547 450 569 478 560 465 b 521 421 533 438 525 428 b 517 381 518 413 517 400 l 556 381 b 557 407 556 392 556 401 b 569 426 558 413 564 419 b 607 469 586 442 597 456 b 622 517 617 483 622 500 b 600 572 622 540 614 560 b 540 592 586 586 567 592 z m 1011 822 b 860 972 1011 917 954 972 b 222 972 647 972 435 972 b 69 821 126 972 69 917 b 69 488 69 710 69 599 b 69 149 69 375 69 261 b 218 1 71 58 128 1 b 861 1 433 1 647 1 b 1011 150 954 1 1011 57 b 1011 822 1011 374 1011 599 z m 217 803 b 215 326 217 644 217 485 b 199 285 215 313 208 294 b 100 178 168 247 133 213 b 93 179 99 179 96 179 b 93 206 93 189 93 197 b 93 819 93 410 93 615 b 224 949 93 903 139 949 b 772 942 407 949 589 949 b 714 935 753 939 733 935 b 349 933 592 933 469 935 b 217 803 265 935 217 886 z m 831 304 b 729 201 831 239 792 201 b 342 201 599 201 471 201 b 240 301 279 201 240 240 b 240 807 240 469 240 639 b 336 908 240 867 276 907 b 738 908 469 910 603 910 b 831 808 794 907 831 867 b 831 553 832 724 831 638 b 831 304 831 471 831 388 z "},"@":{"ha":1082,"x_min":0,"x_max":0,"o":"m 549 583 b 429 531 500 583 460 565 b 381 393 399 494 382 450 b 418 258 378 336 390 290 b 535 208 446 225 485 208 b 575 213 547 208 561 210 b 608 226 588 217 600 221 l 601 247 b 569 236 593 242 582 239 b 535 231 558 232 546 231 b 439 275 492 231 460 246 b 408 393 417 304 407 343 b 449 513 411 442 424 482 b 547 558 474 543 507 558 b 646 517 593 558 625 544 b 675 397 667 488 676 449 b 658 339 674 374 668 354 b 619 317 649 325 635 317 b 603 325 613 317 607 319 b 599 356 599 331 597 342 l 608 472 l 607 472 l 608 472 b 581 489 599 481 589 485 b 547 493 572 492 561 493 b 492 463 525 493 507 483 b 464 379 476 442 467 414 b 475 317 461 353 465 332 b 514 293 483 300 496 293 b 547 300 526 293 538 296 b 571 325 557 306 565 314 b 586 301 574 315 579 307 b 611 293 593 296 601 293 b 676 324 640 293 663 304 b 701 397 692 344 700 368 b 664 532 703 454 692 499 b 549 583 638 567 599 583 z m 568 357 b 568 351 568 354 568 353 b 568 346 568 349 568 347 b 549 328 563 338 556 332 b 525 324 542 325 533 324 b 504 338 515 324 508 328 b 500 382 500 347 499 363 b 517 447 503 411 508 433 b 556 469 526 461 539 469 b 567 468 560 469 564 468 b 578 464 571 467 575 465 z m 1011 822 b 860 972 1011 917 954 972 b 222 972 647 972 435 972 b 69 821 126 972 69 917 b 69 488 69 710 69 599 b 69 149 69 375 69 261 b 218 1 71 58 128 1 b 861 1 433 1 647 1 b 1011 150 954 1 1011 57 b 1011 822 1013 374 1013 599 z m 217 803 b 215 326 217 644 217 485 b 199 285 215 313 208 294 b 100 178 168 247 133 213 b 93 179 99 179 96 179 b 93 206 93 189 93 197 b 93 819 93 410 93 615 b 224 949 93 903 139 949 b 772 942 407 949 589 949 b 714 935 753 939 733 935 b 349 933 592 933 469 935 b 217 803 265 935 217 886 z m 831 304 b 729 201 831 239 793 201 b 342 201 600 201 471 201 b 242 301 281 201 242 240 b 242 807 242 469 242 639 b 336 908 242 867 278 907 b 738 908 471 910 604 910 b 832 808 796 907 832 867 b 832 553 832 724 832 638 b 831 304 831 471 831 388 z "},"A":{"ha":1081,"x_min":0,"x_max":0,"o":"m 525 589 l 421 299 l 461 299 l 486 374 l 596 374 l 621 299 l 661 299 l 558 589 z m 497 406 l 540 531 l 542 531 l 583 406 z m 1011 822 b 860 972 1011 917 954 972 b 222 972 647 972 435 972 b 69 821 125 972 71 917 b 69 488 69 710 69 599 b 69 149 69 374 69 261 b 218 1 71 57 126 1 b 861 1 433 1 647 1 b 1011 150 954 1 1011 57 b 1011 822 1011 374 1011 599 z m 217 803 b 215 326 217 644 217 485 b 199 285 215 313 208 294 b 100 178 168 247 133 213 b 93 179 97 179 96 179 b 93 206 93 189 93 197 b 93 819 93 410 93 615 b 224 949 94 903 140 949 b 774 942 407 949 589 949 b 714 935 754 939 733 935 b 349 933 592 933 471 935 b 217 803 265 935 217 886 z m 831 304 b 729 201 831 239 793 201 b 342 201 600 201 471 201 b 240 301 279 201 240 240 b 240 807 240 469 240 639 b 336 908 240 867 278 907 b 738 908 471 910 603 910 b 832 808 794 907 832 867 b 832 553 832 724 832 638 b 831 304 831 471 831 388 z "},"B":{"ha":1081,"x_min":0,"x_max":0,"o":"m 585 454 b 615 476 597 460 607 467 b 626 510 622 486 626 497 b 601 569 626 536 618 556 b 529 589 583 582 560 589 l 436 589 l 436 299 l 550 299 b 621 319 579 299 604 306 b 647 381 638 333 647 354 b 631 429 647 399 642 415 b 585 454 618 443 603 451 z m 475 557 l 529 557 b 572 546 549 557 563 553 b 588 510 582 538 588 526 b 574 476 588 496 583 485 b 538 464 565 468 553 464 l 475 464 z m 592 343 b 550 329 582 333 568 329 l 475 329 l 475 435 l 550 435 b 592 419 568 433 582 429 b 607 381 601 410 607 396 b 592 343 607 364 601 351 z m 1011 822 b 860 972 1011 917 954 972 b 222 972 647 972 435 972 b 69 821 126 972 69 917 b 69 488 69 710 69 599 b 69 149 69 375 69 261 b 218 1 71 58 128 1 b 861 1 433 1 647 1 b 1011 150 954 1 1011 57 b 1011 822 1011 374 1011 599 z m 217 803 b 215 326 217 644 217 485 b 199 285 215 313 208 294 b 100 178 168 247 133 213 b 93 179 99 179 96 179 b 93 206 93 189 93 197 b 93 819 93 410 93 615 b 224 949 93 903 139 949 b 772 942 407 949 589 949 b 714 935 753 939 733 935 b 349 933 592 933 469 935 b 217 803 265 935 217 886 z m 831 304 b 729 201 831 239 793 201 b 342 201 600 201 471 201 b 242 301 281 201 242 240 b 242 807 242 469 242 639 b 336 908 242 867 278 907 b 738 908 471 910 604 910 b 832 808 796 907 832 867 b 832 553 832 724 832 638 b 831 304 831 471 831 388 z "},"C":{"ha":1082,"x_min":0,"x_max":0,"o":"m 490 536 b 543 561 504 553 521 561 b 594 543 565 561 582 556 b 613 496 606 532 613 517 l 650 496 l 650 497 b 622 567 651 526 642 549 b 543 593 603 585 576 593 b 463 558 510 593 483 581 b 432 469 443 535 432 504 l 432 418 b 463 329 432 382 443 353 b 543 294 485 307 510 294 b 621 322 575 294 601 304 b 650 390 640 342 650 364 l 649 392 l 611 392 b 593 343 611 371 606 356 b 543 325 582 332 564 325 b 490 351 521 325 503 335 b 471 417 478 368 471 392 l 471 469 b 490 536 471 496 478 518 z m 1011 822 b 860 972 1011 917 954 972 b 222 972 647 972 435 972 b 69 821 126 972 69 917 b 69 488 69 710 69 599 b 69 149 69 375 69 261 b 218 1 71 58 128 1 b 861 1 433 1 647 1 b 1011 150 954 1 1011 57 b 1011 822 1013 374 1013 599 z m 217 803 b 215 326 217 644 217 485 b 199 285 215 313 208 294 b 100 178 168 247 133 213 b 93 179 99 179 96 179 b 93 206 93 189 93 197 b 93 819 93 410 93 615 b 224 949 93 903 139 949 b 772 942 407 949 589 949 b 714 935 753 939 733 935 b 349 933 592 933 469 935 b 217 803 265 935 217 886 z m 831 304 b 729 201 831 239 793 201 b 342 201 600 201 471 201 b 242 301 281 201 242 240 b 242 807 242 469 242 639 b 336 908 242 867 278 907 b 738 908 471 910 604 910 b 832 808 796 907 832 867 b 832 553 832 724 832 638 b 831 304 831 471 831 388 z "},"D":{"ha":1082,"x_min":0,"x_max":0,"o":"m 524 589 l 432 589 l 432 299 l 524 299 b 614 333 561 299 592 310 b 649 424 638 356 649 386 l 649 463 b 614 553 649 500 638 531 b 524 589 592 576 561 589 z m 610 424 b 586 356 610 396 603 374 b 524 329 571 338 550 329 l 471 329 l 471 557 l 524 557 b 586 531 550 557 571 549 b 610 464 603 513 610 490 z m 1011 822 b 860 972 1011 917 954 972 b 222 972 647 972 435 972 b 69 821 126 972 69 917 b 69 488 69 710 69 599 b 69 149 69 375 69 261 b 218 1 71 58 128 1 b 861 1 433 1 647 1 b 1011 150 954 1 1011 57 b 1011 822 1013 374 1013 599 z m 217 803 b 215 326 217 644 217 485 b 199 285 215 313 208 294 b 100 178 168 247 133 213 b 93 179 99 179 96 179 b 93 206 93 189 93 197 b 93 819 93 410 93 615 b 224 949 93 903 139 949 b 772 942 407 949 589 949 b 714 935 753 939 733 935 b 349 933 592 933 469 935 b 217 803 265 935 217 886 z m 831 304 b 729 201 831 239 793 201 b 342 201 600 201 471 201 b 242 301 281 201 242 240 b 242 807 242 469 242 639 b 336 908 242 867 278 907 b 738 908 471 910 604 910 b 832 808 796 907 832 867 b 832 553 832 724 832 638 b 831 304 831 471 831 388 z "},"E":{"ha":1082,"x_min":0,"x_max":0,"o":"m 490 433 l 610 433 l 610 464 l 490 464 l 490 557 l 628 557 l 628 589 l 451 589 l 451 299 l 631 299 l 631 329 l 490 329 z m 1011 822 b 860 972 1011 917 954 972 b 222 972 647 972 435 972 b 69 821 126 972 69 917 b 69 488 69 710 69 599 b 69 149 69 375 69 261 b 218 1 71 58 128 1 b 861 1 433 1 647 1 b 1011 150 954 1 1011 57 b 1011 822 1013 374 1013 599 z m 217 803 b 215 326 217 644 217 485 b 199 285 215 313 208 294 b 100 178 168 247 133 213 b 93 179 99 179 96 179 b 93 206 93 189 93 197 b 93 819 93 410 93 615 b 224 949 93 903 139 949 b 772 942 407 949 589 949 b 714 935 753 939 733 935 b 349 933 592 933 469 935 b 217 803 265 935 217 886 z m 831 304 b 729 201 831 239 793 201 b 342 201 600 201 471 201 b 242 301 281 201 242 240 b 242 807 242 469 242 639 b 336 908 242 867 278 907 b 738 908 471 910 604 910 b 832 808 796 907 832 867 b 832 553 832 724 832 638 b 831 304 831 471 831 388 z "},"F":{"ha":1081,"x_min":0,"x_max":0,"o":"m 450 299 l 489 299 l 489 426 l 611 426 l 611 458 l 489 458 l 489 557 l 632 557 l 632 589 l 450 589 z m 1011 822 b 860 972 1011 917 954 972 b 222 972 647 972 435 972 b 69 821 126 972 69 917 b 69 488 69 710 69 599 b 69 149 69 375 69 261 b 218 1 71 58 128 1 b 861 1 433 1 647 1 b 1011 150 954 1 1011 57 b 1011 822 1011 374 1011 599 z m 217 803 b 215 326 217 644 217 485 b 199 285 215 313 208 294 b 100 178 168 247 133 213 b 93 179 99 179 96 179 b 93 206 93 189 93 197 b 93 819 93 410 93 615 b 224 949 93 903 139 949 b 772 942 407 949 589 949 b 714 935 753 939 733 935 b 349 933 592 933 469 935 b 217 803 265 935 217 886 z m 831 304 b 729 201 831 239 792 201 b 342 201 599 201 471 201 b 240 301 279 201 240 240 b 240 807 240 469 240 639 b 336 908 240 867 276 907 b 738 908 469 910 603 910 b 831 808 794 907 831 867 b 831 553 832 724 831 638 b 831 304 831 471 831 388 z "},"G":{"ha":1081,"x_min":0,"x_max":0,"o":"m 611 413 l 611 347 b 588 332 606 342 597 336 b 547 325 578 328 564 325 b 493 350 525 325 507 333 b 471 414 479 367 471 388 l 471 474 b 492 536 471 499 478 519 b 546 561 506 553 524 561 b 594 543 567 561 583 556 b 611 499 606 531 611 517 l 649 499 l 650 500 b 622 567 650 528 642 549 b 546 592 604 583 578 592 b 465 558 513 592 486 581 b 433 472 443 536 433 508 l 433 413 b 467 326 433 378 444 349 b 549 294 488 304 515 294 b 615 307 576 294 599 299 b 651 338 633 317 644 326 l 651 443 l 547 443 l 547 413 z m 1011 822 b 860 972 1011 917 954 972 b 222 972 647 972 435 972 b 69 821 126 972 69 917 b 69 488 69 710 69 599 b 69 149 69 375 69 261 b 218 1 71 58 128 1 b 861 1 433 1 647 1 b 1011 150 954 1 1011 57 b 1011 822 1013 374 1011 599 z m 217 803 b 215 326 217 644 217 485 b 199 285 215 313 208 294 b 100 178 168 247 133 213 b 93 179 99 179 96 179 b 93 206 93 189 93 197 b 93 819 93 410 93 615 b 224 949 93 903 139 949 b 772 942 407 949 589 949 b 714 935 753 939 733 935 b 349 933 592 933 469 935 b 217 803 265 935 217 886 z m 831 304 b 729 201 831 239 793 201 b 342 201 600 201 471 201 b 242 301 281 201 242 240 b 242 807 242 469 242 639 b 336 908 242 867 278 907 b 738 908 471 910 604 910 b 832 808 796 907 832 867 b 832 553 832 724 832 638 b 831 304 831 471 831 388 z "},"H":{"ha":1082,"x_min":0,"x_max":0,"o":"m 611 458 l 469 458 l 469 589 l 431 589 l 431 299 l 469 299 l 469 426 l 611 426 l 611 299 l 650 299 l 650 589 l 611 589 z m 1011 822 b 860 972 1011 917 954 972 b 222 972 647 972 435 972 b 69 821 126 972 69 917 b 69 488 69 710 69 599 b 69 149 69 375 69 261 b 218 1 71 58 128 1 b 861 1 433 1 647 1 b 1011 150 954 1 1011 57 b 1011 822 1013 374 1013 599 z m 217 803 b 215 326 217 644 217 485 b 199 285 215 313 208 294 b 100 178 168 247 133 213 b 93 179 99 179 96 179 b 93 206 93 189 93 197 b 93 819 93 410 93 615 b 224 949 93 903 139 949 b 772 942 407 949 589 949 b 714 935 753 939 733 935 b 349 933 592 933 469 935 b 217 803 265 935 217 886 z m 831 304 b 729 201 831 239 793 201 b 342 201 600 201 471 201 b 242 301 281 201 242 240 b 242 807 242 469 242 639 b 336 908 242 867 278 907 b 738 908 471 910 604 910 b 832 808 796 907 832 867 b 832 553 832 724 832 638 b 831 304 831 471 831 388 z "},"I":{"ha":1082,"x_min":0,"x_max":0,"o":"m 560 299 l 560 589 l 521 589 l 521 299 z m 1011 822 b 860 972 1011 917 954 972 b 222 972 647 972 435 972 b 69 821 126 972 69 917 b 69 488 69 710 69 599 b 69 149 69 375 69 261 b 218 1 71 58 128 1 b 861 1 433 1 647 1 b 1011 150 954 1 1011 57 b 1011 822 1013 374 1013 599 z m 217 803 b 215 326 217 644 217 485 b 199 285 215 313 208 294 b 100 178 168 247 133 213 b 93 179 99 179 96 179 b 93 206 93 189 93 197 b 93 819 93 410 93 615 b 224 949 93 903 139 949 b 772 942 407 949 589 949 b 714 935 753 939 733 935 b 349 933 592 933 469 935 b 217 803 265 935 217 886 z m 831 304 b 729 201 831 239 793 201 b 342 201 600 201 471 201 b 242 301 281 201 242 240 b 242 807 242 469 242 639 b 336 908 242 867 278 907 b 738 908 471 910 604 910 b 832 808 796 907 832 867 b 832 553 832 724 832 638 b 831 304 831 471 831 388 z "},"J":{"ha":1081,"x_min":0,"x_max":0,"o":"m 589 382 b 575 340 589 365 585 351 b 540 325 567 329 554 325 b 504 338 525 325 514 329 b 492 378 496 347 492 361 l 454 378 l 453 376 b 476 315 453 350 460 329 b 539 294 492 301 513 294 b 603 318 565 294 586 303 b 628 383 619 335 628 356 l 628 589 l 589 589 z m 1011 822 b 860 972 1011 917 954 972 b 222 972 647 972 435 972 b 69 821 126 972 69 917 b 69 488 69 710 69 599 b 69 149 69 375 69 261 b 218 1 71 58 128 1 b 861 1 433 1 647 1 b 1011 150 954 1 1011 57 b 1011 822 1011 374 1011 599 z m 217 803 b 215 326 217 644 217 485 b 199 285 215 313 208 294 b 100 178 168 247 133 213 b 93 179 99 179 96 179 b 93 206 93 189 93 197 b 93 819 93 410 93 615 b 224 949 93 903 139 949 b 772 942 407 949 589 949 b 714 935 753 939 733 935 b 349 933 592 933 469 935 b 217 803 265 935 217 886 z m 831 304 b 729 201 831 239 792 201 b 342 201 599 201 471 201 b 240 301 279 201 240 240 b 240 807 240 469 240 639 b 336 908 240 867 276 907 b 738 908 469 910 603 910 b 831 808 794 907 831 867 b 831 553 832 724 831 638 b 831 304 831 471 831 388 z "},"K":{"ha":1082,"x_min":0,"x_max":0,"o":"m 643 588 l 643 589 l 599 589 l 490 460 l 469 460 l 469 589 l 431 589 l 431 299 l 469 299 l 469 429 l 496 429 l 604 299 l 651 299 l 526 450 z m 1011 822 b 860 972 1011 917 954 972 b 222 972 647 972 435 972 b 69 821 126 972 69 917 b 69 488 69 710 69 599 b 69 149 69 375 69 261 b 218 1 71 58 128 1 b 861 1 433 1 647 1 b 1011 150 954 1 1011 57 b 1011 822 1013 374 1013 599 z m 217 803 b 215 326 217 644 217 485 b 199 285 215 313 208 294 b 100 178 168 247 133 213 b 93 179 99 179 96 179 b 93 206 93 189 93 197 b 93 819 93 410 93 615 b 224 949 93 903 139 949 b 772 942 407 949 589 949 b 714 935 753 939 733 935 b 349 933 592 933 469 935 b 217 803 265 935 217 886 z m 831 304 b 729 201 831 239 793 201 b 342 201 600 201 471 201 b 242 301 281 201 242 240 b 242 807 242 469 242 639 b 336 908 242 867 278 907 b 738 908 471 910 604 910 b 832 808 796 907 832 867 b 832 553 832 724 832 638 b 831 304 831 471 831 388 z "},"L":{"ha":1082,"x_min":0,"x_max":0,"o":"m 490 589 l 450 589 l 450 299 l 632 299 l 632 329 l 490 329 z m 1011 822 b 860 972 1011 917 954 972 b 222 972 647 972 435 972 b 69 821 126 972 69 917 b 69 488 69 710 69 599 b 69 149 69 375 69 261 b 218 1 71 58 128 1 b 861 1 433 1 647 1 b 1011 150 954 1 1011 57 b 1011 822 1013 374 1013 599 z m 217 803 b 215 326 217 644 217 485 b 199 285 215 313 208 294 b 100 178 168 247 133 213 b 93 179 99 179 96 179 b 93 206 93 189 93 197 b 93 819 93 410 93 615 b 224 949 93 903 139 949 b 772 942 407 949 589 949 b 714 935 753 939 733 935 b 349 933 592 933 469 935 b 217 803 265 935 217 886 z m 831 304 b 729 201 831 239 793 201 b 342 201 600 201 471 201 b 242 301 281 201 242 240 b 242 807 242 469 242 639 b 336 908 242 867 278 907 b 738 908 471 910 604 910 b 832 808 796 907 832 867 b 832 553 832 724 832 638 b 831 304 831 471 831 388 z "},"M":{"ha":1082,"x_min":0,"x_max":0,"o":"m 543 353 l 540 353 l 449 589 l 397 589 l 397 299 l 438 299 l 438 522 l 528 299 l 556 299 l 643 517 l 644 517 l 644 299 l 683 299 l 683 589 l 635 589 z m 1011 822 b 860 972 1011 917 954 972 b 222 972 647 972 435 972 b 69 821 126 972 69 917 b 69 488 69 710 69 599 b 69 149 69 375 69 261 b 218 1 71 58 128 1 b 861 1 433 1 647 1 b 1011 150 954 1 1011 57 b 1011 822 1013 374 1013 599 z m 217 803 b 215 326 217 644 217 485 b 199 285 215 313 208 294 b 100 178 168 247 133 213 b 93 179 99 179 96 179 b 93 206 93 189 93 197 b 93 819 93 410 93 615 b 224 949 93 903 139 949 b 772 942 407 949 589 949 b 714 935 753 939 733 935 b 349 933 592 933 469 935 b 217 803 265 935 217 886 z m 831 304 b 729 201 831 239 793 201 b 342 201 600 201 471 201 b 242 301 281 201 242 240 b 242 807 242 469 242 639 b 336 908 242 867 278 907 b 738 908 471 910 604 910 b 832 808 796 907 832 867 b 832 553 832 724 832 638 b 831 304 831 471 831 388 z "},"N":{"ha":1081,"x_min":0,"x_max":0,"o":"m 611 367 l 610 367 l 469 589 l 431 589 l 431 299 l 469 299 l 469 519 l 471 519 l 611 299 l 650 299 l 650 589 l 611 589 z m 1011 822 b 860 972 1011 917 954 972 b 222 972 647 972 435 972 b 69 821 126 972 69 917 b 69 488 69 710 69 599 b 69 149 69 375 69 261 b 218 1 71 58 128 1 b 861 1 433 1 647 1 b 1011 150 954 1 1011 57 b 1011 822 1011 374 1011 599 z m 217 803 b 215 326 217 644 217 485 b 199 285 215 313 208 294 b 100 178 168 247 133 213 b 93 179 99 179 96 179 b 93 206 93 189 93 197 b 93 819 93 410 93 615 b 224 949 93 903 139 949 b 772 942 407 949 589 949 b 714 935 753 939 733 935 b 349 933 592 933 469 935 b 217 803 265 935 217 886 z m 831 304 b 729 201 831 239 792 201 b 342 201 599 201 471 201 b 240 301 279 201 240 240 b 240 807 240 469 240 639 b 336 908 240 867 276 907 b 738 908 469 910 603 910 b 831 808 794 907 831 867 b 831 553 832 724 831 638 b 831 304 831 471 831 388 z "},"O":{"ha":1082,"x_min":0,"x_max":0,"o":"m 539 592 b 457 557 506 592 478 581 b 425 469 436 533 425 504 l 425 417 b 457 329 425 382 436 353 b 539 294 478 306 506 294 b 624 329 574 294 603 306 b 657 417 646 353 657 382 l 657 469 b 624 557 657 504 646 533 b 539 592 603 581 574 592 z m 618 417 b 596 351 618 390 611 368 b 539 326 582 335 563 326 b 485 351 515 326 497 335 b 464 417 471 368 464 390 l 464 469 b 485 533 464 494 471 518 b 539 560 497 551 517 560 b 596 533 563 560 582 551 b 618 469 611 517 618 494 z m 1011 822 b 860 972 1011 917 954 972 b 222 972 647 972 435 972 b 69 821 126 972 69 917 b 69 488 69 710 69 599 b 69 149 69 375 69 261 b 218 1 71 58 128 1 b 861 1 433 1 647 1 b 1011 150 954 1 1011 57 b 1011 822 1013 374 1013 599 z m 217 803 b 215 326 217 644 217 485 b 199 285 215 313 208 294 b 100 178 168 247 133 213 b 93 179 99 179 96 179 b 93 206 93 189 93 197 b 93 819 93 410 93 615 b 224 949 93 903 139 949 b 772 942 407 949 589 949 b 714 935 753 939 733 935 b 349 933 592 933 469 935 b 217 803 265 935 217 886 z m 831 304 b 729 201 831 239 793 201 b 342 201 600 201 471 201 b 242 301 281 201 242 240 b 242 807 242 469 242 639 b 336 908 242 867 278 907 b 738 908 471 910 604 910 b 832 808 796 907 832 867 b 832 553 832 724 832 638 b 831 304 831 471 831 388 z "},"P":{"ha":1082,"x_min":0,"x_max":0,"o":"m 547 589 l 436 589 l 436 299 l 475 299 l 475 415 l 547 415 b 619 439 578 415 603 424 b 644 501 636 454 644 475 b 619 565 644 528 636 549 b 547 589 603 581 578 589 z m 592 461 b 547 446 582 451 567 446 l 475 446 l 475 558 l 547 558 b 592 542 567 558 582 553 b 606 501 601 531 606 518 b 592 461 606 485 601 472 z m 1011 822 b 860 972 1011 917 954 972 b 222 972 647 972 435 972 b 69 821 126 972 69 917 b 69 488 69 710 69 599 b 69 149 69 375 69 261 b 218 1 71 58 128 1 b 861 1 433 1 647 1 b 1011 150 954 1 1011 57 b 1011 822 1013 374 1013 599 z m 217 803 b 215 326 217 644 217 485 b 199 285 215 313 208 294 b 100 178 168 247 133 213 b 93 179 99 179 96 179 b 93 206 93 189 93 197 b 93 819 93 410 93 615 b 224 949 93 903 139 949 b 772 942 407 949 589 949 b 714 935 753 939 733 935 b 349 933 592 933 469 935 b 217 803 265 935 217 886 z m 831 304 b 729 201 831 239 793 201 b 342 201 600 201 471 201 b 242 301 281 201 242 240 b 242 807 242 469 242 639 b 336 908 242 867 278 907 b 738 908 471 910 604 910 b 832 808 796 907 832 867 b 832 553 832 724 832 638 b 831 304 831 471 831 388 z "},"Q":{"ha":1082,"x_min":0,"x_max":0,"o":"m 642 374 b 649 417 646 388 649 401 l 649 469 b 615 557 649 504 638 533 b 531 592 594 581 565 592 b 449 557 497 592 469 581 b 417 469 428 533 417 504 l 417 417 b 449 329 417 382 428 353 b 531 294 469 306 497 294 b 565 299 543 294 554 296 b 594 313 576 301 586 306 l 639 269 l 665 294 l 622 336 b 642 374 631 349 638 361 z m 608 417 b 588 351 608 390 601 368 b 529 326 574 335 554 326 b 475 351 507 326 489 335 b 456 417 461 368 456 390 l 456 469 b 475 533 456 494 461 518 b 529 560 489 551 507 560 b 588 533 554 560 574 551 b 608 469 601 517 608 494 z m 1011 822 b 860 972 1011 917 954 972 b 222 972 647 972 435 972 b 69 821 126 972 69 917 b 69 488 69 710 69 599 b 69 149 69 375 69 261 b 218 1 71 58 128 1 b 861 1 433 1 647 1 b 1011 150 954 1 1011 57 b 1011 822 1013 374 1013 599 z m 217 803 b 215 326 217 644 217 485 b 199 285 215 313 208 294 b 100 178 168 247 133 213 b 93 179 99 179 96 179 b 93 206 93 189 93 197 b 93 819 93 410 93 615 b 224 949 93 903 139 949 b 772 942 407 949 589 949 b 714 935 753 939 733 935 b 349 933 592 933 469 935 b 217 803 265 935 217 886 z m 831 304 b 729 201 831 239 793 201 b 342 201 600 201 471 201 b 242 301 281 201 242 240 b 242 807 242 469 242 639 b 336 908 242 867 278 907 b 738 908 471 910 604 910 b 832 808 796 907 832 867 b 832 553 832 724 832 638 b 831 304 831 471 831 388 z "},"R":{"ha":1081,"x_min":0,"x_max":0,"o":"m 632 344 l 632 372 b 621 415 632 389 628 403 b 588 440 615 426 603 435 b 621 467 601 447 613 456 b 632 506 628 478 632 490 b 607 567 632 532 625 553 b 535 588 590 581 567 588 l 435 588 l 435 299 l 474 299 l 474 424 l 542 424 b 578 410 557 424 569 419 b 592 372 588 400 592 388 l 592 346 b 593 318 592 336 592 328 b 603 299 596 310 599 303 l 644 299 l 644 303 b 633 319 639 307 636 314 b 632 344 633 328 632 336 z m 579 468 b 531 454 569 460 553 454 l 475 454 l 475 557 l 535 557 b 579 543 554 557 569 553 b 593 506 589 535 593 522 b 579 468 593 489 589 476 z m 1011 822 b 861 972 1011 917 956 972 b 222 972 649 972 435 972 b 71 821 126 972 71 917 b 71 488 71 710 71 599 b 71 149 71 375 69 261 b 219 1 71 58 128 1 b 863 1 433 1 647 1 b 1011 150 956 1 1011 57 b 1011 822 1011 374 1011 599 z m 217 803 b 217 326 217 644 217 485 b 200 285 217 313 210 294 b 101 178 168 247 133 213 b 94 179 99 179 96 179 b 94 206 94 189 94 197 b 94 819 94 410 94 615 b 224 949 94 903 140 949 b 774 942 407 949 589 949 b 714 935 754 939 733 935 b 349 933 592 933 471 935 b 217 803 265 935 217 886 z m 831 304 b 729 201 831 239 793 201 b 342 201 600 201 471 201 b 240 301 279 201 240 240 b 240 807 240 469 240 639 b 336 908 240 867 278 907 b 738 908 471 910 603 910 b 832 808 794 907 832 867 b 832 553 832 724 832 638 b 831 304 831 471 832 388 z "},"S":{"ha":1081,"x_min":0,"x_max":0,"o":"m 554 460 b 501 482 529 467 513 474 b 486 514 490 490 486 501 b 500 549 486 528 490 539 b 543 561 510 557 525 561 b 586 546 560 561 575 557 b 604 504 597 535 604 521 l 642 504 l 642 506 b 615 567 643 529 633 549 b 543 592 597 583 574 592 b 472 569 514 592 490 585 b 446 513 456 556 446 536 b 471 460 446 492 454 474 b 539 426 488 444 510 435 b 589 404 564 421 579 414 b 604 372 599 396 604 385 b 588 338 604 357 599 346 b 543 325 576 329 563 325 b 496 339 526 325 510 329 b 475 382 482 349 475 364 l 438 382 l 438 381 b 468 317 436 354 447 333 b 543 294 490 301 515 294 b 614 315 572 294 596 300 b 642 371 633 329 642 347 b 618 425 642 393 635 411 b 554 460 604 442 583 453 z m 1011 822 b 860 972 1011 917 954 972 b 222 972 647 972 435 972 b 69 821 126 972 69 917 b 69 488 69 710 69 599 b 69 149 69 375 69 261 b 218 1 71 58 128 1 b 861 1 433 1 647 1 b 1011 150 954 1 1011 57 b 1011 822 1011 374 1011 599 z m 217 803 b 215 326 217 644 217 485 b 199 285 215 313 208 294 b 100 178 168 247 133 213 b 93 179 99 179 96 179 b 93 206 93 189 93 197 b 93 819 93 410 93 615 b 224 949 93 903 139 949 b 772 942 407 949 589 949 b 714 935 753 939 733 935 b 349 933 592 933 469 935 b 217 803 265 935 217 886 z m 831 304 b 729 201 831 239 792 201 b 342 201 599 201 471 201 b 240 301 279 201 240 240 b 240 807 240 469 240 639 b 336 908 240 867 276 907 b 738 908 469 910 603 910 b 831 808 794 907 831 867 b 831 553 832 724 831 638 b 831 304 831 471 831 388 z "},"T":{"ha":1082,"x_min":0,"x_max":0,"o":"m 426 557 l 521 557 l 521 299 l 560 299 l 560 557 l 656 557 l 656 589 l 426 589 z m 1011 822 b 860 972 1011 917 954 972 b 222 972 647 972 435 972 b 69 821 126 972 69 917 b 69 488 69 710 69 599 b 69 149 69 375 69 261 b 218 1 71 58 128 1 b 861 1 433 1 647 1 b 1011 150 954 1 1011 57 b 1011 822 1013 374 1013 599 z m 217 803 b 215 326 217 644 217 485 b 199 285 215 313 208 294 b 100 178 168 247 133 213 b 93 179 99 179 96 179 b 93 206 93 189 93 197 b 93 819 93 410 93 615 b 224 949 93 903 139 949 b 772 942 407 949 589 949 b 714 935 753 939 733 935 b 349 933 592 933 469 935 b 217 803 265 935 217 886 z m 831 304 b 729 201 831 239 793 201 b 342 201 600 201 471 201 b 242 301 281 201 242 240 b 242 807 242 469 242 639 b 336 908 242 867 278 907 b 738 908 471 910 604 910 b 832 808 796 907 832 867 b 832 553 832 724 832 638 b 831 304 831 471 831 388 z "},"U":{"ha":1081,"x_min":0,"x_max":0,"o":"m 611 396 b 590 343 611 374 604 356 b 539 325 576 331 560 325 b 489 343 518 325 501 331 b 471 396 476 356 471 374 l 471 589 l 432 589 l 432 396 b 461 322 432 365 442 339 b 539 294 482 304 507 294 b 618 322 572 294 597 304 b 650 396 640 339 650 364 l 650 589 l 611 589 z m 1011 822 b 860 972 1011 917 954 972 b 222 972 647 972 435 972 b 69 821 126 972 69 917 b 69 488 69 710 69 599 b 69 149 69 375 69 261 b 218 1 71 58 128 1 b 861 1 433 1 647 1 b 1011 150 954 1 1011 57 b 1011 822 1011 374 1011 599 z m 217 803 b 215 326 217 644 217 485 b 199 285 215 313 208 294 b 100 178 168 247 133 213 b 93 179 99 179 96 179 b 93 206 93 189 93 197 b 93 819 93 410 93 615 b 224 949 93 903 139 949 b 772 942 407 949 589 949 b 714 935 753 939 733 935 b 349 933 592 933 469 935 b 217 803 265 935 217 886 z m 831 304 b 729 201 831 239 793 201 b 342 201 600 201 471 201 b 242 301 281 201 242 240 b 242 807 242 469 242 639 b 336 908 242 867 278 907 b 738 908 471 910 604 910 b 832 808 796 907 832 867 b 832 553 832 724 832 638 b 831 304 831 471 831 388 z "},"V":{"ha":1082,"x_min":0,"x_max":0,"o":"m 547 375 l 540 351 l 533 375 l 458 589 l 417 589 l 524 299 l 557 299 l 665 589 l 622 589 z m 1011 822 b 860 972 1011 917 954 972 b 222 972 647 972 435 972 b 69 821 126 972 69 917 b 69 488 69 710 69 599 b 69 149 69 375 69 261 b 218 1 71 58 128 1 b 861 1 433 1 647 1 b 1011 150 954 1 1011 57 b 1011 822 1013 374 1013 599 z m 217 803 b 215 326 217 644 217 485 b 199 285 215 313 208 294 b 100 178 168 247 133 213 b 93 179 99 179 96 179 b 93 206 93 189 93 197 b 93 819 93 410 93 615 b 224 949 93 903 139 949 b 772 942 407 949 589 949 b 714 935 753 939 733 935 b 349 933 592 933 469 935 b 217 803 265 935 217 886 z m 831 304 b 729 201 831 239 793 201 b 342 201 600 201 471 201 b 242 301 281 201 242 240 b 242 807 242 469 242 639 b 336 908 242 867 278 907 b 738 908 471 910 604 910 b 832 808 796 907 832 867 b 832 553 832 724 832 638 b 831 304 831 471 831 388 z "},"W":{"ha":1082,"x_min":0,"x_max":0,"o":"m 625 400 l 619 361 l 618 361 l 611 400 l 560 589 l 521 589 l 469 400 l 463 361 l 461 361 l 457 400 l 414 589 l 372 589 l 442 299 l 478 299 l 536 500 l 540 526 l 542 526 l 546 500 l 604 299 l 639 299 l 710 589 l 667 589 z m 1011 822 b 860 972 1011 917 954 972 b 222 972 647 972 435 972 b 69 821 126 972 69 917 b 69 488 69 710 69 599 b 69 149 69 375 69 261 b 218 1 71 58 128 1 b 861 1 433 1 647 1 b 1011 150 954 1 1011 57 b 1011 822 1013 374 1013 599 z m 217 803 b 215 326 217 644 217 485 b 199 285 215 313 208 294 b 100 178 168 247 133 213 b 93 179 99 179 96 179 b 93 206 93 189 93 197 b 93 819 93 410 93 615 b 224 949 93 903 139 949 b 772 942 407 949 589 949 b 714 935 753 939 733 935 b 349 933 592 933 469 935 b 217 803 265 935 217 886 z m 831 304 b 729 201 831 239 793 201 b 342 201 600 201 471 201 b 242 301 281 201 242 240 b 242 807 242 469 242 639 b 336 908 242 867 278 907 b 738 908 471 910 604 910 b 832 808 796 907 832 867 b 832 553 832 724 832 638 b 831 304 831 471 831 388 z "},"X":{"ha":1081,"x_min":0,"x_max":0,"o":"m 656 589 l 608 589 l 540 475 l 474 589 l 426 589 l 518 444 l 424 299 l 471 299 l 542 414 l 611 299 l 657 299 l 563 444 z m 1011 822 b 861 972 1011 917 956 972 b 222 972 649 972 435 972 b 71 821 126 972 71 917 b 71 488 71 710 71 599 b 71 149 71 375 69 261 b 219 1 71 58 128 1 b 863 1 433 1 647 1 b 1011 150 956 1 1011 57 b 1011 822 1011 374 1011 599 z m 217 803 b 217 326 217 644 217 485 b 200 285 217 313 210 294 b 101 178 168 247 133 213 b 94 179 99 179 96 179 b 94 206 94 189 94 197 b 94 819 94 410 94 615 b 224 949 94 903 140 949 b 774 942 407 949 589 949 b 714 935 754 939 733 935 b 349 933 592 933 471 935 b 217 803 265 935 217 886 z m 831 304 b 729 201 831 239 793 201 b 342 201 600 201 471 201 b 240 301 279 201 240 240 b 240 807 240 469 240 639 b 336 908 240 867 278 907 b 738 908 471 910 603 910 b 832 808 794 907 832 867 b 832 553 832 724 832 638 b 831 304 831 471 832 388 z "},"Y":{"ha":1081,"x_min":0,"x_max":0,"o":"m 540 442 l 465 589 l 419 589 l 519 403 l 519 299 l 558 299 l 558 400 l 661 589 l 617 589 z m 1011 822 b 860 972 1011 917 954 972 b 222 972 647 972 435 972 b 69 821 126 972 69 917 b 69 488 69 710 69 599 b 69 149 69 375 69 261 b 218 1 71 58 128 1 b 861 1 433 1 647 1 b 1011 150 954 1 1011 57 b 1011 822 1011 374 1011 599 z m 217 803 b 215 326 217 644 217 485 b 199 285 215 313 208 294 b 100 178 168 247 133 213 b 93 179 99 179 96 179 b 93 206 93 189 93 197 b 93 819 93 410 93 615 b 224 949 93 903 139 949 b 772 942 407 949 589 949 b 714 935 753 939 733 935 b 349 933 592 933 469 935 b 217 803 265 935 217 886 z m 831 304 b 729 201 831 239 792 201 b 342 201 599 201 471 201 b 240 301 279 201 240 240 b 240 807 240 469 240 639 b 336 908 240 867 276 907 b 738 908 469 910 603 910 b 831 808 794 907 831 867 b 831 553 832 724 831 638 b 831 304 831 471 831 388 z "},"Z":{"ha":1081,"x_min":0,"x_max":0,"o":"m 638 560 l 638 589 l 440 589 l 440 557 l 592 557 l 438 328 l 438 299 l 644 299 l 644 329 l 482 329 z m 1011 822 b 861 972 1011 917 956 972 b 222 972 649 972 435 972 b 71 821 126 972 71 917 b 71 488 71 710 71 599 b 71 149 71 375 69 261 b 219 1 71 58 128 1 b 863 1 433 1 647 1 b 1011 150 956 1 1011 57 b 1011 822 1011 374 1011 599 z m 217 803 b 217 326 217 644 217 485 b 200 285 217 313 210 294 b 101 178 168 247 133 213 b 94 179 99 179 96 179 b 94 206 94 189 94 197 b 94 819 94 410 94 615 b 224 949 94 903 140 949 b 774 942 407 949 589 949 b 714 935 754 939 733 935 b 349 933 592 933 471 935 b 217 803 265 935 217 886 z m 831 304 b 729 201 831 239 793 201 b 342 201 600 201 471 201 b 240 301 279 201 240 240 b 240 807 240 469 240 639 b 336 908 240 867 278 907 b 738 908 471 910 603 910 b 832 808 794 907 832 867 b 832 553 832 724 832 638 b 831 304 831 471 832 388 z "},"[":{"ha":1082,"x_min":0,"x_max":0,"o":"m 501 236 l 579 236 l 579 267 l 542 267 l 542 599 l 579 599 l 579 629 l 501 629 z m 1011 822 b 860 972 1011 917 954 972 b 222 972 647 972 435 972 b 69 821 126 972 69 917 b 69 488 69 710 69 599 b 69 149 69 375 69 261 b 218 1 71 58 128 1 b 861 1 433 1 647 1 b 1011 150 954 1 1011 57 b 1011 822 1013 374 1013 599 z m 217 803 b 215 326 217 644 217 485 b 199 285 215 313 208 294 b 100 178 168 247 133 213 b 93 179 99 179 96 179 b 93 206 93 189 93 197 b 93 819 93 410 93 615 b 224 949 93 903 139 949 b 772 942 407 949 589 949 b 714 935 753 939 733 935 b 349 933 592 933 469 935 b 217 803 265 935 217 886 z m 831 304 b 729 201 831 239 793 201 b 342 201 600 201 471 201 b 242 301 281 201 242 240 b 242 807 242 469 242 639 b 336 908 242 867 278 907 b 738 908 471 910 604 910 b 832 808 796 907 832 867 b 832 553 832 724 832 638 b 831 304 831 471 831 388 z "},"\\":{"ha":1081,"x_min":0,"x_max":0,"o":"m 461 589 l 583 274 l 619 274 l 499 589 z m 1011 822 b 860 972 1011 917 954 972 b 222 972 647 972 435 972 b 69 821 126 972 69 917 b 69 488 69 710 69 599 b 69 149 69 375 69 261 b 218 1 71 58 128 1 b 861 1 433 1 647 1 b 1011 150 954 1 1011 57 b 1011 822 1011 374 1011 599 z m 217 803 b 215 326 217 644 217 485 b 199 285 215 313 208 294 b 100 178 168 247 133 213 b 93 179 99 179 96 179 b 93 206 93 189 93 197 b 93 819 93 410 93 615 b 224 949 93 903 139 949 b 772 942 407 949 589 949 b 714 935 753 939 733 935 b 349 933 592 933 469 935 b 217 803 265 935 217 886 z m 831 304 b 729 201 831 239 792 201 b 342 201 599 201 471 201 b 240 301 279 201 240 240 b 240 807 240 469 240 639 b 336 908 240 867 276 907 b 738 908 469 910 603 910 b 831 808 794 907 831 867 b 831 553 832 724 831 638 b 831 304 831 471 831 388 z "},"]":{"ha":1081,"x_min":0,"x_max":0,"o":"m 501 599 l 539 599 l 539 267 l 501 267 l 501 236 l 578 236 l 578 629 l 501 629 z m 1011 822 b 860 972 1011 917 954 972 b 222 972 647 972 435 972 b 69 821 126 972 69 917 b 69 488 69 710 69 599 b 69 149 69 375 69 261 b 218 1 71 58 128 1 b 861 1 433 1 647 1 b 1011 150 954 1 1011 57 b 1011 822 1011 374 1011 599 z m 217 803 b 215 326 217 644 217 485 b 199 285 215 313 208 294 b 100 178 168 247 133 213 b 93 179 99 179 96 179 b 93 206 93 189 93 197 b 93 819 93 410 93 615 b 224 949 93 903 139 949 b 772 942 407 949 589 949 b 714 935 753 939 733 935 b 349 933 592 933 469 935 b 217 803 265 935 217 886 z m 831 304 b 729 201 831 239 792 201 b 342 201 599 201 471 201 b 240 301 279 201 240 240 b 240 807 240 469 240 639 b 336 908 240 867 276 907 b 738 908 469 910 603 910 b 831 808 794 907 831 867 b 831 553 832 724 831 638 b 831 304 831 471 831 388 z "},"^":{"ha":1082,"x_min":0,"x_max":0,"o":"m 528 589 l 468 443 l 504 443 l 538 528 l 540 540 l 542 540 l 544 528 l 578 443 l 614 443 l 554 589 z m 1011 822 b 860 972 1011 917 954 972 b 222 972 647 972 435 972 b 69 821 126 972 69 917 b 69 488 69 710 69 599 b 69 149 69 375 69 261 b 218 1 71 58 128 1 b 861 1 433 1 647 1 b 1011 150 954 1 1011 57 b 1011 822 1013 374 1013 599 z m 217 803 b 215 326 217 644 217 485 b 199 285 215 313 208 294 b 100 178 168 247 133 213 b 93 179 99 179 96 179 b 93 206 93 189 93 197 b 93 819 93 410 93 615 b 224 949 93 903 139 949 b 772 942 407 949 589 949 b 714 935 753 939 733 935 b 349 933 592 933 469 935 b 217 803 265 935 217 886 z m 831 304 b 729 201 831 239 793 201 b 342 201 600 201 471 201 b 242 301 281 201 242 240 b 242 807 242 469 242 639 b 336 908 242 867 278 907 b 738 908 471 910 604 910 b 832 808 796 907 832 867 b 832 553 832 724 832 638 b 831 304 831 471 831 388 z "},"_":{"ha":1082,"x_min":0,"x_max":0,"o":"m 633 268 l 633 299 l 449 299 l 449 268 z m 1011 822 b 860 972 1011 917 954 972 b 222 972 647 972 435 972 b 69 821 126 972 69 917 b 69 488 69 710 69 599 b 69 149 69 375 69 261 b 218 1 71 58 128 1 b 861 1 433 1 647 1 b 1011 150 954 1 1011 57 b 1011 822 1013 374 1013 599 z m 217 803 b 215 326 217 644 217 485 b 199 285 215 313 208 294 b 100 178 168 247 133 213 b 93 179 99 179 96 179 b 93 206 93 189 93 197 b 93 819 93 410 93 615 b 224 949 93 903 139 949 b 772 942 407 949 589 949 b 714 935 753 939 733 935 b 349 933 592 933 469 935 b 217 803 265 935 217 886 z m 831 304 b 729 201 831 239 793 201 b 342 201 600 201 471 201 b 242 301 281 201 242 240 b 242 807 242 469 242 639 b 336 908 242 867 278 907 b 738 908 471 910 604 910 b 832 808 796 907 832 867 b 832 553 832 724 832 638 b 831 304 831 471 831 388 z "},"`":{"ha":1082,"x_min":0,"x_max":0,"o":"m 500 600 l 550 547 l 582 547 l 547 600 z m 1011 822 b 860 972 1011 917 954 972 b 222 972 647 972 435 972 b 69 821 126 972 69 917 b 69 488 69 710 69 599 b 69 149 69 375 69 261 b 218 1 71 58 128 1 b 861 1 433 1 647 1 b 1011 150 954 1 1011 57 b 1011 822 1013 374 1013 599 z m 217 803 b 215 326 217 644 217 485 b 199 285 215 313 208 294 b 100 178 168 247 133 213 b 93 179 99 179 96 179 b 93 206 93 189 93 197 b 93 819 93 410 93 615 b 224 949 93 903 139 949 b 772 942 407 949 589 949 b 714 935 753 939 733 935 b 349 933 592 933 469 935 b 217 803 265 935 217 886 z m 831 304 b 729 201 831 239 793 201 b 342 201 600 201 471 201 b 242 301 281 201 242 240 b 242 807 242 469 242 639 b 336 908 242 867 278 907 b 738 908 471 910 604 910 b 832 808 796 907 832 867 b 832 553 832 724 832 638 b 831 304 831 471 831 388 z "},"a":{"ha":1522,"x_min":0,"x_max":0,"o":"m 532 372 l 599 372 l 599 390 l 532 390 l 532 442 l 608 442 l 608 458 l 511 458 l 511 299 l 610 299 l 610 315 l 532 315 z m 688 419 b 668 414 681 419 674 417 b 653 399 661 410 657 406 l 651 417 l 632 417 l 632 299 l 654 299 l 654 386 b 665 397 657 392 660 394 b 682 401 669 401 675 401 b 700 394 690 401 697 400 b 707 372 704 390 707 383 l 707 299 l 728 299 l 728 374 b 717 407 728 389 724 400 b 688 419 710 415 700 419 z m 806 314 b 801 314 804 314 803 314 b 793 317 797 314 794 315 b 789 329 790 319 789 324 l 789 401 l 811 401 l 811 417 l 789 417 l 789 444 l 767 444 l 767 417 l 749 417 l 749 401 l 767 401 l 767 329 b 775 304 767 318 769 310 b 796 296 781 299 786 296 b 804 297 799 296 801 297 b 813 300 807 299 810 300 l 810 315 b 806 314 810 315 807 315 z m 881 419 b 844 403 867 419 854 414 b 831 361 835 392 831 376 l 831 356 b 844 314 831 338 835 324 b 883 297 854 303 867 297 b 910 301 893 297 901 299 b 926 313 917 304 922 307 l 918 326 b 903 318 914 322 908 319 b 883 315 899 315 892 315 b 860 326 874 315 865 318 b 851 356 854 333 851 343 l 928 356 l 928 367 b 915 407 928 383 924 396 b 881 419 907 417 897 419 z m 907 371 l 853 371 l 853 372 b 863 394 854 381 857 388 b 881 403 868 400 874 403 b 900 394 890 403 897 400 b 907 374 904 390 907 382 z m 1003 419 b 986 414 996 419 990 417 b 972 400 981 410 976 406 l 971 417 l 951 417 l 951 299 l 974 299 l 974 383 b 982 394 976 388 979 392 b 997 397 986 397 992 397 l 1008 397 l 1011 417 b 1007 418 1010 417 1008 418 b 1003 419 1006 418 1006 419 z m 1453 822 b 1301 972 1453 917 1396 972 b 222 972 1089 972 435 972 b 69 821 125 972 71 917 b 69 488 69 710 69 599 b 69 149 69 374 69 261 b 218 1 71 57 126 1 b 1303 1 433 1 1088 1 b 1453 150 1396 1 1453 57 b 1453 822 1453 374 1453 599 z m 217 803 b 215 326 217 644 217 485 b 199 285 215 313 208 294 b 100 178 168 247 133 213 b 93 179 97 179 96 179 b 93 206 93 189 93 197 b 93 819 93 410 93 615 b 224 949 94 903 140 949 b 1214 942 407 949 1031 949 b 1156 935 1194 939 1175 935 b 349 933 1033 933 471 935 b 217 803 265 935 217 886 z m 1272 304 b 1171 201 1272 239 1233 201 b 342 201 1040 201 471 201 b 240 301 279 201 240 240 b 240 807 240 469 240 639 b 336 908 240 867 278 907 b 1179 908 471 910 1044 910 b 1272 808 1236 907 1272 867 b 1272 553 1274 724 1272 638 b 1272 304 1272 471 1272 388 z "},"b":{"ha":1081,"x_min":0,"x_max":0,"o":"m 467 458 l 408 299 l 431 299 l 444 339 l 504 339 l 519 299 l 540 299 l 485 458 z m 451 357 l 475 426 l 476 426 l 500 357 z m 586 299 l 586 469 l 564 469 l 564 299 z m 665 314 b 661 314 664 314 663 314 b 651 317 657 314 654 315 b 649 329 650 319 649 324 l 649 401 l 671 401 l 671 417 l 649 417 l 649 444 l 626 444 l 626 417 l 608 417 l 608 401 l 626 401 l 626 329 b 635 304 626 318 629 310 b 656 296 639 299 646 296 b 664 297 658 296 661 297 b 671 300 667 299 669 300 l 668 315 b 665 314 668 315 667 315 z m 1011 822 b 861 972 1011 917 956 972 b 222 972 649 972 435 972 b 71 821 126 972 71 917 b 71 488 71 710 71 599 b 71 149 71 375 69 261 b 219 1 71 58 128 1 b 863 1 433 1 647 1 b 1011 150 956 1 1011 57 b 1011 822 1011 374 1011 599 z m 217 803 b 217 326 217 644 217 485 b 200 285 217 313 210 294 b 101 178 168 247 133 213 b 94 179 99 179 96 179 b 94 206 94 189 94 197 b 94 819 94 410 94 615 b 224 949 94 903 140 949 b 774 942 407 949 589 949 b 714 935 754 939 733 935 b 349 933 592 933 471 935 b 217 803 265 935 217 886 z m 831 304 b 729 201 831 239 793 201 b 342 201 600 201 471 201 b 240 301 279 201 240 240 b 240 807 240 469 240 639 b 336 908 240 867 278 907 b 738 908 471 910 603 910 b 832 808 794 907 832 867 b 832 553 832 724 832 638 b 831 304 831 471 831 388 z "},"c":{"ha":1163,"x_min":0,"x_max":0,"o":"m 453 429 b 482 443 460 439 469 443 b 510 433 494 443 503 440 b 519 407 517 426 519 417 l 540 407 b 525 446 540 424 535 436 b 481 460 514 456 500 460 b 438 440 463 460 449 453 b 419 392 426 428 419 411 l 419 364 b 438 315 419 344 426 328 b 481 296 449 303 463 296 b 524 310 499 296 514 300 b 539 347 535 319 539 333 l 539 349 l 518 349 b 508 322 518 338 515 328 b 481 313 501 315 493 313 b 451 326 469 313 460 317 b 442 363 444 336 442 347 l 442 392 b 453 429 442 407 446 419 z m 613 314 b 607 314 611 314 608 314 b 599 317 604 314 601 315 b 594 329 596 319 594 324 l 594 401 l 617 401 l 617 417 l 594 417 l 594 444 l 574 444 l 574 417 l 554 417 l 554 401 l 574 401 l 574 329 b 581 304 574 318 575 310 b 601 296 586 299 593 296 b 611 297 604 296 607 297 b 618 300 614 299 615 300 l 615 315 b 613 314 615 315 614 315 z m 692 419 b 675 414 685 419 681 417 b 663 400 669 410 665 406 l 660 417 l 640 417 l 640 299 l 663 299 l 663 383 b 671 394 664 388 667 392 b 685 397 675 397 681 397 l 696 397 l 700 417 b 696 418 699 417 697 418 b 692 419 694 418 693 419 z m 743 299 l 743 469 l 721 469 l 721 299 z m 1093 822 b 943 972 1093 917 1036 972 b 222 972 731 972 435 972 b 69 821 126 972 69 917 b 69 488 69 710 69 599 b 69 149 69 375 69 261 b 218 1 71 58 128 1 b 944 1 433 1 729 1 b 1093 150 1036 1 1093 57 b 1093 822 1093 374 1093 599 z m 217 803 b 215 326 217 644 217 485 b 199 285 215 313 208 294 b 100 178 168 247 133 213 b 93 179 99 179 96 179 b 93 206 93 189 93 197 b 93 819 93 410 93 615 b 224 949 93 903 139 949 b 856 942 407 949 671 949 b 796 935 836 939 815 935 b 349 933 674 933 469 935 b 217 803 265 935 217 886 z m 913 304 b 811 201 913 239 875 201 b 342 201 682 201 471 201 b 240 301 279 201 240 240 b 240 807 240 469 240 639 b 336 908 240 867 276 907 b 819 908 469 910 685 910 b 914 808 876 907 914 867 b 914 553 914 724 914 638 b 913 304 913 471 914 388 z "},"d":{"ha":1082,"x_min":0,"x_max":0,"o":"m 432 299 l 454 299 l 454 368 l 521 368 l 521 386 l 454 386 l 454 442 l 532 442 l 532 458 l 432 458 z m 608 419 b 589 414 601 419 594 417 b 574 399 583 410 578 406 l 572 417 l 553 417 l 553 299 l 575 299 l 575 386 b 586 397 578 392 582 394 b 603 401 590 401 596 401 b 622 394 611 401 618 400 b 628 372 625 390 628 383 l 628 299 l 650 299 l 650 374 b 639 407 650 389 646 400 b 608 419 632 415 622 419 z m 1011 822 b 860 972 1011 917 954 972 b 222 972 647 972 435 972 b 69 821 126 972 69 917 b 69 488 69 710 69 599 b 69 149 69 375 69 261 b 218 1 71 58 128 1 b 861 1 433 1 647 1 b 1011 150 954 1 1011 57 b 1011 822 1013 374 1013 599 z m 217 803 b 215 326 217 644 217 485 b 199 285 215 313 208 294 b 100 178 168 247 133 213 b 93 179 99 179 96 179 b 93 206 93 189 93 197 b 93 819 93 410 93 615 b 224 949 93 903 139 949 b 772 942 407 949 589 949 b 714 935 753 939 733 935 b 349 933 592 933 469 935 b 217 803 265 935 217 886 z m 831 304 b 729 201 831 239 793 201 b 342 201 600 201 471 201 b 242 301 281 201 242 240 b 242 807 242 469 242 639 b 336 908 242 867 278 907 b 738 908 471 910 604 910 b 832 808 796 907 832 867 b 832 553 832 724 832 638 b 831 304 831 471 831 388 z "},"e":{"ha":1522,"x_min":0,"x_max":0,"o":"m 582 442 l 635 442 l 635 299 l 656 299 l 656 442 l 708 442 l 708 458 l 582 458 z m 808 322 l 808 379 b 796 408 808 392 804 401 b 764 419 788 415 778 419 b 731 408 750 419 739 415 b 719 385 722 401 718 393 l 719 383 l 739 383 b 746 396 739 389 742 393 b 763 401 750 400 756 401 b 781 396 771 401 776 400 b 788 379 786 392 788 386 l 788 367 l 764 367 b 726 357 749 367 735 364 b 713 331 718 351 713 343 b 722 304 713 319 715 311 b 751 294 729 299 739 294 b 772 300 758 294 765 297 b 788 315 779 304 783 308 b 789 307 788 313 788 310 b 790 297 789 304 789 300 l 813 297 b 810 308 811 300 810 304 b 808 322 810 314 808 318 z m 786 335 b 774 321 783 329 781 325 b 753 314 768 317 761 314 b 739 318 746 314 742 315 b 733 332 735 322 733 326 b 740 347 733 338 735 343 b 761 354 746 351 753 354 l 786 354 z m 894 419 b 875 414 886 419 881 417 b 860 403 869 411 864 407 l 860 469 l 839 469 l 839 297 l 856 297 l 858 314 b 874 300 863 308 868 304 b 893 296 879 297 886 296 b 926 313 907 296 918 301 b 939 353 935 322 939 336 l 939 356 b 926 401 939 374 935 390 b 894 419 918 414 908 419 z m 918 353 b 911 325 918 342 917 332 b 889 314 906 318 899 314 b 871 318 882 314 876 315 b 860 332 867 322 864 326 l 860 383 b 871 397 864 389 867 393 b 888 403 876 400 882 403 b 911 390 899 403 906 397 b 918 357 917 382 918 371 z m 1453 822 b 1301 972 1453 917 1396 972 b 222 972 1089 972 435 972 b 69 821 126 972 69 917 b 69 488 69 710 69 599 b 69 149 69 375 69 261 b 218 1 71 58 128 1 b 1303 1 433 1 1089 1 b 1453 150 1396 1 1453 57 b 1453 822 1453 374 1453 599 z m 217 803 b 215 326 217 644 217 485 b 199 285 215 313 208 294 b 100 178 168 247 133 213 b 93 179 99 179 96 179 b 93 206 93 189 93 197 b 93 819 93 410 93 615 b 224 949 93 903 139 949 b 1214 942 407 949 1031 949 b 1156 935 1194 939 1175 935 b 349 933 1033 933 469 935 b 217 803 265 935 217 886 z m 1272 304 b 1171 201 1272 239 1235 201 b 342 201 1042 201 471 201 b 242 301 281 201 242 240 b 242 807 242 469 242 639 b 336 908 242 867 278 907 b 1179 908 471 910 1044 910 b 1274 808 1236 907 1274 867 b 1274 553 1274 724 1274 638 b 1272 304 1272 471 1272 388 z "},"f":{"ha":1544,"x_min":0,"x_max":0,"o":"m 288 429 b 317 443 294 439 304 443 b 344 433 329 443 338 440 b 354 407 351 426 354 417 l 375 407 b 360 446 375 424 369 436 b 315 460 349 456 335 460 b 272 440 297 460 283 453 b 254 392 261 428 254 411 l 254 364 b 272 315 254 344 261 328 b 315 296 283 303 297 296 b 358 310 333 296 349 300 b 374 347 369 319 374 333 l 374 349 l 354 349 b 344 322 354 338 351 328 b 317 313 338 315 329 313 b 288 326 304 313 294 317 b 276 363 281 336 276 347 l 276 392 b 288 429 276 407 281 419 z m 492 322 l 492 379 b 479 408 492 392 488 401 b 447 419 471 415 461 419 b 414 408 433 419 422 415 b 403 385 407 401 401 393 l 403 383 l 422 383 b 429 396 422 389 425 393 b 447 401 433 400 439 401 b 465 396 454 401 460 400 b 471 379 469 392 471 386 l 471 367 l 447 367 b 410 357 432 367 419 364 b 397 331 401 351 397 343 b 407 304 397 319 400 311 b 435 294 413 299 422 294 b 456 300 442 294 449 297 b 471 315 463 304 468 308 b 472 307 471 313 471 310 b 474 297 472 304 472 300 l 496 297 b 494 308 494 300 494 304 b 492 322 494 314 492 318 z m 469 335 b 458 321 468 329 464 325 b 438 315 451 317 444 315 b 422 319 431 315 426 317 b 418 332 419 322 418 326 b 425 347 418 338 419 343 b 446 354 431 353 438 354 l 469 354 z m 578 419 b 557 414 569 419 564 417 b 543 401 551 411 547 407 l 539 417 l 524 417 l 524 254 l 544 254 l 544 311 b 558 300 549 306 553 303 b 578 296 564 297 571 296 b 613 313 593 296 604 301 b 624 353 621 322 624 336 l 624 356 b 613 401 624 375 621 390 b 578 419 604 414 593 419 z m 603 353 b 594 324 603 342 599 332 b 571 313 589 317 582 313 b 554 317 565 313 558 314 b 544 328 550 318 546 324 l 544 385 b 554 396 547 390 550 394 b 569 401 558 399 564 401 b 593 388 581 401 588 396 b 601 356 599 381 601 368 l 601 353 z m 731 354 b 697 367 722 360 711 364 b 676 374 686 368 681 371 b 672 385 674 375 672 379 b 678 396 672 389 674 393 b 694 401 682 400 688 401 b 713 396 701 401 708 400 b 719 382 717 392 719 386 l 740 382 b 728 407 740 392 736 400 b 694 419 719 415 708 419 b 663 408 682 419 671 415 b 651 383 654 401 651 393 b 663 363 651 375 654 367 b 694 349 669 357 681 353 b 714 342 704 347 711 344 b 719 329 718 338 719 335 b 713 317 719 324 718 319 b 694 311 708 314 703 311 b 676 317 688 311 682 313 b 668 333 671 319 668 325 l 647 333 l 647 332 b 660 306 646 322 651 313 b 696 294 669 297 681 294 b 729 304 710 294 721 297 b 742 329 738 310 742 318 b 731 354 742 342 738 349 z m 849 458 l 826 458 l 826 299 l 926 299 l 926 315 l 849 315 z m 994 419 b 956 401 978 419 965 413 b 942 358 946 390 942 376 l 942 356 b 956 313 942 338 946 324 b 994 296 965 301 978 296 b 1033 313 1011 296 1024 301 b 1049 356 1043 324 1049 338 l 1049 358 b 1033 403 1049 376 1043 392 b 994 419 1024 414 1011 419 z m 1026 357 b 1018 325 1026 344 1024 333 b 994 314 1013 317 1004 314 b 971 325 985 314 976 317 b 963 357 965 333 963 344 l 963 358 b 971 390 963 372 965 382 b 994 403 976 397 985 403 b 1018 390 1004 403 1013 397 b 1026 358 1024 382 1026 371 z m 1099 390 b 1122 401 1103 397 1111 401 b 1140 394 1129 401 1136 400 b 1147 375 1144 389 1147 383 l 1167 375 l 1167 376 b 1154 406 1167 388 1163 397 b 1122 418 1146 414 1135 418 b 1083 401 1106 418 1093 413 b 1071 358 1075 390 1071 375 l 1071 354 b 1083 313 1071 338 1075 324 b 1122 294 1093 300 1106 294 b 1154 307 1135 294 1146 299 b 1168 333 1163 315 1168 324 l 1168 335 l 1147 335 b 1139 318 1147 328 1144 322 b 1122 311 1133 314 1129 311 b 1099 324 1111 311 1103 315 b 1092 353 1094 332 1092 342 l 1092 357 b 1099 390 1092 372 1093 382 z m 1286 417 l 1260 417 l 1225 371 l 1214 371 l 1214 469 l 1192 469 l 1192 299 l 1214 299 l 1214 353 l 1225 353 l 1264 299 l 1289 299 l 1243 363 z m 1475 822 b 1324 972 1475 917 1418 972 b 222 972 1111 972 435 972 b 69 821 126 972 69 917 b 69 488 69 710 69 599 b 69 149 69 375 69 261 b 218 1 71 58 128 1 b 1325 1 433 1 1111 1 b 1475 150 1418 1 1475 57 b 1475 822 1475 374 1475 599 z m 217 803 b 215 326 217 644 217 485 b 199 285 215 313 208 294 b 100 178 168 247 133 213 b 93 179 99 179 96 179 b 93 206 93 189 93 197 b 93 819 93 410 93 615 b 224 949 93 903 139 949 b 1236 942 407 949 1053 949 b 1178 935 1217 939 1197 935 b 349 933 1056 933 469 935 b 217 803 265 935 217 886 z m 1294 304 b 1193 201 1294 239 1257 201 b 342 201 1064 201 471 201 b 242 301 281 201 242 240 b 242 807 242 469 242 639 b 336 908 242 867 278 907 b 1201 908 471 910 1068 910 b 1296 808 1258 907 1296 867 b 1296 553 1296 724 1296 638 b 1294 304 1294 471 1294 388 z "},"g":{"ha":2071,"x_min":0,"x_max":0,"o":"m 872 388 b 844 400 860 392 850 394 b 835 417 839 404 835 410 b 843 435 835 424 839 431 b 867 443 849 440 857 443 b 890 433 876 443 885 440 b 900 411 897 428 900 421 l 921 411 l 921 413 b 907 446 921 425 917 436 b 867 460 897 456 883 460 b 829 447 851 460 839 456 b 814 415 819 439 814 429 b 826 386 814 404 818 394 b 865 368 836 379 849 374 b 893 356 878 365 888 361 b 900 338 899 351 900 344 b 892 319 900 329 897 324 b 868 313 885 315 878 313 b 842 321 858 313 850 315 b 831 344 835 326 831 335 l 810 344 l 810 343 b 826 308 810 329 815 317 b 868 296 839 300 853 296 b 908 308 885 296 897 300 b 922 339 918 315 922 326 b 910 368 922 351 918 361 b 872 388 901 376 889 383 z m 1006 419 b 986 414 999 419 992 417 b 971 401 981 411 975 407 l 971 469 l 950 469 l 950 297 l 971 297 l 971 388 b 982 397 975 392 978 396 b 999 401 988 400 993 401 b 1018 394 1007 401 1014 400 b 1024 374 1021 390 1024 383 l 1024 299 l 1046 299 l 1046 372 b 1035 407 1046 388 1042 400 b 1006 419 1028 415 1018 419 z m 1101 299 l 1101 417 l 1079 417 l 1079 299 z m 1101 449 l 1101 469 l 1079 469 l 1079 449 z m 1181 472 b 1153 461 1168 472 1160 468 b 1143 432 1146 454 1143 444 l 1143 417 l 1124 417 l 1124 401 l 1143 401 l 1143 299 l 1164 299 l 1164 401 l 1186 401 l 1186 417 l 1164 417 l 1164 432 b 1169 449 1164 439 1165 444 b 1183 454 1172 451 1176 454 b 1189 454 1185 454 1186 454 b 1193 453 1192 454 1193 453 l 1196 469 b 1189 471 1193 471 1190 471 b 1181 472 1185 471 1183 472 z m 1254 314 b 1250 314 1253 314 1251 314 b 1240 317 1246 314 1243 315 b 1238 329 1239 319 1238 324 l 1238 401 l 1260 401 l 1260 417 l 1238 417 l 1238 444 l 1215 444 l 1215 417 l 1196 417 l 1196 401 l 1215 401 l 1215 329 b 1222 304 1215 318 1218 310 b 1243 296 1228 299 1235 296 b 1253 297 1247 296 1250 297 b 1260 300 1256 299 1258 300 l 1257 315 b 1254 314 1257 315 1256 315 z m 2000 822 b 1850 972 2000 917 1943 972 b 224 972 1638 972 436 972 b 71 821 126 972 71 917 b 71 488 71 710 71 599 b 71 149 71 375 71 261 b 219 1 72 58 129 1 b 1851 1 435 1 1638 1 b 2001 150 1944 1 2001 57 b 2000 822 2000 374 2000 599 z m 217 803 b 217 326 217 644 217 485 b 200 285 217 313 210 294 b 101 178 168 247 133 213 b 94 179 99 179 96 179 b 94 206 94 189 94 197 b 94 819 94 410 94 615 b 224 949 94 903 140 949 b 1761 942 407 949 1578 949 b 1701 935 1742 939 1721 935 b 347 933 1581 933 469 935 b 217 803 265 935 217 886 z m 1819 304 b 1718 201 1819 239 1782 201 b 343 201 1589 201 471 201 b 242 301 281 201 242 240 b 242 807 242 469 242 639 b 338 908 242 867 278 907 b 1726 908 471 910 1593 910 b 1821 808 1783 907 1821 867 b 1821 553 1821 724 1821 638 b 1819 304 1819 471 1821 388 z "},"h":{"ha":2069,"x_min":0,"x_max":0,"o":"m 579 383 b 597 396 586 386 592 390 b 603 415 601 403 603 408 b 589 447 603 429 599 440 b 550 458 579 454 567 458 l 497 458 l 497 299 l 561 299 b 600 310 578 299 590 303 b 614 343 610 317 614 328 b 606 371 614 354 611 363 b 579 383 599 378 590 382 z m 519 442 l 550 442 b 574 435 561 442 568 439 b 582 415 579 431 582 424 b 574 396 582 407 579 401 b 554 390 569 392 563 390 l 519 390 z m 583 322 b 561 315 579 318 571 315 l 519 315 l 519 372 l 561 372 b 583 364 571 372 578 369 b 592 342 589 357 592 351 b 583 322 592 335 589 328 z m 729 322 l 729 379 b 718 408 729 392 726 401 b 686 419 710 415 699 419 b 653 408 672 419 661 415 b 640 385 644 401 640 393 l 640 383 l 661 383 b 668 396 661 389 664 393 b 685 401 672 400 678 401 b 703 396 693 401 699 400 b 708 379 707 392 708 386 l 708 367 l 686 367 b 649 357 669 367 657 364 b 635 331 639 351 635 343 b 644 304 635 319 638 311 b 674 294 651 299 660 294 b 694 300 681 294 688 297 b 710 315 700 304 706 308 b 710 307 710 313 710 310 b 713 297 711 304 711 300 l 735 297 b 732 308 733 300 732 304 b 729 322 732 314 729 318 z m 708 335 b 696 321 706 329 703 325 b 675 315 690 317 683 315 b 661 319 668 315 664 317 b 656 332 658 322 656 326 b 664 347 656 338 658 343 b 685 354 668 353 675 354 l 708 354 z m 785 390 b 807 401 789 397 797 401 b 825 394 815 401 821 400 b 832 375 831 389 832 383 l 851 375 l 851 376 b 840 406 851 388 849 397 b 807 418 832 414 821 418 b 769 401 792 418 778 413 b 756 358 761 390 756 375 l 756 354 b 769 313 756 338 761 324 b 808 294 778 300 792 294 b 840 307 821 294 831 299 b 853 333 849 315 853 324 l 853 335 l 833 335 b 826 318 833 328 832 322 b 810 311 821 314 815 311 b 786 324 799 311 790 315 b 778 353 782 332 778 342 l 778 357 b 785 390 778 372 781 382 z m 972 417 l 947 417 l 911 371 l 900 371 l 900 469 l 879 469 l 879 299 l 900 299 l 900 353 l 911 353 l 950 299 l 976 299 l 929 363 z m 1072 354 b 1039 367 1065 360 1054 364 b 1019 374 1029 368 1022 371 b 1014 385 1017 375 1014 379 b 1019 396 1014 389 1017 393 b 1038 401 1024 400 1029 401 b 1054 396 1044 401 1050 400 b 1061 382 1058 392 1061 386 l 1082 382 b 1069 407 1082 392 1078 400 b 1038 419 1063 415 1050 419 b 1006 408 1025 419 1014 415 b 993 383 997 401 993 393 b 1004 363 993 375 997 367 b 1036 349 1011 357 1022 353 b 1057 342 1046 347 1054 344 b 1063 329 1060 338 1063 335 b 1056 317 1063 324 1060 319 b 1038 311 1050 314 1044 311 b 1018 317 1029 311 1024 313 b 1010 333 1014 319 1010 325 l 989 333 l 989 332 b 1001 306 989 322 993 313 b 1038 294 1011 297 1024 294 b 1072 304 1051 294 1063 297 b 1085 329 1079 310 1085 318 b 1072 354 1083 342 1079 349 z m 1165 419 b 1144 414 1157 419 1151 417 b 1131 401 1139 411 1135 407 l 1126 417 l 1111 417 l 1111 254 l 1132 254 l 1132 311 b 1146 300 1136 306 1140 303 b 1165 296 1151 297 1158 296 b 1200 313 1181 296 1192 301 b 1211 353 1208 322 1211 336 l 1211 356 b 1200 401 1211 375 1208 390 b 1165 419 1192 414 1181 419 z m 1190 353 b 1182 324 1190 342 1186 332 b 1158 313 1176 317 1169 313 b 1142 317 1153 313 1146 314 b 1132 328 1138 318 1133 324 l 1132 385 b 1142 396 1135 390 1138 394 b 1157 401 1146 399 1151 401 b 1181 388 1168 401 1175 396 b 1189 356 1186 379 1189 368 l 1189 353 z m 1331 322 l 1331 379 b 1318 408 1331 392 1326 401 b 1286 419 1310 415 1300 419 b 1253 408 1272 419 1261 415 b 1242 385 1244 401 1240 393 l 1242 383 l 1261 383 b 1268 396 1261 389 1264 393 b 1286 401 1272 400 1278 401 b 1303 396 1293 401 1299 400 b 1310 379 1308 392 1310 386 l 1310 367 l 1286 367 b 1249 357 1271 367 1258 364 b 1235 331 1240 351 1235 343 b 1244 304 1235 319 1239 311 b 1274 294 1251 299 1261 294 b 1294 300 1281 294 1288 297 b 1310 315 1301 304 1307 308 b 1311 307 1310 313 1310 310 b 1313 297 1311 304 1311 300 l 1335 297 b 1332 308 1333 300 1332 304 b 1331 322 1332 314 1331 318 z m 1308 335 b 1297 321 1307 329 1303 325 b 1276 315 1290 317 1283 315 b 1261 319 1269 315 1264 317 b 1257 332 1258 322 1257 326 b 1264 347 1257 338 1258 343 b 1285 354 1269 353 1276 354 l 1308 354 z m 1386 390 b 1408 401 1390 397 1399 401 b 1426 394 1417 401 1422 400 b 1433 375 1432 389 1433 383 l 1453 375 l 1453 376 b 1442 406 1453 388 1449 397 b 1408 418 1433 414 1422 418 b 1369 401 1393 418 1379 413 b 1357 358 1361 390 1357 375 l 1357 354 b 1369 313 1357 338 1361 324 b 1408 294 1379 300 1392 294 b 1440 307 1421 294 1432 299 b 1454 333 1449 315 1454 324 l 1454 335 l 1435 335 b 1426 318 1435 328 1432 322 b 1410 311 1422 314 1417 311 b 1386 324 1399 311 1390 315 b 1379 353 1382 332 1379 342 l 1379 357 b 1386 390 1378 372 1381 382 z m 1525 419 b 1489 403 1511 419 1499 414 b 1474 361 1479 392 1474 376 l 1474 356 b 1488 314 1474 338 1478 324 b 1528 297 1497 303 1511 297 b 1553 301 1538 297 1546 299 b 1569 313 1561 304 1565 307 l 1561 326 b 1547 318 1558 322 1553 319 b 1528 315 1542 315 1535 315 b 1504 326 1517 315 1510 318 b 1496 356 1499 333 1496 343 l 1571 356 l 1571 367 b 1560 407 1571 383 1568 396 b 1525 419 1553 414 1540 419 z m 1550 371 l 1497 371 l 1497 372 b 1506 394 1497 381 1501 388 b 1525 403 1511 400 1517 403 b 1544 394 1533 403 1540 400 b 1550 374 1549 390 1550 382 z m 2000 822 b 1849 972 2000 917 1943 972 b 222 972 1636 972 435 972 b 71 821 126 972 71 917 b 71 488 71 710 71 599 b 71 149 71 375 69 261 b 219 1 71 58 128 1 b 1851 1 433 1 1636 1 b 2000 150 1943 1 2000 57 b 2000 822 2000 374 2000 599 z m 217 803 b 217 326 217 644 217 485 b 200 285 217 313 210 294 b 101 178 168 247 133 213 b 94 179 99 179 96 179 b 94 206 94 189 94 197 b 94 819 94 410 94 615 b 224 949 94 903 140 949 b 1761 942 407 949 1578 949 b 1701 935 1742 939 1721 935 b 347 933 1581 933 469 935 b 217 803 265 935 217 886 z m 1819 304 b 1718 201 1819 239 1782 201 b 343 201 1589 201 471 201 b 242 301 281 201 242 240 b 242 807 242 469 242 639 b 338 908 242 867 278 907 b 1726 908 471 910 1593 910 b 1821 808 1783 907 1821 867 b 1821 553 1821 724 1821 638 b 1819 304 1819 471 1819 388 z "},"i":{"ha":1522,"x_min":0,"x_max":0,"o":"m 506 299 l 506 458 l 485 458 l 485 299 z m 599 419 b 578 414 592 419 585 417 b 564 399 572 410 567 406 l 563 417 l 543 417 l 543 299 l 564 299 l 564 386 b 575 397 567 392 571 394 b 593 401 579 401 586 401 b 611 394 601 401 607 400 b 617 372 615 390 617 383 l 617 299 l 639 299 l 639 374 b 628 407 639 389 635 400 b 599 419 622 415 611 419 z m 749 354 b 715 367 742 360 731 364 b 696 374 706 368 699 371 b 690 385 693 375 690 379 b 696 396 690 389 693 393 b 714 401 700 400 706 401 b 731 396 721 401 726 400 b 738 382 735 392 738 386 l 758 382 b 747 407 758 392 754 400 b 714 419 739 415 728 419 b 682 408 701 419 690 415 b 669 383 674 401 669 393 b 681 363 669 375 674 367 b 713 349 689 357 699 353 b 733 342 722 347 731 344 b 739 329 738 338 739 335 b 732 317 739 324 736 319 b 714 311 728 314 721 311 b 694 317 706 311 700 313 b 686 333 690 319 686 325 l 665 333 l 665 332 b 679 306 665 322 669 313 b 714 294 688 297 700 294 b 749 304 728 294 739 297 b 761 329 757 310 761 318 b 749 354 760 342 757 349 z m 832 419 b 797 403 818 419 807 414 b 782 361 788 392 782 376 l 782 356 b 796 314 782 338 786 324 b 836 297 806 303 818 297 b 861 301 846 297 854 299 b 878 313 868 304 874 307 l 869 326 b 856 318 865 322 860 319 b 836 315 850 315 843 315 b 811 326 825 315 817 318 b 803 356 807 333 803 343 l 879 356 l 879 367 b 867 407 879 383 875 396 b 832 419 858 417 849 419 z m 858 371 l 806 371 l 806 372 b 815 394 807 381 810 388 b 833 403 819 400 826 403 b 853 394 842 403 849 400 b 858 374 857 390 858 382 z m 956 419 b 938 414 949 419 943 417 b 925 400 933 410 929 406 l 924 417 l 904 417 l 904 299 l 925 299 l 925 383 b 935 394 928 388 931 392 b 949 397 938 397 943 397 l 960 397 l 963 417 b 958 418 963 417 961 418 b 956 419 957 418 957 419 z m 1032 314 b 1026 314 1031 314 1029 314 b 1018 317 1024 314 1021 315 b 1014 329 1015 319 1014 324 l 1014 401 l 1036 401 l 1036 417 l 1014 417 l 1014 444 l 993 444 l 993 417 l 974 417 l 974 401 l 993 401 l 993 329 b 1000 304 993 318 994 310 b 1021 296 1006 299 1013 296 b 1031 297 1024 296 1026 297 b 1038 300 1033 299 1035 300 l 1035 315 b 1032 314 1035 315 1033 315 z m 1453 822 b 1301 972 1453 917 1396 972 b 222 972 1089 972 435 972 b 69 821 126 972 69 917 b 69 488 69 710 69 599 b 69 149 69 375 69 261 b 218 1 71 58 128 1 b 1303 1 433 1 1089 1 b 1453 150 1396 1 1453 57 b 1453 822 1453 374 1453 599 z m 217 803 b 215 326 217 644 217 485 b 199 285 215 313 208 294 b 100 178 168 247 133 213 b 93 179 99 179 96 179 b 93 206 93 189 93 197 b 93 819 93 410 93 615 b 224 949 93 903 139 949 b 1214 942 407 949 1031 949 b 1156 935 1194 939 1175 935 b 349 933 1033 933 469 935 b 217 803 265 935 217 886 z m 1272 304 b 1171 201 1272 239 1235 201 b 342 201 1042 201 471 201 b 242 301 281 201 242 240 b 242 807 242 469 242 639 b 336 908 242 867 278 907 b 1179 908 471 910 1044 910 b 1274 808 1236 907 1274 867 b 1274 553 1274 724 1274 638 b 1272 304 1272 471 1272 388 z "},"j":{"ha":1111,"x_min":0,"x_max":0,"o":"m 369 386 l 292 386 l 292 458 l 269 458 l 269 299 l 292 299 l 292 368 l 369 368 l 369 299 l 390 299 l 390 458 l 369 458 z m 472 419 b 433 401 456 419 443 413 b 419 358 424 390 419 376 l 419 356 b 433 313 419 338 424 324 b 472 296 443 301 456 296 b 511 313 489 296 501 301 b 525 356 521 324 525 338 l 525 358 b 511 403 525 376 521 392 b 472 419 501 414 489 419 z m 504 357 b 496 325 504 344 501 333 b 472 314 490 317 482 314 b 449 325 463 314 456 317 b 440 357 443 333 440 344 l 440 358 b 449 390 440 372 443 382 b 472 403 454 397 463 403 b 496 390 482 403 490 397 b 504 358 501 382 504 371 z m 678 419 b 656 413 669 419 663 417 b 642 397 650 410 644 404 b 628 414 638 404 633 410 b 608 419 624 417 615 419 b 588 414 601 419 593 417 b 572 401 582 411 576 407 l 571 417 l 551 417 l 551 299 l 574 299 l 574 386 b 583 397 575 392 578 394 b 599 401 588 400 593 401 b 617 393 607 401 613 399 b 624 368 622 388 624 381 l 624 297 l 644 297 l 644 375 b 653 394 646 382 649 389 b 671 401 657 400 664 401 b 689 394 679 401 685 400 b 694 369 693 389 694 381 l 694 299 l 717 299 l 717 369 b 706 407 717 386 713 399 b 678 419 700 415 690 419 z m 793 419 b 758 403 779 419 768 414 b 743 361 749 392 743 376 l 743 356 b 757 314 743 338 747 324 b 797 297 767 303 779 297 b 822 301 807 297 815 299 b 839 313 829 304 835 307 l 831 326 b 817 318 826 322 821 319 b 797 315 811 317 804 315 b 772 326 786 315 778 318 b 764 356 768 333 764 343 l 840 356 l 840 367 b 828 407 840 383 836 396 b 793 419 819 417 810 419 z m 819 371 l 767 371 l 767 372 b 776 394 768 381 771 388 b 794 403 781 400 788 403 b 814 394 803 403 810 400 b 819 374 818 390 819 382 z m 1042 822 b 890 972 1042 917 985 972 b 222 972 678 972 435 972 b 69 821 126 972 69 917 b 69 488 69 710 69 599 b 69 149 69 375 69 261 b 218 1 71 58 128 1 b 892 1 433 1 676 1 b 1042 150 985 1 1042 57 b 1042 822 1042 374 1042 599 z m 217 803 b 215 326 217 644 217 485 b 199 285 215 313 208 294 b 100 178 168 247 133 213 b 93 179 99 179 96 179 b 93 206 93 189 93 197 b 93 819 93 410 93 615 b 224 949 93 903 139 949 b 803 942 407 949 618 949 b 743 935 783 939 763 935 b 349 933 622 933 469 935 b 217 803 265 935 217 886 z m 861 304 b 760 201 861 239 822 201 b 342 201 631 201 471 201 b 242 301 281 201 242 240 b 242 807 242 469 242 639 b 336 908 242 867 278 907 b 768 908 471 910 633 910 b 861 808 825 907 861 867 b 861 553 863 724 861 638 b 861 304 861 471 861 388 z "},"k":{"ha":1522,"x_min":0,"x_max":0,"o":"m 507 458 l 457 458 l 457 299 l 507 299 b 557 318 528 299 544 306 b 575 367 569 331 575 347 l 575 389 b 557 439 575 410 569 425 b 507 458 544 451 528 458 z m 554 367 b 542 329 554 353 550 339 b 507 315 533 319 521 315 l 478 315 l 478 442 l 507 442 b 542 426 521 442 533 436 b 554 390 550 417 554 404 z m 651 419 b 615 403 636 419 625 414 b 600 361 606 392 600 376 l 600 356 b 614 314 600 338 604 324 b 654 297 624 303 636 297 b 679 301 664 297 672 299 b 696 313 686 304 692 307 l 688 326 b 674 318 683 322 679 319 b 654 315 668 315 661 315 b 631 326 643 315 635 318 b 622 356 625 333 622 343 l 697 356 l 697 367 b 685 407 697 383 693 396 b 651 419 676 417 667 419 z m 676 371 l 624 371 l 624 372 b 633 394 625 381 628 388 b 651 403 638 400 644 403 b 671 394 661 403 667 400 b 676 374 675 390 676 382 z m 747 299 l 747 469 l 725 469 l 725 299 z m 825 419 b 789 403 811 419 799 414 b 774 361 779 392 774 376 l 774 356 b 789 314 774 338 779 324 b 828 297 799 303 811 297 b 854 301 838 297 846 299 b 869 313 861 304 867 307 l 861 326 b 847 318 858 322 853 319 b 828 315 842 315 836 315 b 804 326 818 315 810 318 b 796 356 799 333 796 343 l 871 356 l 871 367 b 860 407 871 383 868 396 b 825 419 851 417 840 419 z m 851 371 l 799 371 l 799 372 b 807 394 799 381 801 388 b 826 403 813 400 818 403 b 846 394 835 403 842 400 b 851 374 849 390 851 382 z m 943 314 b 939 314 942 314 940 314 b 929 317 935 314 932 315 b 926 329 928 319 926 324 l 926 401 l 949 401 l 949 417 l 926 417 l 926 444 l 904 444 l 904 417 l 886 417 l 886 401 l 904 401 l 904 329 b 913 304 904 318 907 310 b 933 296 917 299 924 296 b 942 297 936 296 939 297 b 949 300 944 299 947 300 l 946 315 b 943 314 946 315 944 315 z m 1018 419 b 982 403 1004 419 992 414 b 967 361 972 392 967 376 l 967 356 b 982 314 967 338 972 324 b 1021 297 992 303 1004 297 b 1046 301 1031 297 1039 299 b 1063 313 1054 304 1060 307 l 1054 326 b 1040 318 1051 322 1046 319 b 1021 315 1035 315 1029 315 b 997 326 1011 315 1003 318 b 989 356 992 333 989 343 l 1064 356 l 1064 367 b 1053 407 1064 383 1061 396 b 1018 419 1044 417 1033 419 z m 1044 371 l 992 371 l 992 372 b 1000 394 992 381 994 388 b 1019 403 1006 400 1011 403 b 1039 394 1028 403 1035 400 b 1044 374 1042 390 1044 382 z m 1453 822 b 1301 972 1453 917 1396 972 b 222 972 1089 972 435 972 b 69 821 126 972 69 917 b 69 488 69 710 69 599 b 69 149 69 375 69 261 b 218 1 71 58 128 1 b 1303 1 433 1 1089 1 b 1453 150 1396 1 1453 57 b 1453 822 1453 374 1453 599 z m 217 803 b 215 326 217 644 217 485 b 199 285 215 313 208 294 b 100 178 168 247 133 213 b 93 179 99 179 96 179 b 93 206 93 189 93 197 b 93 819 93 410 93 615 b 224 949 93 903 139 949 b 1214 942 407 949 1031 949 b 1156 935 1194 939 1175 935 b 349 933 1033 933 469 935 b 217 803 265 935 217 886 z m 1272 304 b 1169 201 1272 239 1233 201 b 342 201 1040 201 471 201 b 240 301 279 201 240 240 b 240 807 240 469 240 639 b 336 908 240 867 276 907 b 1178 908 469 910 1044 910 b 1272 808 1236 907 1272 867 b 1272 553 1274 724 1272 638 b 1272 304 1272 471 1272 388 z "},"l":{"ha":1082,"x_min":0,"x_max":0,"o":"m 390 372 l 456 372 l 456 390 l 390 390 l 390 442 l 467 442 l 467 458 l 369 458 l 369 299 l 467 299 l 467 315 l 390 315 z m 546 419 b 525 414 538 419 531 417 b 510 399 519 410 514 406 l 508 417 l 489 417 l 489 299 l 511 299 l 511 386 b 522 397 514 392 518 394 b 539 401 526 401 533 401 b 558 394 547 401 554 400 b 564 372 563 390 564 383 l 564 299 l 586 299 l 586 374 b 575 407 586 389 582 400 b 546 419 568 415 558 419 z m 692 404 b 678 415 688 410 683 413 b 660 419 672 417 667 419 b 625 401 644 419 633 413 b 613 356 617 390 613 375 l 613 353 b 625 313 613 336 617 322 b 658 296 633 301 644 296 b 679 300 665 296 672 297 b 693 314 685 304 689 308 l 696 299 l 713 299 l 713 469 l 690 469 l 690 404 z m 692 331 b 681 318 689 325 685 321 b 664 314 676 317 671 314 b 642 325 654 314 646 318 b 635 353 638 332 635 342 l 635 356 b 642 389 635 368 636 381 b 665 401 647 397 654 401 b 681 397 671 401 676 400 b 692 385 685 394 689 390 z m 1011 822 b 860 972 1011 917 954 972 b 222 972 647 972 435 972 b 69 821 126 972 69 917 b 69 488 69 710 69 599 b 69 149 69 375 69 261 b 218 1 71 58 128 1 b 861 1 433 1 647 1 b 1011 150 954 1 1011 57 b 1011 822 1013 374 1013 599 z m 217 803 b 215 326 217 644 217 485 b 199 285 215 313 208 294 b 100 178 168 247 133 213 b 93 179 99 179 96 179 b 93 206 93 189 93 197 b 93 819 93 410 93 615 b 224 949 93 903 139 949 b 772 942 407 949 589 949 b 714 935 753 939 733 935 b 349 933 592 933 469 935 b 217 803 265 935 217 886 z m 831 304 b 729 201 831 239 793 201 b 342 201 600 201 471 201 b 242 301 281 201 242 240 b 242 807 242 469 242 639 b 336 908 242 867 278 907 b 738 908 471 910 604 910 b 832 808 796 907 832 867 b 832 553 832 724 832 638 b 831 304 831 471 831 388 z "},"m":{"ha":1082,"x_min":0,"x_max":0,"o":"m 397 372 l 463 372 l 463 390 l 397 390 l 397 442 l 472 442 l 472 458 l 375 458 l 375 299 l 475 299 l 475 315 l 397 315 z m 576 354 b 543 367 568 360 557 364 b 524 374 533 368 526 371 b 518 385 519 375 518 379 b 524 396 518 389 519 393 b 540 401 528 400 533 401 b 558 396 547 401 554 400 b 565 382 563 392 565 386 l 586 382 b 574 407 586 392 582 400 b 540 419 565 415 554 419 b 508 408 528 419 517 415 b 497 383 500 401 497 393 b 508 363 497 375 500 367 b 540 349 515 357 526 353 b 560 342 550 347 557 344 b 565 329 564 338 565 335 b 558 317 565 324 564 319 b 540 311 554 314 549 311 b 522 317 533 311 528 313 b 514 333 517 319 514 325 l 493 333 l 493 332 b 506 306 492 322 497 313 b 542 294 515 297 526 294 b 575 304 556 294 567 297 b 588 329 583 310 588 318 b 576 354 588 342 583 349 z m 638 390 b 661 401 643 397 651 401 b 679 394 669 401 675 400 b 686 375 683 389 686 383 l 706 375 l 706 376 b 693 406 706 388 701 397 b 661 418 685 414 674 418 b 624 401 644 418 632 413 b 610 358 614 390 610 375 l 610 354 b 624 313 610 338 614 324 b 663 294 632 300 644 294 b 693 307 674 294 685 299 b 707 333 703 315 707 324 l 707 335 l 688 335 b 681 318 688 328 685 322 b 663 311 675 314 669 311 b 640 324 653 311 644 315 b 632 353 635 332 632 342 l 632 357 b 638 390 631 372 633 382 z m 1011 822 b 860 972 1011 917 954 972 b 222 972 647 972 435 972 b 69 821 126 972 69 917 b 69 488 69 710 69 599 b 69 149 69 375 69 261 b 218 1 71 58 128 1 b 861 1 433 1 647 1 b 1011 150 954 1 1011 57 b 1011 822 1013 374 1013 599 z m 217 803 b 215 326 217 644 217 485 b 199 285 215 313 208 294 b 100 178 168 247 133 213 b 93 179 99 179 96 179 b 93 206 93 189 93 197 b 93 819 93 410 93 615 b 224 949 93 903 139 949 b 772 942 407 949 589 949 b 714 935 753 939 733 935 b 349 933 592 933 469 935 b 217 803 265 935 217 886 z m 831 304 b 729 201 831 239 793 201 b 342 201 600 201 471 201 b 242 301 281 201 242 240 b 242 807 242 469 242 639 b 336 908 242 867 278 907 b 738 908 471 910 604 910 b 832 808 796 907 832 867 b 832 553 832 724 832 638 b 831 304 831 471 831 388 z "},"n":{"ha":2071,"x_min":0,"x_max":0,"o":"m 563 429 b 592 443 569 439 579 443 b 619 433 603 443 613 440 b 629 407 626 426 629 417 l 650 407 b 635 446 650 424 644 436 b 590 460 624 456 610 460 b 547 440 572 460 558 453 b 529 392 535 428 529 411 l 529 364 b 547 315 529 344 535 328 b 590 296 558 303 572 296 b 633 310 608 296 622 300 b 649 347 644 319 649 333 l 649 349 l 628 349 b 618 322 628 338 625 328 b 590 313 611 315 603 313 b 561 326 579 313 569 317 b 551 363 554 336 551 347 l 551 392 b 563 429 551 407 554 419 z m 722 419 b 683 401 706 419 693 413 b 669 358 674 390 669 376 l 669 356 b 683 313 669 338 674 324 b 722 296 693 301 706 296 b 761 313 739 296 751 301 b 775 356 771 324 775 338 l 775 358 b 761 403 775 376 771 392 b 722 419 753 414 739 419 z m 754 357 b 746 325 754 344 751 333 b 724 314 742 317 733 314 b 699 325 713 314 706 317 b 690 357 694 333 690 344 l 690 358 b 699 390 690 372 694 382 b 722 403 704 397 713 403 b 746 390 733 403 740 397 b 754 358 751 382 754 371 z m 928 419 b 907 413 919 419 913 417 b 892 397 900 410 894 404 b 879 414 889 404 883 410 b 858 419 872 417 865 419 b 838 414 851 419 843 417 b 822 401 832 411 826 407 l 821 417 l 801 417 l 801 299 l 824 299 l 824 386 b 833 397 825 392 829 394 b 850 401 838 400 843 401 b 868 393 857 401 863 399 b 874 368 872 388 874 381 l 874 297 l 894 297 l 894 375 b 903 394 896 382 899 389 b 921 401 908 400 914 401 b 939 394 929 401 936 400 b 946 369 943 389 946 381 l 946 299 l 967 299 l 967 369 b 957 407 967 386 963 399 b 928 419 950 415 940 419 z m 1124 419 b 1103 413 1115 419 1108 417 b 1088 397 1096 410 1092 404 b 1075 414 1085 404 1079 410 b 1054 419 1068 417 1063 419 b 1033 414 1047 419 1039 417 b 1018 401 1028 411 1022 407 l 1017 417 l 997 417 l 997 299 l 1019 299 l 1019 386 b 1029 397 1021 392 1025 394 b 1046 401 1033 400 1039 401 b 1064 393 1053 401 1058 399 b 1069 368 1068 388 1069 381 l 1069 297 l 1092 297 l 1092 375 b 1099 394 1092 382 1094 389 b 1117 401 1104 400 1110 401 b 1135 394 1125 401 1132 400 b 1142 369 1139 389 1142 381 l 1142 299 l 1163 299 l 1163 369 b 1153 407 1163 386 1160 399 b 1124 419 1146 415 1136 419 z m 1286 322 l 1286 379 b 1274 408 1286 392 1282 401 b 1242 419 1267 415 1256 419 b 1210 408 1229 419 1218 415 b 1197 385 1201 401 1196 393 l 1197 383 l 1218 383 b 1224 396 1218 389 1219 393 b 1242 401 1229 400 1233 401 b 1260 396 1249 401 1254 400 b 1265 379 1264 392 1265 386 l 1265 367 l 1242 367 b 1204 357 1226 367 1214 364 b 1192 331 1196 351 1192 343 b 1201 304 1192 319 1194 311 b 1229 294 1208 299 1217 294 b 1250 300 1238 294 1243 297 b 1267 315 1257 304 1263 308 b 1267 307 1267 313 1267 310 b 1268 297 1268 304 1268 300 l 1290 297 b 1289 308 1289 300 1289 304 b 1286 322 1289 314 1286 318 z m 1265 335 b 1253 321 1263 329 1260 325 b 1232 315 1247 317 1240 315 b 1218 319 1225 315 1221 317 b 1213 332 1215 322 1213 326 b 1221 347 1213 338 1215 343 b 1242 354 1225 353 1232 354 l 1265 354 z m 1374 419 b 1354 414 1367 419 1360 417 b 1339 399 1347 410 1342 406 l 1338 417 l 1318 417 l 1318 299 l 1339 299 l 1339 386 b 1350 397 1342 392 1346 394 b 1368 401 1356 401 1361 401 b 1386 394 1376 401 1383 400 b 1393 372 1390 390 1393 383 l 1393 299 l 1414 299 l 1414 374 b 1404 407 1414 389 1410 400 b 1374 419 1397 415 1386 419 z m 1519 404 b 1506 415 1515 410 1511 413 b 1486 419 1500 417 1494 419 b 1453 401 1472 419 1461 413 b 1440 356 1444 390 1440 375 l 1440 353 b 1453 313 1440 336 1444 322 b 1486 296 1461 301 1472 296 b 1506 300 1493 296 1500 297 b 1521 314 1513 304 1517 308 l 1524 299 l 1540 299 l 1540 469 l 1518 469 l 1518 404 z m 1519 331 b 1508 318 1515 325 1513 321 b 1492 314 1504 317 1499 314 b 1469 325 1482 314 1474 318 b 1463 353 1465 332 1463 342 l 1463 356 b 1469 389 1463 368 1464 381 b 1493 401 1475 397 1482 401 b 1508 397 1499 401 1504 400 b 1519 385 1513 394 1517 390 z m 2000 822 b 1850 972 2000 917 1943 972 b 224 972 1638 972 436 972 b 71 821 126 972 71 917 b 71 488 71 710 71 599 b 71 149 71 375 71 261 b 219 1 72 58 129 1 b 1851 1 435 1 1638 1 b 2001 150 1944 1 2001 57 b 2000 822 2000 374 2000 599 z m 217 803 b 217 326 217 644 217 485 b 200 285 217 313 210 294 b 101 178 168 247 133 213 b 94 179 99 179 96 179 b 94 206 94 189 94 197 b 94 819 94 410 94 615 b 224 949 94 903 140 949 b 1761 942 407 949 1578 949 b 1701 935 1742 939 1721 935 b 347 933 1581 933 469 935 b 217 803 265 935 217 886 z m 1819 304 b 1718 201 1819 239 1782 201 b 343 201 1589 201 471 201 b 242 301 281 201 242 240 b 242 807 242 469 242 639 b 338 908 242 867 278 907 b 1726 908 471 910 1593 910 b 1821 808 1783 907 1821 867 b 1821 553 1821 724 1821 638 b 1819 304 1819 471 1821 388 z "},"o":{"ha":1522,"x_min":0,"x_max":0,"o":"m 504 460 b 458 440 486 460 471 453 b 442 392 447 428 442 411 l 442 364 b 458 315 442 344 447 328 b 504 296 471 303 486 296 b 551 315 524 296 539 303 b 569 364 564 328 569 344 l 569 392 b 551 440 569 411 564 428 b 504 460 539 454 524 460 z m 547 364 b 536 328 547 349 544 338 b 504 314 528 319 517 314 b 474 328 490 314 481 318 b 463 364 467 338 463 350 l 463 393 b 474 429 463 407 467 419 b 504 443 481 439 490 443 b 535 429 517 443 528 439 b 547 393 543 419 547 407 z m 653 419 b 632 414 644 419 638 417 b 618 401 626 411 622 407 l 614 417 l 597 417 l 597 254 l 619 254 l 619 311 b 633 300 624 306 628 303 b 653 296 639 297 646 296 b 686 313 667 296 679 301 b 699 353 694 322 699 336 l 699 356 b 686 401 699 375 694 390 b 653 419 678 414 667 419 z m 676 353 b 669 324 676 342 674 332 b 646 313 664 317 656 313 b 629 317 640 313 633 314 b 618 328 625 318 621 324 l 618 385 b 629 396 622 390 625 394 b 644 401 633 399 639 401 b 668 388 656 401 663 396 b 676 356 674 379 676 368 z m 772 314 b 768 314 771 314 769 314 b 758 317 764 314 761 315 b 754 329 757 319 754 324 l 754 401 l 778 401 l 778 417 l 754 417 l 754 444 l 733 444 l 733 417 l 714 417 l 714 401 l 733 401 l 733 329 b 740 304 733 318 735 310 b 761 296 746 299 753 296 b 771 297 764 296 768 297 b 778 300 774 299 776 300 l 775 315 b 772 314 774 315 774 315 z m 824 449 l 824 469 l 801 469 l 801 449 z m 824 299 l 824 417 l 801 417 l 801 299 z m 906 419 b 867 401 889 419 876 413 b 851 358 857 390 851 376 l 851 356 b 867 313 851 338 857 324 b 906 296 876 301 889 296 b 944 313 922 296 935 301 b 958 356 954 324 958 338 l 958 358 b 944 403 958 376 954 392 b 906 419 935 414 922 419 z m 936 357 b 928 325 936 344 933 333 b 906 314 924 317 915 314 b 881 325 894 314 888 317 b 874 357 876 333 874 344 l 874 358 b 881 390 874 372 876 382 b 904 403 886 397 894 403 b 928 390 915 403 922 397 b 936 358 933 382 936 371 z m 1040 419 b 1021 414 1033 419 1026 417 b 1006 399 1014 410 1010 406 l 1004 417 l 985 417 l 985 299 l 1006 299 l 1006 386 b 1017 397 1010 392 1013 394 b 1035 401 1022 401 1028 401 b 1053 394 1043 401 1050 400 b 1060 372 1058 390 1060 383 l 1060 299 l 1081 299 l 1081 374 b 1071 407 1081 389 1078 400 b 1040 419 1064 415 1053 419 z m 1453 822 b 1301 972 1453 917 1396 972 b 222 972 1089 972 435 972 b 69 821 126 972 69 917 b 69 488 69 710 69 599 b 69 149 69 375 69 261 b 218 1 71 58 128 1 b 1303 1 433 1 1089 1 b 1453 150 1396 1 1453 57 b 1453 822 1453 374 1453 599 z m 217 803 b 215 326 217 644 217 485 b 199 285 215 313 208 294 b 100 178 168 247 133 213 b 93 179 99 179 96 179 b 93 206 93 189 93 197 b 93 819 93 410 93 615 b 224 949 93 903 139 949 b 1214 942 407 949 1031 949 b 1156 935 1194 939 1175 935 b 349 933 1033 933 469 935 b 217 803 265 935 217 886 z m 1272 304 b 1169 201 1272 239 1233 201 b 342 201 1040 201 471 201 b 240 301 279 201 240 240 b 240 807 240 469 240 639 b 336 908 240 867 276 907 b 1178 908 469 910 1044 910 b 1272 808 1236 907 1272 867 b 1272 553 1274 724 1272 638 b 1272 304 1272 471 1272 388 z "},"p":{"ha":1081,"x_min":0,"x_max":0,"o":"m 331 458 l 310 458 l 310 299 l 408 299 l 408 315 l 331 315 z m 478 419 b 439 401 461 419 449 413 b 424 358 429 390 424 376 l 424 356 b 439 313 424 338 429 324 b 478 296 449 301 461 296 b 517 313 494 296 507 301 b 531 356 526 324 531 338 l 531 358 b 517 403 531 376 526 392 b 478 419 507 414 494 419 z m 508 357 b 500 325 508 344 506 333 b 478 314 496 317 488 314 b 453 325 467 314 460 317 b 446 357 447 333 446 344 l 446 358 b 453 390 446 372 449 382 b 476 403 458 397 467 403 b 500 390 488 403 494 397 b 508 358 507 382 508 371 z m 581 390 b 604 401 585 397 593 401 b 622 394 611 401 617 400 b 628 375 626 389 628 383 l 647 375 l 647 376 b 636 406 647 388 644 397 b 604 418 628 414 617 418 b 565 401 588 418 575 413 b 553 358 557 390 553 375 l 553 354 b 565 313 553 338 557 324 b 604 294 575 300 588 294 b 636 307 617 294 626 299 b 650 333 644 315 650 324 l 650 335 l 631 335 b 622 318 631 328 628 322 b 606 311 617 314 613 311 b 582 324 594 311 586 315 b 575 353 578 332 575 342 l 575 357 b 581 390 574 372 576 382 z m 768 417 l 742 417 l 707 371 l 696 371 l 696 469 l 674 469 l 674 299 l 696 299 l 696 353 l 707 353 l 747 299 l 772 299 l 725 363 z m 438 646 l 417 646 l 417 524 l 415 524 l 339 646 l 317 646 l 317 488 l 339 488 l 339 608 l 417 488 l 438 488 z m 568 606 l 546 606 l 546 519 b 535 507 544 514 540 510 b 517 501 529 503 524 501 b 499 510 508 501 503 504 b 494 536 496 514 494 522 l 494 606 l 472 606 l 472 536 b 482 497 472 519 476 506 b 513 485 489 489 500 485 b 533 490 519 485 526 486 b 547 504 539 493 543 499 l 549 488 l 568 488 z m 693 563 b 701 582 693 569 696 576 b 719 589 706 588 711 589 b 738 582 728 589 733 588 b 743 557 740 576 743 568 l 743 486 l 764 486 l 764 557 b 754 594 764 574 761 586 b 725 607 747 603 738 607 b 704 601 718 607 711 606 b 689 586 697 597 693 592 b 676 601 686 593 682 599 b 656 607 671 606 664 607 b 635 603 649 607 642 606 b 621 589 629 600 624 596 l 618 606 l 599 606 l 599 488 l 621 488 l 621 575 b 631 586 624 579 626 583 b 647 589 635 588 640 589 b 665 582 654 589 661 588 b 671 557 669 576 671 568 l 671 486 l 693 486 z m 1011 822 b 860 972 1011 917 954 972 b 222 972 647 972 435 972 b 69 821 126 972 69 917 b 69 488 69 710 69 599 b 69 149 69 375 69 261 b 218 1 71 58 128 1 b 861 1 433 1 647 1 b 1011 150 954 1 1011 57 b 1011 822 1011 374 1011 599 z m 217 803 b 215 326 217 644 217 485 b 199 285 215 313 208 294 b 100 178 168 247 133 213 b 93 179 99 179 96 179 b 93 206 93 189 93 197 b 93 819 93 410 93 615 b 224 949 93 903 139 949 b 772 942 407 949 589 949 b 714 935 753 939 733 935 b 349 933 592 933 469 935 b 217 803 265 935 217 886 z m 831 304 b 729 201 831 239 792 201 b 342 201 599 201 471 201 b 240 301 279 201 240 240 b 240 807 240 469 240 639 b 336 908 240 867 276 907 b 738 908 469 910 603 910 b 831 808 794 907 831 867 b 831 553 832 724 831 638 b 831 304 831 471 831 388 z "},"q":{"ha":1082,"x_min":0,"x_max":0,"o":"m 1011 822 b 860 972 1011 917 954 972 b 222 972 647 972 435 972 b 69 821 126 972 69 917 b 69 488 69 710 69 599 b 69 149 69 375 69 261 b 218 1 71 58 128 1 b 861 1 433 1 647 1 b 1011 150 954 1 1011 57 b 1011 822 1013 374 1013 599 z m 217 803 b 215 326 217 644 217 485 b 199 285 215 313 208 294 b 100 178 168 247 133 213 b 93 179 99 179 96 179 b 93 206 93 189 93 197 b 93 819 93 410 93 615 b 224 949 93 903 139 949 b 772 942 407 949 589 949 b 714 935 753 939 733 935 b 349 933 592 933 469 935 b 217 803 265 935 217 886 z m 831 304 b 729 201 831 239 793 201 b 342 201 600 201 471 201 b 242 301 281 201 242 240 b 242 807 242 469 242 639 b 336 908 242 867 278 907 b 738 908 471 910 604 910 b 832 808 796 907 832 867 b 832 553 832 724 832 638 b 831 304 831 471 831 388 z m 540 488 l 496 410 l 536 410 l 536 289 l 546 289 l 546 410 l 585 410 z "},"r":{"ha":1081,"x_min":0,"x_max":0,"o":"m 544 488 l 536 488 l 536 367 l 496 367 l 540 289 l 585 367 l 544 367 z m 1011 822 b 860 972 1011 917 954 972 b 222 972 647 972 435 972 b 69 821 126 972 69 917 b 69 488 69 710 69 599 b 69 149 69 375 69 261 b 218 1 71 58 128 1 b 861 1 433 1 647 1 b 1011 150 954 1 1011 57 b 1011 822 1011 374 1011 599 z m 217 803 b 215 326 217 644 217 485 b 199 285 215 313 208 294 b 100 178 168 247 133 213 b 93 179 99 179 96 179 b 93 206 93 189 93 197 b 93 819 93 410 93 615 b 224 949 93 903 139 949 b 772 942 407 949 589 949 b 714 935 753 939 733 935 b 349 933 592 933 469 935 b 217 803 265 935 217 886 z m 831 304 b 729 201 831 239 792 201 b 342 201 599 201 471 201 b 240 301 279 201 240 240 b 240 807 240 469 240 639 b 336 908 240 867 276 907 b 738 908 469 910 603 910 b 831 808 794 907 831 867 b 831 553 832 724 831 638 b 831 304 831 471 831 388 z "},"s":{"ha":1081,"x_min":0,"x_max":0,"o":"m 519 432 l 442 388 l 519 343 l 519 383 l 639 383 l 639 393 l 519 393 z m 1011 822 b 861 972 1011 917 956 972 b 222 972 649 972 435 972 b 71 821 126 972 71 917 b 71 488 71 710 71 599 b 71 149 71 375 69 261 b 219 1 71 58 128 1 b 863 1 433 1 647 1 b 1011 150 956 1 1011 57 b 1011 822 1011 374 1011 599 z m 217 803 b 217 326 217 644 217 485 b 200 285 217 313 210 294 b 101 178 168 247 133 213 b 94 179 99 179 96 179 b 94 206 94 189 94 197 b 94 819 94 410 94 615 b 224 949 94 903 140 949 b 774 942 407 949 589 949 b 714 935 754 939 733 935 b 349 933 592 933 471 935 b 217 803 265 935 217 886 z m 831 304 b 729 201 831 239 793 201 b 342 201 600 201 471 201 b 240 301 279 201 240 240 b 240 807 240 469 240 639 b 336 908 240 867 278 907 b 738 908 471 910 603 910 b 832 808 794 907 832 867 b 832 553 832 724 832 638 b 831 304 831 471 832 388 z "},"t":{"ha":1081,"x_min":0,"x_max":0,"o":"m 563 393 l 442 393 l 442 383 l 563 383 l 563 343 l 639 388 l 563 432 z m 1011 822 b 861 972 1011 917 956 972 b 222 972 649 972 435 972 b 71 821 126 972 71 917 b 71 488 71 710 71 599 b 71 149 71 375 69 261 b 219 1 71 58 128 1 b 863 1 433 1 647 1 b 1011 150 956 1 1011 57 b 1011 822 1011 374 1011 599 z m 217 803 b 217 326 217 644 217 485 b 200 285 217 313 210 294 b 101 178 168 247 133 213 b 94 179 99 179 96 179 b 94 206 94 189 94 197 b 94 819 94 410 94 615 b 224 949 94 903 140 949 b 774 942 407 949 589 949 b 714 935 754 939 733 935 b 349 933 592 933 471 935 b 217 803 265 935 217 886 z m 831 304 b 729 201 831 239 793 201 b 342 201 600 201 471 201 b 240 301 279 201 240 240 b 240 807 240 469 240 639 b 336 908 240 867 278 907 b 738 908 471 910 603 910 b 832 808 794 907 832 867 b 832 553 832 724 832 638 b 831 304 831 471 832 388 z "},"u":{"ha":1081,"x_min":0,"x_max":0,"o":"m 344 458 l 283 458 l 283 299 l 304 299 l 304 363 l 344 363 b 383 375 361 363 374 367 b 399 410 393 385 399 396 b 383 444 399 424 393 436 b 344 458 375 453 361 458 z m 369 388 b 344 379 364 382 356 379 l 306 379 l 306 442 l 344 442 b 369 432 356 442 364 439 b 378 410 374 426 378 419 b 369 388 378 401 374 394 z m 499 401 b 485 415 494 407 489 411 b 464 419 479 419 472 419 b 429 403 449 419 438 414 b 418 356 421 390 418 375 l 418 354 b 429 313 418 336 421 324 b 463 297 438 303 449 297 b 482 300 469 297 476 299 b 496 313 488 303 492 307 l 496 299 b 489 276 496 289 494 281 b 465 269 485 272 476 269 b 449 271 460 269 454 269 b 433 276 442 274 438 275 l 431 260 b 447 254 436 257 442 256 b 467 251 454 251 460 251 b 504 264 482 251 496 256 b 518 299 514 271 518 283 l 518 417 l 500 417 z m 497 331 b 486 318 494 325 490 321 b 469 314 481 315 476 314 b 447 325 458 314 451 317 b 439 353 442 332 439 342 l 439 356 b 447 389 439 368 442 381 b 469 401 451 397 460 401 b 486 397 476 401 482 400 b 497 385 490 394 494 390 z m 603 458 l 553 458 l 553 299 l 603 299 b 653 318 624 299 640 306 b 671 367 665 331 671 347 l 671 389 b 653 439 671 410 665 425 b 603 458 640 451 624 458 z m 650 367 b 638 329 650 353 646 339 b 603 315 629 319 617 315 l 574 315 l 574 442 l 603 442 b 638 426 617 442 628 436 b 650 390 646 417 650 404 z m 757 419 b 738 414 750 419 743 417 b 722 399 731 410 725 406 l 721 417 l 701 417 l 701 299 l 722 299 l 722 386 b 733 397 725 392 729 394 b 751 401 739 401 744 401 b 769 394 760 401 767 400 b 776 372 774 390 776 383 l 776 299 l 797 299 l 797 374 b 788 407 797 389 793 400 b 757 419 781 415 769 419 z m 1011 822 b 860 972 1011 917 954 972 b 222 972 647 972 435 972 b 69 821 126 972 69 917 b 69 488 69 710 69 599 b 69 149 69 375 69 261 b 218 1 71 58 128 1 b 861 1 433 1 647 1 b 1011 150 954 1 1011 57 b 1011 822 1011 374 1011 599 z m 217 803 b 215 326 217 644 217 485 b 199 285 215 313 208 294 b 100 178 168 247 133 213 b 93 179 99 179 96 179 b 93 206 93 189 93 197 b 93 819 93 410 93 615 b 224 949 93 903 139 949 b 772 942 407 949 589 949 b 714 935 753 939 733 935 b 349 933 592 933 469 935 b 217 803 265 935 217 886 z m 831 304 b 729 201 831 239 793 201 b 342 201 600 201 471 201 b 242 301 281 201 242 240 b 242 807 242 469 242 639 b 336 908 242 867 278 907 b 738 908 471 910 604 910 b 832 808 796 907 832 867 b 832 553 832 724 832 638 b 831 304 831 471 831 388 z "},"v":{"ha":1082,"x_min":0,"x_max":0,"o":"m 343 458 l 282 458 l 282 299 l 303 299 l 303 363 l 343 363 b 382 375 360 363 372 367 b 397 410 392 385 397 396 b 382 444 397 424 392 436 b 343 458 372 453 360 458 z m 367 388 b 343 379 361 382 353 379 l 303 379 l 303 442 l 343 442 b 367 432 353 442 361 439 b 375 410 372 426 375 419 b 367 388 375 401 372 394 z m 496 401 b 482 415 492 407 488 411 b 461 419 476 419 469 419 b 428 403 447 419 436 414 b 415 356 419 390 415 375 l 415 354 b 428 313 415 336 419 324 b 461 297 436 303 447 297 b 479 300 468 297 475 299 b 494 313 485 303 489 307 l 494 299 b 486 276 494 289 492 281 b 463 269 482 272 474 269 b 446 271 457 269 451 269 b 431 276 440 274 435 275 l 428 260 b 446 254 433 257 439 256 b 464 251 451 251 458 251 b 501 264 481 251 493 256 b 515 299 511 271 515 283 l 515 417 l 499 417 z m 494 331 b 483 318 492 325 488 321 b 467 314 479 315 474 314 b 444 325 457 314 449 317 b 438 353 440 332 438 342 l 438 356 b 444 389 438 368 439 381 b 468 401 450 397 457 401 b 485 397 474 401 479 400 b 496 385 489 394 492 390 l 496 331 z m 646 353 b 635 324 646 340 643 331 b 607 314 628 317 618 314 b 579 324 596 314 586 317 b 569 353 574 331 569 340 l 569 458 l 547 458 l 547 351 b 564 310 547 335 553 319 b 607 296 575 300 589 296 b 651 310 625 296 640 300 b 668 351 663 319 668 333 l 668 458 l 646 458 z m 753 419 b 733 414 746 419 739 417 b 719 401 728 411 722 407 l 715 417 l 699 417 l 699 254 l 721 254 l 721 311 b 735 300 724 306 729 303 b 754 296 740 297 747 296 b 788 313 768 296 779 301 b 800 353 796 322 800 336 l 800 356 b 788 401 800 375 796 390 b 753 419 779 414 768 419 z m 779 353 b 771 324 779 342 776 332 b 747 313 765 317 758 313 b 731 317 742 313 735 314 b 721 328 726 318 722 324 l 721 385 b 731 396 724 390 726 394 b 747 401 735 399 740 401 b 769 388 757 401 764 396 b 778 356 775 379 778 368 l 778 353 z m 1011 822 b 860 972 1011 917 954 972 b 222 972 647 972 435 972 b 69 821 126 972 69 917 b 69 488 69 710 69 599 b 69 149 69 375 69 261 b 218 1 71 58 128 1 b 861 1 433 1 647 1 b 1011 150 954 1 1011 57 b 1011 822 1013 374 1013 599 z m 217 803 b 215 326 217 644 217 485 b 199 285 215 313 208 294 b 100 178 168 247 133 213 b 93 179 99 179 96 179 b 93 206 93 189 93 197 b 93 819 93 410 93 615 b 224 949 93 903 139 949 b 772 942 407 949 589 949 b 714 935 753 939 733 935 b 349 933 592 933 469 935 b 217 803 265 935 217 886 z m 831 304 b 729 201 831 239 793 201 b 342 201 600 201 471 201 b 242 301 281 201 242 240 b 242 807 242 469 242 639 b 336 908 242 867 278 907 b 738 908 471 910 604 910 b 832 808 796 907 832 867 b 832 553 832 724 832 638 b 831 304 831 471 831 388 z "},"w":{"ha":3211,"x_min":0,"x_max":0,"o":"m 1358 388 b 1329 400 1344 392 1336 394 b 1321 417 1324 404 1321 410 b 1329 435 1321 424 1324 431 b 1351 443 1335 440 1342 443 b 1376 433 1361 443 1369 440 b 1386 411 1382 428 1386 421 l 1407 411 l 1407 413 b 1393 446 1407 425 1403 436 b 1351 460 1383 456 1369 460 b 1314 447 1336 460 1324 456 b 1299 415 1304 439 1299 429 b 1313 386 1299 404 1303 394 b 1350 368 1321 379 1335 374 b 1378 356 1364 365 1374 361 b 1386 338 1383 351 1386 344 b 1376 319 1386 329 1383 324 b 1353 313 1371 315 1363 313 b 1328 321 1343 313 1335 315 b 1317 344 1319 326 1317 335 l 1296 344 l 1296 343 b 1313 308 1296 329 1300 317 b 1354 296 1325 300 1338 296 b 1393 308 1369 296 1383 300 b 1408 339 1404 315 1408 326 b 1396 368 1408 351 1404 361 b 1358 388 1388 376 1375 383 z m 1490 419 b 1469 414 1482 419 1475 417 b 1456 401 1464 411 1458 407 l 1451 417 l 1435 417 l 1435 254 l 1457 254 l 1457 311 b 1471 300 1461 306 1465 303 b 1490 296 1476 297 1483 296 b 1524 313 1504 296 1515 301 b 1536 353 1532 322 1536 336 l 1536 356 b 1524 401 1536 375 1532 390 b 1490 419 1515 414 1504 419 z m 1514 353 b 1506 324 1514 342 1511 332 b 1483 313 1501 317 1493 313 b 1467 317 1476 313 1471 314 b 1456 328 1463 318 1458 324 l 1456 385 b 1467 396 1458 390 1463 394 b 1482 401 1471 399 1476 401 b 1506 388 1493 401 1500 396 b 1514 356 1511 381 1514 368 z m 1654 322 l 1654 379 b 1642 408 1654 392 1650 401 b 1610 419 1633 415 1624 419 b 1578 408 1597 419 1585 415 b 1565 385 1569 401 1564 393 l 1565 383 l 1585 383 b 1592 396 1585 389 1588 393 b 1610 401 1597 400 1601 401 b 1628 396 1617 401 1622 400 b 1633 379 1632 392 1633 386 l 1633 367 l 1610 367 b 1572 357 1594 367 1582 364 b 1560 331 1564 351 1560 343 b 1569 304 1560 319 1563 311 b 1597 294 1575 299 1585 294 b 1618 300 1604 294 1611 297 b 1633 315 1625 304 1631 308 b 1635 307 1633 313 1633 310 b 1636 297 1636 304 1636 300 l 1658 297 b 1657 308 1657 300 1657 304 b 1654 322 1657 314 1654 318 z m 1633 335 b 1621 321 1631 329 1628 325 b 1600 315 1615 317 1608 315 b 1586 319 1593 315 1589 317 b 1581 332 1583 322 1581 326 b 1589 347 1581 338 1583 343 b 1610 354 1593 353 1600 354 l 1633 354 z m 1710 390 b 1733 401 1714 397 1722 401 b 1750 394 1740 401 1746 400 b 1757 375 1756 389 1757 383 l 1776 375 l 1776 376 b 1765 406 1776 388 1774 397 b 1733 418 1757 414 1746 418 b 1694 401 1717 418 1704 413 b 1681 358 1686 390 1681 375 l 1681 354 b 1694 313 1681 338 1686 324 b 1733 294 1704 300 1717 294 b 1765 307 1746 294 1756 299 b 1778 333 1774 315 1778 324 l 1778 335 l 1758 335 b 1751 318 1758 328 1757 322 b 1735 311 1746 314 1740 311 b 1711 324 1724 311 1715 315 b 1704 353 1707 332 1704 342 l 1704 357 b 1710 390 1703 372 1706 382 z m 1850 419 b 1814 403 1835 419 1824 414 b 1799 361 1804 392 1799 376 l 1799 356 b 1813 314 1799 338 1803 324 b 1853 297 1822 303 1835 297 b 1878 301 1863 297 1871 299 b 1894 313 1885 304 1890 307 l 1886 326 b 1872 318 1882 322 1876 319 b 1853 315 1867 315 1860 315 b 1828 326 1842 315 1833 318 b 1821 356 1824 333 1821 343 l 1896 356 l 1896 367 b 1883 407 1896 383 1892 396 b 1850 419 1875 417 1865 419 z m 1875 371 l 1822 371 l 1822 372 b 1831 394 1822 381 1825 388 b 1850 403 1836 400 1842 403 b 1869 394 1858 403 1865 400 b 1875 374 1872 390 1875 382 z m 3140 822 b 2989 972 3140 917 3083 972 b 204 972 2776 972 417 972 b 51 821 107 972 51 917 b 51 488 51 710 51 599 b 51 149 51 375 51 261 b 200 1 53 58 110 1 b 2992 1 415 1 2776 1 b 3140 150 3085 1 3140 57 b 3140 822 3140 374 3140 599 z m 197 803 b 197 326 197 644 197 485 b 181 285 197 313 190 294 b 82 178 149 247 114 213 b 75 179 79 179 76 179 b 75 206 75 189 75 197 b 75 819 75 410 75 615 b 204 949 75 903 121 949 b 2901 942 388 949 2718 949 b 2842 935 2882 939 2861 935 b 328 933 2719 933 450 935 b 197 803 246 935 199 886 z m 2960 304 b 2858 201 2960 239 2922 201 b 324 201 2729 201 453 201 b 222 301 261 201 222 240 b 222 807 222 469 222 639 b 318 908 222 867 260 907 b 2867 908 453 910 2733 910 b 2961 808 2924 907 2961 867 b 2961 553 2961 724 2961 638 b 2960 304 2960 471 2960 388 z "},"x":{"ha":1208,"x_min":0,"x_max":0,"o":"m 335 388 b 307 400 322 392 313 394 b 297 417 301 404 297 410 b 306 435 297 424 301 431 b 329 443 311 440 319 443 b 353 433 339 443 347 440 b 363 411 360 428 363 421 l 383 411 l 383 413 b 369 446 383 425 379 436 b 329 460 360 456 346 460 b 292 447 314 460 301 456 b 276 415 282 439 276 429 b 290 386 276 404 281 394 b 328 368 299 379 311 374 b 356 356 340 365 350 361 b 363 338 361 351 363 344 b 354 319 363 329 360 324 b 331 313 349 315 340 313 b 304 321 321 313 313 315 b 293 344 297 326 293 335 l 272 344 l 272 343 b 290 308 272 329 278 317 b 331 296 301 300 315 296 b 371 308 347 296 360 300 b 385 339 381 317 385 326 b 372 368 385 351 381 361 b 335 388 364 376 351 383 z m 436 390 b 458 401 440 397 449 401 b 476 394 467 401 472 400 b 483 375 481 389 483 383 l 503 375 l 503 376 b 490 406 503 388 499 397 b 458 418 482 414 471 418 b 421 401 442 418 429 413 b 407 358 411 390 407 375 l 407 354 b 421 313 407 338 411 324 b 460 294 429 300 442 294 b 490 307 471 294 482 299 b 504 333 500 315 504 324 l 504 335 l 485 335 b 478 318 485 328 482 322 b 460 311 472 314 467 311 b 438 324 450 311 442 315 b 429 353 432 332 429 342 l 429 357 b 436 390 429 372 431 382 z m 579 419 b 563 414 574 419 568 417 b 550 400 557 410 554 406 l 547 417 l 528 417 l 528 299 l 550 299 l 550 383 b 558 394 553 388 556 392 b 574 397 563 396 568 397 l 585 397 l 588 417 b 583 418 586 417 585 418 b 579 419 582 418 582 419 z m 651 419 b 615 403 638 419 625 414 b 601 361 606 392 601 376 l 601 356 b 615 314 601 338 606 324 b 654 297 625 303 638 297 b 681 301 664 297 672 299 b 696 313 688 304 693 307 l 689 326 b 674 318 685 322 679 319 b 654 315 669 317 663 315 b 631 326 644 315 636 318 b 622 356 625 333 622 343 l 699 356 l 699 367 b 686 407 699 383 694 396 b 651 419 678 417 667 419 z m 676 371 l 624 371 l 624 372 b 633 394 625 381 628 388 b 651 403 638 400 644 403 b 671 394 661 403 667 400 b 676 374 675 390 676 382 z m 769 419 b 733 403 754 419 743 414 b 718 361 724 392 718 376 l 718 356 b 732 314 718 338 722 324 b 772 297 742 303 754 297 b 797 301 782 297 790 299 b 814 313 806 304 810 307 l 806 326 b 792 318 801 322 797 319 b 772 315 786 317 779 315 b 749 326 761 315 753 318 b 740 356 743 333 740 343 l 815 356 l 815 367 b 803 407 815 383 811 396 b 769 419 796 417 785 419 z m 794 371 l 742 371 l 742 372 b 750 394 742 381 744 388 b 769 403 756 400 761 403 b 789 394 778 403 785 400 b 794 374 792 390 794 382 z m 897 419 b 876 414 889 419 883 417 b 861 399 871 410 865 406 l 860 417 l 840 417 l 840 299 l 863 299 l 863 386 b 874 397 865 392 869 394 b 890 401 878 401 885 401 b 910 394 899 401 906 400 b 915 372 914 390 915 383 l 915 299 l 938 299 l 938 374 b 926 407 938 389 933 400 b 897 419 919 415 910 419 z m 476 564 b 490 599 486 572 490 585 b 476 633 490 613 486 625 b 438 646 467 642 454 646 l 375 646 l 375 488 l 397 488 l 397 551 l 438 551 b 476 564 454 550 468 556 z m 399 629 l 438 629 b 461 619 449 629 457 626 b 469 597 467 614 469 607 b 461 576 469 589 467 581 b 438 567 457 571 449 567 l 399 567 z m 538 571 b 546 582 539 576 543 581 b 560 586 550 586 556 586 l 572 586 l 575 606 b 571 607 574 606 572 607 b 567 607 569 607 568 607 b 549 601 560 607 554 606 b 536 588 544 599 540 594 l 535 606 l 515 606 l 515 488 l 536 488 l 536 571 z m 618 636 l 618 657 l 596 657 l 596 636 z m 618 488 l 618 606 l 596 606 l 596 488 z m 725 561 l 725 488 l 747 488 l 747 561 b 738 596 747 578 743 589 b 707 607 731 604 719 607 b 686 601 700 607 693 606 b 672 588 681 599 675 594 l 671 606 l 651 606 l 651 488 l 672 488 l 672 575 b 683 586 675 579 679 582 b 701 589 689 589 694 589 b 719 582 710 589 715 588 b 725 561 724 579 725 571 z m 825 503 b 821 501 824 503 822 501 b 811 506 817 501 814 503 b 808 518 810 508 808 511 l 808 589 l 831 589 l 831 606 l 808 606 l 808 633 l 786 633 l 786 606 l 768 606 l 768 589 l 786 589 l 786 518 b 793 493 786 507 789 499 b 815 485 799 488 806 485 b 824 486 818 485 821 485 b 831 489 826 488 829 489 l 828 504 b 825 503 828 503 826 503 z m 1139 822 b 988 972 1139 917 1082 972 b 222 972 775 972 435 972 b 69 821 126 972 69 917 b 69 488 69 710 69 599 b 69 149 69 375 69 261 b 218 1 71 58 128 1 b 989 1 433 1 774 1 b 1139 150 1082 1 1139 57 b 1139 822 1139 374 1139 599 z m 217 803 b 215 326 217 644 217 485 b 199 285 215 313 208 294 b 100 178 168 247 133 213 b 93 179 99 179 96 179 b 93 206 93 189 93 197 b 93 819 93 410 93 615 b 224 949 93 903 139 949 b 900 942 407 949 715 949 b 840 935 881 939 860 935 b 349 933 719 933 469 935 b 217 803 265 935 217 886 z m 958 304 b 857 201 958 239 919 201 b 342 201 728 201 471 201 b 242 301 281 201 242 240 b 242 807 242 469 242 639 b 336 908 242 867 278 907 b 865 908 471 910 731 910 b 958 808 922 907 958 867 b 958 553 960 724 958 638 b 958 304 958 471 958 388 z "},"y":{"ha":1082,"x_min":0,"x_max":0,"o":"m 1011 822 b 860 972 1011 917 954 972 b 222 972 647 972 435 972 b 69 821 126 972 69 917 b 69 488 69 710 69 599 b 69 149 69 375 69 261 b 218 1 71 58 128 1 b 861 1 433 1 647 1 b 1011 150 954 1 1011 57 b 1011 822 1013 374 1013 599 z m 217 803 b 215 326 217 644 217 485 b 199 285 215 313 208 294 b 100 178 168 247 133 213 b 93 179 99 179 96 179 b 93 206 93 189 93 197 b 93 819 93 410 93 615 b 224 949 93 903 139 949 b 772 942 407 949 589 949 b 714 935 753 939 733 935 b 349 933 592 933 469 935 b 217 803 265 935 217 886 z m 831 304 b 729 201 831 239 793 201 b 342 201 600 201 471 201 b 242 301 281 201 242 240 b 242 807 242 469 242 639 b 336 908 242 867 278 907 b 738 908 471 910 604 910 b 832 808 796 907 832 867 b 832 553 832 724 832 638 b 831 304 831 471 831 388 z m 719 668 b 692 664 711 667 701 665 b 649 658 678 663 664 660 b 606 653 635 656 621 654 b 567 646 593 650 579 649 b 528 640 554 644 540 643 b 526 639 526 640 526 640 b 526 499 526 592 526 546 b 528 496 526 496 526 496 b 613 497 556 496 583 497 b 713 497 646 497 679 497 b 722 497 715 497 719 497 b 722 500 722 499 722 499 b 722 667 722 556 722 611 b 722 669 722 668 722 668 b 719 668 721 668 719 668 z m 525 474 b 525 344 525 431 525 388 b 525 333 525 342 525 338 b 526 332 525 332 525 332 b 531 332 528 332 529 332 b 565 326 543 329 554 328 b 604 321 578 325 592 322 b 639 317 615 319 626 318 b 675 311 651 315 664 313 b 710 306 686 310 699 308 b 722 304 714 306 718 306 b 722 475 722 361 722 419 b 525 475 656 475 592 475 b 525 474 525 475 525 475 z m 360 476 b 360 419 360 457 360 439 b 360 357 360 399 360 378 b 361 356 360 357 360 356 b 374 354 365 354 369 354 b 414 349 388 353 400 350 b 454 343 428 347 440 344 b 488 338 465 342 476 339 b 507 335 494 338 500 336 b 507 478 507 383 507 431 b 358 479 457 478 408 479 b 360 476 360 478 360 478 z m 360 615 b 360 567 360 599 360 583 b 360 496 360 543 360 519 b 361 493 360 494 360 493 l 363 493 b 422 494 382 493 403 493 b 506 494 450 494 478 494 b 507 494 506 494 507 494 b 507 638 507 543 507 590 b 358 618 457 631 408 625 b 360 615 360 615 360 615 z "},"z":{"ha":3228,"x_min":0,"x_max":0,"o":"m 540 504 b 535 507 539 506 538 507 b 524 500 531 507 525 504 b 499 331 522 490 499 331 l 481 401 b 474 419 479 407 476 414 b 463 426 471 424 467 426 b 451 418 458 426 454 424 b 446 397 449 411 447 404 l 428 335 l 407 485 b 401 503 406 492 406 499 b 393 507 399 506 396 507 b 382 499 388 507 382 503 l 382 497 b 385 464 382 486 383 475 l 410 275 b 424 257 411 267 413 257 b 439 275 435 257 436 267 l 464 361 l 486 278 b 494 260 488 271 490 265 b 503 257 497 258 500 257 b 513 264 507 257 511 258 b 517 283 514 269 515 276 l 546 496 l 546 497 b 540 504 546 499 542 503 z m 726 504 b 721 507 725 506 724 507 b 710 500 717 507 711 504 b 685 331 708 490 685 331 l 668 401 b 660 419 667 407 664 414 b 650 425 657 424 654 425 b 639 417 646 425 640 422 b 632 396 636 411 635 404 l 615 333 l 593 485 b 589 503 592 490 593 497 b 581 506 586 504 583 506 b 568 497 574 506 568 503 l 568 496 b 572 464 568 485 571 474 l 597 275 b 610 256 599 267 599 256 l 611 256 b 626 274 621 256 622 267 l 650 360 l 674 276 b 682 260 675 271 676 264 b 690 256 685 257 688 256 b 699 264 694 256 697 258 b 704 282 701 269 703 276 l 733 494 l 733 496 b 726 504 732 499 728 503 z m 913 504 b 907 507 911 506 910 507 b 897 500 903 507 897 504 b 871 331 894 490 871 331 l 853 401 b 846 419 851 407 850 414 b 835 426 843 424 839 426 b 824 418 831 426 826 424 b 818 397 821 411 821 404 l 800 335 l 781 485 b 775 503 778 490 779 497 b 767 506 772 504 769 506 b 754 497 761 506 754 503 l 754 496 b 758 464 754 485 757 474 l 783 275 b 796 256 785 267 785 256 l 797 256 b 813 274 807 256 810 267 l 836 360 l 860 276 b 868 260 861 271 863 264 b 876 256 871 257 874 256 b 885 264 881 256 883 258 b 890 282 888 269 889 276 l 919 494 l 919 496 b 913 504 918 499 914 503 z m 943 276 b 932 264 936 275 932 271 b 943 254 933 257 938 254 b 956 265 951 254 956 258 b 943 276 954 274 950 276 z m 1147 278 b 1076 278 1144 278 1121 278 b 1036 279 1058 278 1046 278 b 1028 281 1033 279 1031 279 l 1033 288 b 1057 317 1038 293 1049 308 l 1083 342 b 1113 372 1096 353 1106 364 b 1149 449 1136 397 1147 424 l 1149 450 b 1132 490 1149 465 1143 479 b 1096 507 1122 501 1108 507 b 1064 499 1086 507 1075 504 b 1013 454 1044 489 1026 474 b 1010 447 1011 453 1010 450 l 1010 446 b 1015 439 1010 443 1011 440 b 1022 436 1017 436 1019 436 l 1024 436 b 1031 440 1026 436 1029 438 b 1075 478 1043 457 1057 469 b 1096 482 1083 481 1089 482 b 1118 472 1104 482 1113 479 b 1126 463 1122 469 1125 465 b 1128 453 1128 460 1128 456 l 1128 449 b 1097 388 1126 431 1117 410 b 1069 358 1092 381 1082 371 l 1043 333 b 1024 311 1035 325 1028 317 b 1007 288 1018 306 1010 292 b 1004 276 1006 283 1004 279 b 1008 265 1004 271 1006 268 b 1015 260 1010 263 1011 261 b 1021 258 1017 258 1019 258 b 1036 257 1025 257 1031 257 b 1078 256 1046 256 1060 256 b 1146 256 1142 256 1143 256 l 1147 256 b 1154 257 1150 256 1153 256 b 1158 265 1156 260 1157 261 l 1158 267 b 1156 274 1158 269 1157 271 b 1147 278 1153 275 1151 276 z m 1243 499 b 1238 506 1242 501 1240 504 b 1232 507 1235 507 1233 507 b 1228 507 1231 507 1229 507 b 1222 500 1225 504 1222 503 b 1203 469 1217 489 1210 478 b 1183 451 1196 463 1190 456 l 1181 450 b 1172 438 1176 446 1172 443 b 1174 431 1172 435 1172 433 b 1182 426 1176 428 1179 426 b 1222 460 1196 426 1211 444 b 1221 268 1222 460 1221 271 b 1224 260 1221 265 1221 261 b 1231 257 1225 257 1228 257 b 1239 260 1233 257 1238 258 b 1242 268 1242 261 1242 265 b 1243 494 1242 268 1244 474 z m 1406 278 b 1335 278 1401 278 1378 278 b 1293 279 1317 278 1303 278 b 1286 281 1290 279 1288 279 l 1290 288 b 1315 317 1294 293 1307 308 l 1340 342 b 1369 372 1353 353 1363 364 b 1406 449 1393 397 1406 424 l 1406 450 b 1389 490 1406 465 1400 479 b 1353 507 1379 501 1367 507 b 1321 499 1343 507 1332 504 b 1269 454 1301 489 1283 474 b 1268 447 1268 453 1268 450 l 1268 446 b 1272 439 1268 443 1269 440 b 1279 436 1274 436 1276 436 l 1281 436 b 1288 440 1283 436 1286 438 b 1332 478 1300 457 1315 469 b 1354 482 1340 481 1347 482 b 1376 472 1361 482 1369 479 b 1383 463 1379 469 1383 465 b 1385 453 1385 460 1385 456 l 1385 449 b 1356 388 1385 431 1375 410 b 1328 358 1349 381 1339 371 l 1300 333 b 1281 311 1292 325 1286 317 b 1264 288 1276 306 1267 292 b 1261 276 1263 283 1261 279 b 1265 265 1261 271 1263 268 b 1272 260 1267 263 1269 261 b 1279 258 1274 258 1276 258 b 1293 257 1282 257 1288 257 b 1336 256 1303 256 1317 256 b 1403 256 1399 256 1400 256 l 1404 256 b 1411 257 1407 256 1410 256 b 1415 265 1414 260 1415 261 l 1415 267 b 1414 274 1415 269 1415 271 b 1406 278 1410 275 1408 276 z m 1500 329 l 1447 331 l 1449 451 b 1474 483 1450 481 1451 483 l 1493 483 b 1539 486 1508 483 1524 485 b 1553 496 1544 488 1553 488 l 1553 499 b 1540 506 1553 503 1546 504 b 1485 507 1531 507 1506 507 b 1457 507 1472 507 1461 507 b 1425 467 1435 503 1425 489 l 1424 272 b 1433 254 1424 264 1426 254 b 1442 258 1435 254 1438 256 b 1444 267 1443 260 1443 265 b 1444 279 1444 268 1444 279 b 1447 306 1444 304 1447 306 b 1460 310 1449 308 1453 310 l 1497 308 b 1513 314 1499 308 1510 308 b 1514 319 1514 317 1514 318 b 1513 325 1514 322 1513 324 b 1500 329 1510 329 1501 329 z m 1669 486 b 1621 507 1654 500 1638 507 b 1569 481 1603 507 1585 499 b 1532 375 1544 454 1532 414 b 1558 288 1532 343 1540 311 b 1621 253 1575 264 1599 253 b 1683 285 1643 253 1667 264 b 1713 374 1706 311 1711 344 b 1669 486 1714 419 1703 457 z m 1690 365 b 1679 314 1690 351 1686 332 b 1628 276 1669 292 1653 278 l 1624 276 b 1569 311 1597 276 1581 289 b 1554 376 1560 333 1554 356 b 1579 454 1554 404 1563 429 b 1625 485 1592 475 1608 485 b 1672 451 1642 485 1660 474 b 1692 368 1688 428 1690 401 l 1692 365 z m 1876 503 b 1865 500 1872 503 1868 503 b 1861 488 1861 496 1861 492 l 1861 482 l 1860 314 l 1781 489 b 1767 504 1776 494 1775 504 b 1763 503 1765 504 1764 504 b 1753 482 1751 500 1753 490 l 1749 279 l 1749 276 b 1753 260 1749 271 1749 265 b 1764 254 1756 257 1758 254 l 1765 254 b 1774 265 1772 256 1774 260 b 1776 432 1774 269 1776 432 l 1850 271 b 1865 256 1853 264 1857 256 b 1869 256 1867 256 1868 256 b 1881 278 1879 257 1881 269 b 1883 485 1883 471 1883 485 l 1883 490 b 1876 503 1885 496 1881 501 z m 2051 507 l 1928 507 b 1907 501 1921 507 1913 507 b 1903 496 1904 500 1903 499 l 1903 494 b 1910 485 1903 493 1903 488 b 1961 482 1917 483 1953 483 b 1976 468 1975 481 1976 481 l 1972 283 b 1972 268 1972 276 1972 271 b 1985 254 1974 260 1975 256 b 1997 267 1990 254 1994 258 b 2000 297 2000 276 2000 286 l 2001 460 b 2022 482 2003 479 2007 482 l 2051 483 b 2074 497 2061 485 2071 485 b 2051 507 2074 503 2067 507 z m 2135 508 b 2081 472 2110 508 2092 493 b 2074 443 2076 463 2074 453 b 2089 404 2074 431 2079 417 b 2139 367 2103 388 2122 381 b 2167 315 2157 351 2167 333 b 2154 286 2167 304 2164 294 b 2132 276 2147 279 2139 276 b 2094 306 2118 276 2104 286 b 2086 308 2093 308 2089 308 b 2076 306 2083 308 2079 308 b 2071 297 2074 304 2071 300 b 2074 289 2071 296 2072 293 b 2128 250 2083 268 2104 254 b 2188 286 2161 250 2176 264 b 2194 317 2192 296 2194 307 b 2175 364 2194 333 2188 349 b 2132 397 2163 378 2146 386 b 2096 443 2106 414 2096 429 b 2106 468 2096 451 2100 460 b 2131 483 2111 476 2119 483 b 2175 460 2142 483 2156 476 b 2190 450 2178 456 2185 450 b 2193 451 2192 450 2193 450 b 2200 461 2199 454 2200 457 b 2197 469 2200 463 2200 465 b 2135 508 2190 488 2161 508 z m 2229 276 b 2217 264 2221 275 2217 271 b 2228 254 2218 257 2222 254 l 2229 254 b 2240 265 2236 254 2240 258 b 2229 276 2239 274 2235 276 z m 2438 356 l 2436 356 b 2428 351 2433 356 2431 354 b 2418 328 2424 344 2421 336 b 2394 289 2414 313 2406 300 b 2365 278 2386 281 2375 278 b 2338 293 2356 278 2346 283 b 2319 332 2328 304 2322 318 b 2314 386 2314 350 2314 368 l 2314 400 b 2344 467 2314 424 2326 449 b 2374 481 2354 476 2364 481 b 2410 463 2386 481 2400 476 b 2421 436 2414 454 2418 447 b 2429 431 2424 433 2426 431 b 2433 431 2431 431 2432 431 b 2440 443 2439 433 2440 439 l 2440 444 b 2428 479 2440 458 2435 469 b 2378 508 2418 494 2400 508 b 2351 501 2369 508 2360 507 b 2318 474 2338 494 2328 485 b 2288 376 2294 444 2289 410 l 2288 372 b 2315 281 2288 338 2297 307 b 2367 251 2329 261 2349 251 b 2417 278 2385 251 2403 260 b 2443 335 2431 294 2438 314 b 2444 340 2444 336 2444 338 l 2444 346 b 2438 356 2444 351 2440 354 z m 2604 486 b 2556 507 2589 500 2572 507 b 2504 481 2538 507 2519 499 b 2467 375 2479 454 2467 414 b 2493 288 2467 343 2475 311 b 2556 253 2510 264 2533 253 b 2618 285 2579 253 2601 264 b 2647 374 2640 311 2646 344 b 2604 486 2649 419 2638 457 z m 2625 365 b 2613 314 2625 351 2621 332 b 2561 276 2603 292 2588 278 l 2557 276 b 2504 311 2532 276 2514 289 b 2488 376 2493 333 2488 356 b 2513 454 2488 404 2496 429 b 2560 485 2526 475 2543 485 b 2607 451 2576 485 2593 474 b 2625 368 2621 428 2625 401 z m 2829 506 b 2814 488 2822 506 2815 493 b 2776 396 2800 457 2789 426 l 2765 371 l 2717 492 b 2699 508 2713 500 2708 508 l 2696 508 b 2682 493 2689 507 2682 500 l 2682 269 b 2693 253 2682 263 2685 253 l 2694 253 b 2704 269 2703 253 2704 263 l 2707 433 b 2708 435 2707 435 2707 435 b 2710 435 2708 435 2708 435 b 2746 353 2739 367 2746 353 b 2761 335 2749 344 2753 336 l 2764 335 b 2782 354 2775 335 2779 346 b 2815 433 2789 369 2808 417 b 2817 435 2815 435 2815 435 b 2818 433 2817 435 2818 433 l 2818 422 l 2817 268 b 2828 251 2817 261 2819 251 l 2829 251 b 2839 269 2838 251 2839 261 b 2840 492 2839 306 2840 483 b 2836 500 2840 494 2839 499 b 2829 506 2835 504 2832 506 z m 417 619 b 410 624 417 621 415 622 l 363 622 l 340 622 b 363 660 347 636 353 647 b 403 771 375 679 403 733 b 368 808 403 792 394 807 b 331 783 356 808 340 796 b 328 775 328 781 328 778 b 331 772 328 774 329 772 b 335 775 332 772 333 772 b 367 796 343 785 358 796 l 368 796 b 379 778 376 794 379 788 b 376 760 379 772 378 765 b 340 681 374 742 358 708 b 317 621 324 653 317 633 b 318 615 317 618 317 617 b 353 608 322 610 336 608 b 408 611 371 608 393 610 b 417 619 414 613 417 617 z m 446 610 b 460 633 460 611 460 625 b 464 775 460 653 464 728 b 463 800 464 785 464 793 b 454 806 463 803 457 806 l 451 806 b 443 804 449 806 446 806 b 435 749 435 796 436 765 b 432 672 433 736 432 678 l 432 656 b 446 610 432 636 433 610 z m 576 619 b 569 624 576 621 575 622 l 522 622 l 500 622 b 521 660 507 636 513 647 b 563 771 533 679 563 733 b 528 808 563 792 553 807 b 490 783 515 808 500 796 b 486 775 488 781 486 778 b 490 772 486 774 489 772 b 494 775 492 772 493 772 b 526 796 503 785 518 796 l 528 796 b 539 778 535 794 539 788 b 536 760 539 772 538 765 b 500 681 532 742 518 708 b 475 622 483 653 475 633 b 478 615 475 619 476 617 b 511 610 482 611 494 610 b 568 613 531 610 553 611 b 576 619 574 613 576 617 z m 1446 732 b 1446 728 1446 731 1446 729 b 1443 706 1444 717 1443 713 b 1440 667 1442 693 1440 679 b 1446 632 1440 656 1442 644 b 1471 610 1451 621 1457 610 b 1501 643 1486 610 1494 631 b 1501 644 1501 643 1501 643 b 1528 613 1507 631 1515 618 b 1556 624 1539 607 1550 615 b 1574 660 1565 635 1569 647 b 1578 667 1575 663 1576 665 b 1600 615 1579 649 1585 626 b 1621 611 1604 611 1614 608 b 1660 689 1647 625 1653 664 b 1661 696 1661 692 1661 693 b 1649 697 1660 703 1653 703 b 1646 689 1647 694 1647 692 b 1618 626 1638 660 1629 629 b 1613 628 1617 626 1614 628 b 1601 660 1606 638 1603 649 b 1600 708 1600 672 1600 694 b 1611 718 1600 708 1610 717 b 1636 751 1622 729 1629 739 b 1649 799 1643 765 1649 782 b 1629 832 1649 815 1640 831 b 1597 814 1614 836 1603 825 b 1575 733 1582 792 1576 763 b 1567 743 1572 738 1569 742 b 1533 753 1557 751 1546 757 b 1506 731 1522 750 1513 740 b 1497 696 1500 718 1499 707 b 1496 669 1496 688 1496 678 b 1494 664 1496 667 1496 665 b 1481 631 1490 647 1488 640 b 1476 628 1478 629 1478 628 l 1475 628 b 1469 631 1472 628 1471 629 b 1467 650 1467 638 1467 644 b 1468 676 1467 660 1468 668 b 1472 724 1471 693 1472 707 l 1472 729 b 1449 753 1472 744 1467 750 b 1429 756 1443 754 1436 754 b 1408 761 1424 757 1415 761 b 1401 757 1406 761 1403 761 b 1400 753 1400 756 1400 754 b 1404 744 1400 750 1401 746 l 1408 743 l 1403 708 b 1400 692 1401 704 1400 694 l 1400 690 b 1399 685 1399 689 1399 688 b 1382 635 1394 660 1389 643 b 1375 628 1379 631 1376 628 b 1367 640 1371 628 1368 632 b 1365 654 1367 644 1367 649 b 1368 743 1367 706 1367 735 b 1365 753 1368 746 1367 750 b 1356 756 1364 754 1360 756 l 1350 756 b 1339 733 1343 754 1339 747 l 1339 732 b 1329 743 1336 736 1333 740 b 1318 751 1326 746 1322 749 b 1304 754 1313 753 1308 754 b 1281 744 1297 754 1289 751 b 1260 696 1268 733 1261 717 b 1260 693 1260 694 1260 694 b 1260 686 1260 692 1260 689 b 1250 669 1258 682 1254 674 b 1243 665 1249 668 1246 667 b 1226 660 1239 663 1231 660 b 1232 700 1231 674 1232 686 l 1232 715 b 1226 742 1232 725 1231 733 b 1199 758 1222 747 1211 758 b 1185 757 1194 758 1189 757 b 1157 743 1175 754 1164 750 b 1140 717 1150 736 1143 725 b 1133 690 1138 707 1135 699 b 1133 688 1133 689 1133 689 b 1128 679 1132 685 1131 682 b 1103 663 1122 669 1113 665 b 1111 700 1107 675 1110 688 l 1111 711 b 1107 738 1111 719 1110 728 b 1075 763 1103 750 1088 761 l 1071 763 b 1046 746 1060 763 1051 756 b 1029 713 1039 736 1035 724 b 1025 701 1028 708 1026 706 b 1024 731 1025 704 1024 717 l 1024 738 b 1031 747 1024 738 1026 742 b 1057 794 1042 763 1051 776 b 1058 808 1058 799 1058 803 b 1051 829 1058 815 1057 824 b 1042 833 1049 832 1046 833 b 1031 831 1038 833 1035 832 b 1017 815 1025 828 1021 822 b 1007 793 1014 808 1010 801 b 996 693 999 761 996 726 l 996 688 b 985 658 993 676 989 668 b 967 633 974 643 979 649 l 967 636 b 968 703 967 656 968 703 l 969 724 b 971 747 971 733 971 738 b 963 761 971 754 969 760 b 958 761 961 761 960 761 b 946 749 951 761 947 756 l 943 733 b 914 631 939 696 931 665 b 907 626 913 628 910 626 b 903 631 904 626 903 628 b 896 683 899 647 897 667 b 900 740 896 703 900 719 b 888 753 900 747 894 753 b 881 751 885 753 883 753 b 874 744 878 750 874 747 b 871 717 872 739 871 726 b 871 699 871 707 871 699 b 871 693 871 697 871 694 b 871 689 871 692 871 690 b 867 676 869 685 868 681 b 839 635 861 657 850 644 b 822 626 835 631 829 626 b 817 628 821 626 819 626 b 803 649 810 632 804 640 b 800 679 801 658 800 667 b 822 689 800 679 817 686 b 844 704 831 693 838 697 b 854 728 851 711 854 719 b 844 754 854 738 850 747 b 825 763 839 760 832 763 b 803 756 817 763 810 760 b 772 699 783 744 776 719 b 771 683 771 693 771 688 b 771 676 771 682 771 678 b 756 628 763 647 757 632 b 750 624 754 625 751 624 b 736 635 744 624 740 631 b 696 699 726 643 711 682 b 717 713 700 703 714 710 b 743 742 728 721 738 731 b 754 771 747 750 751 758 b 757 789 756 775 757 782 b 749 800 757 793 756 799 l 750 800 b 735 776 738 800 736 786 b 714 729 733 760 725 740 b 693 715 707 724 700 718 b 674 711 692 714 676 711 l 672 711 l 676 781 b 674 803 676 790 675 799 b 665 810 674 807 668 810 l 663 810 b 656 808 660 810 657 810 b 647 753 647 800 649 769 l 644 657 b 657 610 644 638 646 610 l 658 610 b 671 633 669 611 671 625 l 672 685 b 697 654 685 683 693 664 l 713 631 b 746 607 722 617 729 607 l 749 607 b 758 608 753 607 756 607 b 771 624 764 613 768 617 b 778 643 774 629 776 636 l 781 647 b 783 639 781 644 782 640 b 822 608 789 622 804 608 b 836 613 826 608 832 610 b 875 654 853 621 865 636 b 878 638 875 649 876 643 b 882 622 879 633 881 626 b 903 607 885 613 894 607 b 921 615 910 607 917 610 b 931 633 925 621 928 628 b 940 660 933 642 938 650 b 942 617 942 629 942 644 b 942 614 942 615 942 614 b 938 610 942 614 940 611 b 919 596 931 606 924 600 b 903 576 915 592 906 581 b 893 550 899 568 894 560 b 893 542 893 547 893 544 b 894 532 893 539 893 536 b 908 514 897 524 901 518 b 921 511 913 513 917 511 b 929 513 924 511 926 513 b 947 526 936 515 942 519 b 958 543 951 532 956 538 b 968 604 968 563 968 585 l 968 611 l 972 615 b 986 633 978 621 982 628 b 996 647 990 638 993 643 b 1001 656 999 650 1000 653 b 1013 617 1004 643 1007 629 b 1021 607 1015 611 1017 607 b 1028 610 1024 607 1025 607 b 1031 610 1029 610 1029 610 b 1036 608 1032 610 1035 610 b 1049 607 1040 607 1044 607 b 1071 615 1057 607 1064 610 b 1099 646 1082 622 1092 633 b 1136 663 1113 647 1126 653 b 1149 632 1138 653 1142 643 b 1183 611 1157 618 1171 611 b 1217 632 1194 611 1208 618 b 1222 642 1219 635 1221 639 b 1225 642 1224 642 1225 642 b 1261 658 1240 643 1251 649 b 1263 649 1261 656 1263 653 b 1274 626 1265 642 1269 635 b 1292 608 1278 618 1285 613 b 1299 607 1293 607 1297 607 b 1319 619 1307 607 1314 611 b 1336 651 1326 628 1332 639 b 1340 663 1338 656 1339 658 l 1340 660 l 1342 636 b 1350 618 1344 629 1346 624 b 1367 610 1354 613 1360 610 b 1381 615 1372 610 1376 611 b 1392 628 1383 617 1388 621 b 1403 653 1396 633 1399 640 b 1411 690 1407 664 1410 676 l 1411 692 b 1413 700 1413 693 1413 696 b 1419 743 1414 706 1419 738 b 1433 742 1424 743 1429 743 b 1446 732 1443 742 1446 738 z m 1601 756 b 1613 799 1603 771 1607 785 b 1621 811 1614 803 1618 808 b 1633 796 1631 818 1633 806 b 1599 726 1635 771 1617 740 b 1601 756 1599 735 1601 751 z m 1522 693 b 1533 728 1525 704 1526 717 b 1546 736 1536 733 1540 738 b 1571 706 1563 735 1571 721 b 1556 651 1572 697 1560 663 b 1546 635 1554 647 1551 640 b 1526 633 1540 625 1531 619 b 1522 693 1521 653 1519 674 z m 1032 790 b 1042 813 1035 799 1036 806 b 1046 814 1043 814 1044 814 b 1049 811 1047 814 1049 813 l 1050 808 b 1049 799 1050 804 1049 801 b 1043 783 1047 793 1046 789 b 1036 771 1040 779 1038 775 l 1031 764 b 1026 757 1031 763 1028 760 b 1032 790 1026 768 1029 781 z m 810 721 b 822 742 813 728 815 735 b 832 746 826 744 829 746 b 844 732 839 746 844 740 l 844 729 b 831 706 844 719 839 711 b 801 690 825 701 807 693 b 810 721 801 692 806 714 z m 917 532 b 907 544 910 532 907 538 b 929 586 907 561 918 578 b 942 596 939 594 942 596 b 917 532 942 596 939 532 z m 1061 629 b 1049 624 1058 626 1051 624 b 1036 631 1043 624 1036 626 b 1039 638 1036 633 1038 635 b 1057 644 1044 642 1051 643 b 1076 646 1064 646 1071 646 b 1061 629 1072 638 1071 636 z m 1086 686 b 1086 676 1086 683 1086 679 b 1082 660 1085 672 1082 660 b 1054 656 1075 658 1060 658 b 1033 647 1050 656 1033 653 l 1033 650 b 1053 726 1033 676 1039 704 b 1060 738 1054 731 1057 735 b 1069 742 1063 740 1067 742 b 1072 742 1069 742 1071 742 b 1085 719 1079 740 1083 726 b 1086 699 1086 713 1086 706 z m 1194 631 b 1189 629 1193 629 1192 629 b 1164 651 1178 629 1167 643 b 1163 671 1163 656 1163 663 b 1186 647 1168 661 1175 653 b 1208 643 1193 644 1200 644 b 1194 631 1204 638 1200 633 z m 1221 700 b 1219 676 1221 692 1221 685 b 1214 661 1218 669 1215 668 l 1213 661 b 1193 667 1204 661 1199 664 b 1174 713 1181 674 1174 696 b 1176 731 1174 718 1174 725 b 1197 746 1181 739 1188 746 b 1203 744 1200 746 1201 746 b 1222 707 1218 739 1221 721 l 1222 700 z m 1326 660 b 1313 635 1321 649 1318 640 b 1300 625 1308 628 1304 625 b 1293 633 1297 625 1294 628 b 1288 671 1289 646 1288 658 b 1300 726 1288 693 1292 711 b 1311 736 1303 733 1308 736 b 1331 726 1319 736 1326 732 b 1338 706 1336 721 1338 714 b 1326 660 1338 693 1333 678 z m 1922 526 b 1933 544 1928 532 1931 539 b 1943 606 1943 563 1943 585 l 1943 613 l 1947 617 b 1961 635 1953 622 1957 628 b 1971 649 1965 639 1968 644 b 1989 688 1979 660 1985 674 b 1989 693 1989 689 1989 690 l 1989 694 b 1983 701 1989 699 1986 701 b 1978 697 1981 701 1979 699 b 1975 689 1976 694 1975 692 b 1963 657 1972 678 1968 668 b 1944 632 1951 642 1957 647 l 1944 635 b 1947 701 1944 656 1947 701 l 1949 724 b 1950 747 1949 733 1950 736 b 1940 761 1950 754 1949 760 b 1938 761 1939 761 1938 761 b 1924 747 1929 761 1925 756 l 1922 732 b 1892 631 1917 696 1908 664 b 1885 625 1890 628 1888 625 b 1881 631 1883 625 1882 626 b 1874 683 1876 647 1875 665 b 1878 739 1874 701 1878 718 b 1865 753 1878 747 1874 753 b 1860 751 1864 753 1861 753 b 1851 743 1856 750 1853 747 b 1850 717 1850 738 1850 726 b 1850 697 1850 707 1850 697 b 1850 693 1850 696 1850 694 b 1847 688 1849 692 1849 689 b 1843 679 1846 685 1846 682 b 1817 663 1836 669 1828 665 b 1825 700 1822 675 1825 688 l 1826 711 b 1822 738 1826 719 1825 728 b 1789 763 1817 750 1803 761 l 1786 763 b 1760 746 1775 763 1767 756 b 1744 713 1754 736 1749 724 b 1739 701 1743 708 1742 706 b 1739 731 1739 704 1739 717 l 1739 738 b 1746 747 1739 738 1742 742 b 1772 794 1757 763 1767 776 b 1774 808 1774 799 1774 803 b 1767 829 1774 815 1772 824 b 1757 833 1764 832 1760 833 b 1746 831 1753 833 1750 832 b 1732 815 1739 828 1736 822 b 1722 793 1728 808 1725 801 b 1711 693 1714 761 1711 726 l 1711 685 b 1725 619 1711 663 1717 640 b 1733 610 1728 614 1729 610 b 1740 613 1736 610 1738 610 b 1743 613 1742 613 1743 613 b 1749 611 1744 613 1747 613 b 1761 610 1753 610 1757 610 b 1783 618 1769 610 1776 613 b 1811 649 1794 625 1804 636 b 1850 667 1826 650 1840 657 b 1853 640 1851 658 1851 649 b 1857 625 1854 636 1856 629 b 1879 610 1861 615 1871 610 b 1896 618 1886 610 1892 614 b 1906 636 1901 624 1904 631 b 1915 663 1910 644 1913 654 b 1918 619 1918 633 1918 647 b 1918 617 1918 618 1918 617 b 1914 613 1918 617 1915 614 b 1896 599 1907 608 1900 603 b 1879 579 1892 594 1882 583 b 1869 553 1874 571 1871 563 b 1869 544 1869 550 1869 547 b 1871 535 1869 542 1869 539 b 1885 518 1872 528 1878 521 b 1896 514 1889 515 1893 514 b 1906 517 1900 514 1903 515 b 1922 526 1911 517 1917 521 z m 1744 790 b 1754 813 1747 799 1749 806 b 1758 814 1756 814 1757 814 b 1763 811 1760 814 1761 813 l 1763 808 b 1761 799 1763 804 1763 801 b 1756 783 1760 793 1758 789 b 1749 771 1753 779 1750 775 l 1744 764 b 1739 757 1743 763 1740 760 b 1744 790 1739 768 1742 781 z m 1774 629 b 1761 624 1772 626 1764 624 b 1749 631 1756 624 1749 626 b 1753 638 1749 633 1750 635 b 1769 644 1757 642 1764 643 b 1789 646 1776 646 1783 646 b 1774 629 1785 638 1783 636 z m 1799 686 b 1799 676 1799 683 1799 679 b 1794 660 1797 672 1794 660 b 1767 656 1788 658 1774 658 b 1746 647 1763 656 1746 653 l 1746 650 b 1765 726 1746 676 1753 704 b 1774 738 1767 731 1769 735 b 1782 742 1775 740 1779 742 b 1785 742 1783 742 1783 742 b 1797 719 1792 740 1796 726 b 1799 699 1799 713 1799 706 z m 1892 532 b 1882 544 1886 532 1882 538 b 1904 586 1882 561 1894 578 b 1918 596 1914 594 1918 596 b 1892 532 1918 596 1914 532 z m 2067 679 b 2042 621 2050 653 2042 632 b 2044 615 2042 618 2043 617 b 2078 608 2049 610 2061 608 b 2135 611 2097 608 2119 610 b 2144 618 2142 613 2144 617 b 2136 622 2144 621 2143 621 l 2089 621 l 2068 621 b 2089 660 2075 635 2079 647 b 2129 769 2101 679 2129 733 b 2094 807 2129 790 2121 806 b 2057 782 2083 807 2067 794 b 2054 775 2056 779 2054 776 b 2057 771 2054 772 2056 771 b 2061 774 2058 771 2060 772 b 2094 796 2069 785 2085 796 b 2106 776 2103 794 2106 786 b 2104 760 2106 771 2106 765 b 2067 679 2099 742 2085 708 z m 2172 610 b 2185 633 2185 611 2185 625 b 2190 775 2185 653 2190 728 b 2189 800 2190 785 2190 793 b 2181 806 2189 803 2183 806 l 2176 806 b 2169 804 2175 806 2172 806 b 2161 749 2161 796 2163 765 b 2157 672 2160 736 2157 678 l 2157 656 b 2172 610 2158 636 2160 610 z m 2294 611 b 2303 618 2300 613 2303 617 b 2296 622 2303 621 2301 621 l 2249 621 l 2226 621 b 2249 660 2233 635 2239 647 b 2289 769 2261 679 2289 733 b 2254 807 2289 790 2281 806 b 2217 782 2242 807 2226 794 b 2214 775 2214 779 2214 776 b 2217 771 2214 772 2215 771 b 2221 774 2218 771 2219 772 b 2253 796 2229 785 2244 796 l 2254 796 b 2265 776 2263 794 2265 786 b 2263 760 2265 771 2264 765 b 2226 679 2260 742 2244 707 b 2203 621 2211 653 2203 632 b 2204 615 2203 618 2203 617 b 2239 608 2208 610 2222 608 b 2294 611 2256 608 2278 611 z m 2453 728 l 2450 728 l 2403 722 l 2404 793 l 2446 799 b 2474 808 2450 799 2474 800 b 2472 813 2474 810 2474 811 b 2465 817 2471 815 2468 817 l 2379 804 b 2357 793 2374 803 2357 800 b 2358 786 2357 792 2358 790 b 2365 783 2360 785 2363 783 b 2379 789 2369 783 2376 786 l 2378 778 l 2372 649 b 2386 604 2372 629 2374 604 b 2400 628 2399 606 2400 619 b 2404 711 2400 639 2401 675 l 2454 715 b 2463 724 2460 718 2463 722 b 2453 728 2460 726 2457 728 z m 2907 699 b 2901 696 2906 699 2903 699 b 2899 690 2900 694 2900 692 b 2897 686 2899 689 2897 688 b 2893 678 2896 683 2894 679 b 2868 664 2885 669 2876 665 b 2864 682 2867 669 2865 676 b 2863 686 2864 683 2864 685 b 2856 708 2860 694 2857 701 b 2853 731 2854 717 2853 724 b 2854 750 2851 738 2853 744 b 2856 758 2856 753 2856 756 b 2853 765 2856 761 2854 764 b 2838 765 2847 767 2842 767 b 2826 754 2833 763 2829 760 b 2810 715 2818 742 2814 729 b 2810 714 2810 714 2810 714 b 2808 708 2810 713 2810 711 b 2807 706 2808 707 2808 706 b 2807 704 2807 706 2807 704 b 2806 699 2807 703 2807 701 b 2806 692 2806 694 2806 693 b 2804 686 2804 689 2804 688 b 2794 647 2800 672 2799 663 b 2775 622 2790 639 2785 624 l 2774 622 b 2761 657 2761 622 2761 650 l 2761 663 b 2763 765 2761 678 2763 728 l 2765 765 b 2803 776 2778 765 2790 771 b 2806 782 2804 778 2806 781 l 2806 783 b 2800 789 2806 786 2804 789 l 2799 789 b 2785 781 2794 786 2789 783 b 2767 776 2778 779 2774 776 l 2763 776 l 2763 793 b 2761 817 2763 806 2763 814 b 2751 824 2760 821 2756 824 l 2750 824 b 2739 819 2746 824 2742 822 b 2732 783 2732 814 2732 799 l 2728 783 b 2718 782 2725 783 2721 783 b 2708 779 2714 782 2711 781 b 2703 771 2706 776 2703 774 b 2703 769 2703 771 2703 769 b 2708 767 2706 767 2707 767 b 2713 768 2710 767 2711 767 l 2717 771 b 2728 772 2719 772 2724 772 l 2732 772 l 2732 765 b 2731 760 2732 764 2732 761 l 2724 710 l 2721 700 b 2721 694 2721 697 2721 696 b 2715 664 2719 688 2717 669 b 2700 633 2710 649 2708 640 b 2696 631 2699 632 2697 631 b 2688 665 2689 631 2688 649 b 2689 699 2688 682 2689 697 b 2690 724 2689 707 2690 715 b 2689 743 2690 731 2690 736 b 2672 758 2688 753 2681 758 b 2660 753 2668 758 2664 757 b 2649 742 2656 750 2651 746 b 2629 706 2642 731 2635 718 b 2614 667 2624 694 2618 678 b 2613 739 2613 715 2613 692 l 2613 740 b 2611 749 2613 743 2613 746 b 2604 754 2611 751 2608 754 l 2601 754 b 2592 751 2597 754 2594 753 b 2585 739 2588 747 2586 743 l 2586 692 b 2585 686 2585 690 2585 688 b 2575 668 2583 679 2581 672 b 2568 663 2574 667 2571 664 b 2551 657 2564 660 2556 657 b 2557 697 2556 671 2557 685 l 2557 714 b 2551 739 2557 722 2556 732 b 2524 756 2547 746 2536 756 b 2511 754 2519 756 2514 756 b 2482 742 2501 753 2489 747 b 2465 714 2475 735 2468 722 b 2457 676 2460 701 2457 689 b 2471 633 2457 661 2461 647 b 2506 611 2479 618 2493 611 b 2539 633 2517 611 2531 618 b 2544 643 2542 636 2543 639 b 2547 643 2546 643 2547 643 b 2585 663 2563 644 2576 650 l 2585 629 b 2590 615 2586 625 2588 619 b 2603 607 2593 610 2597 608 l 2604 607 b 2614 621 2613 607 2614 614 b 2629 676 2615 640 2622 658 b 2642 704 2633 686 2638 694 b 2654 728 2644 711 2650 721 b 2660 735 2656 731 2658 735 b 2661 733 2661 735 2661 733 b 2661 731 2661 732 2661 732 b 2660 674 2661 711 2660 693 b 2660 660 2660 668 2660 665 b 2688 608 2661 643 2664 608 b 2718 640 2704 608 2711 629 b 2729 678 2719 644 2726 663 l 2729 668 b 2735 636 2729 657 2731 647 b 2744 617 2738 629 2739 622 b 2760 608 2750 614 2754 610 b 2768 607 2764 607 2767 607 b 2778 608 2771 607 2775 607 b 2796 629 2786 613 2792 621 b 2814 685 2807 649 2808 664 b 2814 689 2814 686 2814 688 b 2814 689 2814 689 2814 689 b 2815 697 2814 692 2815 694 b 2817 703 2815 699 2817 700 b 2822 718 2818 707 2819 713 b 2826 692 2822 711 2824 701 b 2833 664 2828 682 2831 672 b 2833 663 2833 664 2833 664 b 2833 661 2833 663 2833 661 l 2833 660 b 2833 660 2833 660 2833 660 b 2832 658 2833 660 2832 658 l 2831 658 b 2817 646 2825 656 2819 650 b 2811 626 2813 640 2811 633 b 2819 608 2811 618 2814 613 b 2835 606 2824 607 2828 606 b 2849 610 2840 606 2844 607 b 2860 626 2854 614 2857 619 b 2864 646 2863 633 2864 640 l 2864 649 b 2875 651 2867 649 2871 650 b 2904 679 2888 657 2897 665 b 2906 692 2906 683 2906 688 b 2907 699 2911 697 2910 699 z m 2522 631 b 2515 629 2519 629 2518 629 b 2492 651 2504 629 2494 643 b 2489 671 2489 656 2489 663 b 2514 647 2494 661 2503 653 b 2535 643 2519 644 2526 644 b 2522 631 2531 638 2526 633 z m 2547 700 b 2546 676 2547 692 2547 685 b 2540 661 2544 669 2543 668 l 2539 661 b 2519 667 2532 661 2525 664 b 2500 713 2507 674 2500 696 b 2503 731 2500 718 2501 725 b 2524 746 2507 739 2514 746 b 2531 744 2526 746 2528 746 b 2549 707 2544 739 2547 721 l 2549 700 z m 2846 631 b 2844 629 2846 631 2844 629 b 2843 628 2844 629 2844 628 b 2836 625 2842 625 2839 625 b 2829 633 2832 626 2831 629 b 2832 642 2829 636 2831 639 b 2838 647 2833 644 2836 646 b 2840 649 2839 649 2839 649 b 2842 650 2842 649 2842 650 b 2844 651 2843 650 2843 650 l 2844 649 b 2846 640 2846 646 2846 643 b 2846 631 2846 636 2846 633 z m 3158 822 b 3008 971 3158 917 3101 971 b 222 971 2796 971 435 971 b 69 821 125 971 71 917 b 69 486 69 708 69 597 b 69 147 69 374 69 260 b 218 0 71 57 126 0 b 3010 0 433 0 2794 0 b 3158 149 3101 0 3158 56 b 3158 822 3158 374 3158 597 z m 217 801 b 215 325 217 643 217 485 b 199 283 215 311 208 294 b 100 178 168 247 133 213 b 93 179 97 178 96 179 b 93 206 93 188 93 196 b 93 818 93 410 93 614 b 224 947 94 903 140 947 b 2921 942 407 947 2738 947 b 2861 933 2901 939 2881 933 b 347 932 2739 932 469 933 b 217 801 265 933 217 885 z m 2979 303 b 2876 200 2979 239 2940 201 b 343 200 2747 200 471 200 b 242 300 281 200 242 239 b 242 806 242 469 242 638 b 338 907 242 865 278 907 b 2885 907 471 908 2751 908 b 2979 808 2943 907 2979 865 b 2979 551 2981 722 2979 638 b 2979 303 2979 469 2979 386 z "},"{":{"ha":1081,"x_min":0,"x_max":0,"o":"m 553 446 b 560 482 558 456 560 469 l 560 524 b 569 568 560 540 564 556 b 601 592 575 579 586 588 l 593 615 b 538 581 567 608 549 597 b 521 524 526 565 521 546 l 521 482 b 510 449 521 468 517 456 b 479 436 504 440 493 436 l 479 407 b 510 394 493 407 504 403 b 521 360 517 386 521 374 l 521 318 b 538 261 521 296 526 276 b 593 226 549 246 567 233 l 601 249 b 569 274 586 254 576 263 b 560 318 564 286 560 300 l 560 358 b 553 396 560 372 557 385 b 526 421 546 406 538 415 b 553 446 538 426 547 435 z m 1011 822 b 860 972 1011 917 954 972 b 222 972 647 972 435 972 b 69 821 126 972 69 917 b 69 488 69 710 69 599 b 69 149 69 375 69 261 b 218 1 71 58 128 1 b 861 1 433 1 647 1 b 1011 150 954 1 1011 57 b 1011 822 1011 374 1011 599 z m 217 803 b 215 326 217 644 217 485 b 199 285 215 313 208 294 b 100 178 168 247 133 213 b 93 179 99 179 96 179 b 93 206 93 189 93 197 b 93 819 93 410 93 615 b 224 949 93 903 139 949 b 772 942 407 949 589 949 b 714 935 753 939 733 935 b 349 933 592 933 469 935 b 217 803 265 935 217 886 z m 831 304 b 729 201 831 239 792 201 b 342 201 599 201 471 201 b 240 301 279 201 240 240 b 240 807 240 469 240 639 b 336 908 240 867 276 907 b 738 908 469 910 603 910 b 831 808 794 907 831 867 b 831 553 832 724 831 638 b 831 304 831 471 831 388 z "},"|":{"ha":1081,"x_min":0,"x_max":0,"o":"m 560 244 l 560 589 l 521 589 l 521 244 z m 1011 822 b 860 972 1011 917 954 972 b 222 972 647 972 435 972 b 69 821 126 972 69 917 b 69 488 69 710 69 599 b 69 149 69 375 69 261 b 218 1 71 58 128 1 b 861 1 433 1 647 1 b 1011 150 954 1 1011 57 b 1011 822 1011 374 1011 599 z m 217 803 b 215 326 217 644 217 485 b 199 285 215 313 208 294 b 100 178 168 247 133 213 b 93 179 99 179 96 179 b 93 206 93 189 93 197 b 93 819 93 410 93 615 b 224 949 93 903 139 949 b 772 942 407 949 589 949 b 714 935 753 939 733 935 b 349 933 592 933 469 935 b 217 803 265 935 217 886 z m 831 304 b 729 201 831 239 792 201 b 342 201 599 201 471 201 b 240 301 279 201 240 240 b 240 807 240 469 240 639 b 336 908 240 867 276 907 b 738 908 469 910 603 910 b 831 808 794 907 831 867 b 831 553 832 724 831 638 b 831 304 831 471 831 388 z "},"}":{"ha":1081,"x_min":0,"x_max":0,"o":"m 560 483 l 560 524 b 543 581 560 546 554 565 b 488 615 532 597 514 608 l 479 592 b 511 568 494 588 504 579 b 521 524 517 556 521 540 l 521 482 b 529 444 521 468 524 456 b 557 421 536 435 544 426 b 529 396 544 415 536 407 b 521 358 524 386 521 374 l 521 318 b 511 274 521 300 518 286 b 479 249 506 261 494 254 l 488 226 b 543 261 514 233 532 244 b 560 318 554 276 560 296 l 560 360 b 569 394 560 375 563 386 b 601 407 576 403 586 407 l 601 436 b 569 449 586 436 576 440 b 560 483 563 456 560 468 z m 1011 822 b 860 972 1011 917 954 972 b 222 972 647 972 435 972 b 69 821 126 972 69 917 b 69 488 69 710 69 599 b 69 149 69 375 69 261 b 218 1 71 58 128 1 b 861 1 433 1 647 1 b 1011 150 954 1 1011 57 b 1011 822 1011 374 1011 599 z m 217 803 b 215 326 217 644 217 485 b 199 285 215 313 208 294 b 100 178 168 247 133 213 b 93 179 99 179 96 179 b 93 206 93 189 93 197 b 93 819 93 410 93 615 b 224 949 93 903 139 949 b 772 942 407 949 589 949 b 714 935 753 939 733 935 b 349 933 592 933 469 935 b 217 803 265 935 217 886 z m 831 304 b 729 201 831 239 793 201 b 342 201 600 201 471 201 b 242 301 281 201 242 240 b 242 807 242 469 242 639 b 336 908 242 867 278 907 b 738 908 471 910 604 910 b 832 808 796 907 832 867 b 832 553 832 724 832 638 b 831 304 831 471 831 388 z "},"~":{"ha":1081,"x_min":0,"x_max":0,"o":"m 617 422 b 593 411 610 415 601 411 b 574 415 588 411 581 413 b 553 431 567 419 560 424 b 521 451 542 440 531 447 b 489 458 511 456 500 458 b 444 439 471 458 456 451 b 428 393 433 426 428 411 l 456 389 b 465 414 456 399 460 407 b 489 425 472 421 481 425 b 508 421 494 425 501 424 b 529 406 514 417 521 413 b 561 385 540 396 551 389 b 593 378 571 381 582 378 b 638 399 611 378 625 385 b 654 446 649 413 654 428 l 626 450 b 617 422 626 439 622 431 z m 1011 822 b 860 972 1011 917 954 972 b 222 972 647 972 435 972 b 69 821 125 972 71 917 b 69 488 69 710 69 599 b 69 149 69 374 69 261 b 218 1 71 57 126 1 b 861 1 433 1 647 1 b 1011 150 954 1 1011 57 b 1011 822 1011 374 1011 599 z m 217 803 b 215 326 217 644 217 485 b 199 285 215 313 208 294 b 100 178 168 247 133 213 b 93 179 97 179 96 179 b 93 206 93 189 93 197 b 93 819 93 410 93 615 b 224 949 94 903 140 949 b 774 942 407 949 589 949 b 714 935 754 939 733 935 b 349 933 592 933 471 935 b 217 803 265 935 217 886 z m 831 304 b 729 201 831 239 793 201 b 342 201 600 201 471 201 b 240 301 279 201 240 240 b 240 807 240 469 240 639 b 336 908 240 867 278 907 b 738 908 471 910 603 910 b 832 808 794 907 832 867 b 832 553 832 724 832 638 b 831 304 831 471 831 388 z "},"":{"ha":540,"x_min":0,"x_max":0,"o":""},"":{"ha":0,"x_min":0,"x_max":0,"o":""},"":{"ha":1081,"x_min":0,"x_max":0,"o":"m 429 299 l 451 299 l 451 368 l 518 368 l 518 386 l 451 386 l 451 442 l 529 442 l 529 458 l 429 458 z m 557 438 l 590 439 l 590 299 l 613 299 l 613 460 l 557 454 z m 1011 822 b 860 972 1011 917 954 972 b 222 972 647 972 435 972 b 69 821 125 972 71 917 b 69 488 69 710 69 599 b 69 149 69 374 69 261 b 218 1 71 57 126 1 b 861 1 433 1 647 1 b 1011 150 954 1 1011 57 b 1011 822 1011 374 1011 599 z m 217 803 b 215 326 217 644 217 485 b 199 285 215 313 208 294 b 100 178 168 247 133 213 b 93 179 97 179 96 179 b 93 206 93 189 93 197 b 93 819 93 410 93 615 b 224 949 94 903 140 949 b 774 942 407 949 589 949 b 714 935 754 939 733 935 b 349 933 592 933 471 935 b 217 803 265 935 217 886 z m 831 304 b 729 201 831 239 793 201 b 342 201 600 201 471 201 b 240 301 279 201 240 240 b 240 807 240 469 240 639 b 336 908 240 867 278 907 b 738 908 471 910 603 910 b 832 808 794 907 832 867 b 832 553 832 724 832 638 b 831 304 831 471 831 388 z "},"":{"ha":1081,"x_min":0,"x_max":0,"o":"m 431 299 l 451 299 l 451 368 l 519 368 l 519 386 l 451 386 l 451 442 l 529 442 l 529 458 l 431 458 z m 618 363 b 639 393 628 375 635 385 b 646 417 643 400 646 410 b 633 449 646 431 642 440 b 600 460 625 456 614 460 b 564 446 585 460 572 456 b 550 414 554 438 550 426 l 550 413 l 572 413 b 579 435 572 422 574 429 b 601 443 585 440 592 443 b 618 436 608 443 614 442 b 625 419 624 432 625 426 b 621 400 625 413 624 406 b 603 374 618 393 613 385 l 553 314 l 553 299 l 651 299 l 651 317 l 578 315 z m 1011 822 b 860 972 1011 917 954 972 b 222 972 647 972 435 972 b 69 821 126 972 69 917 b 69 488 69 710 69 599 b 69 149 69 375 69 261 b 218 1 71 58 128 1 b 861 1 433 1 647 1 b 1011 150 954 1 1011 57 b 1011 822 1011 374 1011 599 z m 217 803 b 215 326 217 644 217 485 b 199 285 215 313 208 294 b 100 178 168 247 133 213 b 93 179 99 179 96 179 b 93 206 93 189 93 197 b 93 819 93 410 93 615 b 224 949 93 903 139 949 b 772 942 407 949 589 949 b 714 935 753 939 733 935 b 349 933 592 933 469 935 b 217 803 265 935 217 886 z m 831 304 b 729 201 831 239 792 201 b 342 201 599 201 471 201 b 240 301 279 201 240 240 b 240 807 240 469 240 639 b 336 908 240 867 276 907 b 738 908 469 910 603 910 b 831 808 794 907 831 867 b 831 553 832 724 831 638 b 831 304 831 471 831 388 z "},"":{"ha":1082,"x_min":0,"x_max":0,"o":"m 431 299 l 453 299 l 453 368 l 519 368 l 519 386 l 453 386 l 453 442 l 531 442 l 531 458 l 431 458 z m 625 382 b 642 396 632 385 638 390 b 647 415 646 401 647 408 b 635 449 647 431 643 442 b 600 460 626 456 615 460 b 564 447 585 460 574 456 b 550 417 556 439 550 429 l 550 415 l 572 415 b 579 435 572 424 575 431 b 601 443 585 440 592 443 b 621 435 608 443 615 440 b 626 415 625 431 626 424 b 621 396 626 407 625 401 b 601 388 617 392 611 388 l 583 388 l 583 372 l 601 372 b 622 364 611 372 618 369 b 629 342 626 358 629 351 b 622 321 629 333 626 326 b 601 313 617 315 610 313 b 579 321 592 313 585 315 b 571 340 574 326 571 333 l 550 340 l 550 339 b 565 308 550 326 554 315 b 601 296 575 300 588 296 b 636 308 615 296 628 300 b 651 343 646 317 651 328 b 644 367 651 353 649 361 b 625 382 640 374 633 378 z m 1011 822 b 860 972 1011 917 954 972 b 222 972 647 972 435 972 b 69 821 126 972 69 917 b 69 488 69 710 69 599 b 69 149 69 375 69 261 b 218 1 71 58 128 1 b 861 1 433 1 647 1 b 1011 150 954 1 1011 57 b 1011 822 1013 374 1013 599 z m 217 803 b 215 326 217 644 217 485 b 199 285 215 313 208 294 b 100 178 168 247 133 213 b 93 179 99 179 96 179 b 93 206 93 189 93 197 b 93 819 93 410 93 615 b 224 949 93 903 139 949 b 772 942 407 949 589 949 b 714 935 753 939 733 935 b 349 933 592 933 469 935 b 217 803 265 935 217 886 z m 831 304 b 729 201 831 239 793 201 b 342 201 600 201 471 201 b 242 301 281 201 242 240 b 242 807 242 469 242 639 b 336 908 242 867 278 907 b 738 908 471 910 604 910 b 832 808 796 907 832 867 b 832 553 832 724 832 638 b 831 304 831 471 831 388 z "},"":{"ha":1081,"x_min":0,"x_max":0,"o":"m 428 299 l 450 299 l 450 368 l 517 368 l 517 386 l 450 386 l 450 442 l 528 442 l 528 458 l 428 458 z m 608 458 l 540 347 l 540 335 l 610 335 l 610 299 l 632 299 l 632 335 l 653 335 l 653 353 l 632 353 l 632 458 z m 610 353 l 564 353 l 607 422 l 608 426 l 610 426 z m 1011 822 b 860 972 1011 917 954 972 b 222 972 647 972 435 972 b 69 821 126 972 69 917 b 69 488 69 710 69 599 b 69 149 69 375 69 261 b 218 1 71 58 128 1 b 861 1 433 1 647 1 b 1011 150 954 1 1011 57 b 1011 822 1011 374 1011 599 z m 217 803 b 215 326 217 644 217 485 b 199 285 215 313 208 294 b 100 178 168 247 133 213 b 93 179 99 179 96 179 b 93 206 93 189 93 197 b 93 819 93 410 93 615 b 224 949 93 903 139 949 b 772 942 407 949 589 949 b 714 935 753 939 733 935 b 349 933 592 933 469 935 b 217 803 265 935 217 886 z m 831 304 b 729 201 831 239 792 201 b 342 201 599 201 471 201 b 240 301 279 201 240 240 b 240 807 240 469 240 639 b 336 908 240 867 276 907 b 738 908 469 910 603 910 b 831 808 794 907 831 867 b 831 553 832 724 831 638 b 831 304 831 471 831 388 z "},"":{"ha":1081,"x_min":0,"x_max":0,"o":"m 431 299 l 451 299 l 451 368 l 519 368 l 519 386 l 451 386 l 451 442 l 531 442 l 531 458 l 431 458 z m 603 401 b 589 400 597 401 593 401 b 578 393 585 397 581 396 l 583 439 l 644 439 l 644 458 l 564 458 l 556 369 l 574 368 b 582 381 575 374 578 376 b 600 383 585 383 592 383 b 621 374 608 383 617 381 b 628 349 626 368 628 360 b 621 324 628 338 626 329 b 600 314 615 317 608 314 b 581 321 592 314 586 315 b 574 342 575 325 574 332 l 554 342 l 554 340 b 567 307 554 326 557 315 b 600 296 575 300 586 296 b 638 310 617 296 629 300 b 650 349 646 319 650 333 b 638 388 650 365 646 378 b 603 401 629 397 618 401 z m 1011 822 b 860 972 1011 917 954 972 b 222 972 647 972 435 972 b 69 821 126 972 69 917 b 69 488 69 710 69 599 b 69 149 69 375 69 261 b 218 1 71 58 128 1 b 861 1 433 1 647 1 b 1011 150 954 1 1011 57 b 1011 822 1011 374 1011 599 z m 217 803 b 215 326 217 644 217 485 b 199 285 215 313 208 294 b 100 178 168 247 133 213 b 93 179 99 179 96 179 b 93 206 93 189 93 197 b 93 819 93 410 93 615 b 224 949 93 903 139 949 b 772 942 407 949 589 949 b 714 935 753 939 733 935 b 349 933 592 933 469 935 b 217 803 265 935 217 886 z m 831 304 b 729 201 831 239 792 201 b 342 201 599 201 471 201 b 240 301 279 201 240 240 b 240 807 240 469 240 639 b 336 908 240 867 276 907 b 738 908 469 910 603 910 b 831 808 794 907 831 867 b 831 553 832 724 831 638 b 831 304 831 471 831 388 z "},"":{"ha":1082,"x_min":0,"x_max":0,"o":"m 431 299 l 451 299 l 451 368 l 519 368 l 519 386 l 451 386 l 451 442 l 529 442 l 529 458 l 431 458 z m 607 400 b 588 396 601 400 594 399 b 572 386 582 394 576 390 l 572 399 b 582 431 572 411 575 422 b 607 443 588 439 596 443 b 624 442 613 443 618 443 b 636 438 628 442 632 440 l 642 454 b 626 458 638 456 632 458 b 607 460 621 460 614 460 b 568 442 592 460 579 454 b 553 396 557 431 553 414 l 553 358 b 567 314 553 339 557 325 b 604 297 576 303 589 297 b 640 313 619 297 632 303 b 654 351 650 322 654 335 b 642 386 654 365 650 378 b 607 400 632 396 621 400 z m 624 324 b 603 313 618 317 611 313 b 581 325 594 313 586 317 b 572 357 575 332 572 343 l 572 368 b 583 381 574 374 578 376 b 600 385 588 383 593 385 b 622 375 610 385 617 382 b 631 351 628 369 631 361 b 624 324 631 339 628 329 z m 1011 822 b 860 972 1011 917 954 972 b 222 972 647 972 435 972 b 69 821 126 972 69 917 b 69 488 69 710 69 599 b 69 149 69 375 69 261 b 218 1 71 58 128 1 b 861 1 433 1 647 1 b 1011 150 954 1 1011 57 b 1011 822 1013 374 1013 599 z m 217 803 b 215 326 217 644 217 485 b 199 285 215 313 208 294 b 100 178 168 247 133 213 b 93 179 99 179 96 179 b 93 206 93 189 93 197 b 93 819 93 410 93 615 b 224 949 93 903 139 949 b 772 942 407 949 589 949 b 714 935 753 939 733 935 b 349 933 592 933 469 935 b 217 803 265 935 217 886 z m 831 304 b 729 201 831 239 793 201 b 342 201 600 201 471 201 b 242 301 281 201 242 240 b 242 807 242 469 242 639 b 336 908 242 867 278 907 b 738 908 471 910 604 910 b 832 808 796 907 832 867 b 832 553 832 724 832 638 b 831 304 831 471 831 388 z "},"":{"ha":1081,"x_min":0,"x_max":0,"o":"m 429 299 l 451 299 l 451 368 l 518 368 l 518 386 l 451 386 l 451 442 l 529 442 l 529 458 l 429 458 z m 546 442 l 631 442 b 592 382 614 421 600 401 b 578 317 583 363 578 340 l 578 299 l 600 299 l 600 317 b 611 378 600 339 604 360 b 651 442 617 396 632 417 l 651 458 l 546 458 z m 1011 822 b 860 972 1011 917 954 972 b 222 972 647 972 435 972 b 69 821 126 972 69 917 b 69 488 69 710 69 599 b 69 149 69 375 69 261 b 218 1 71 58 128 1 b 861 1 433 1 647 1 b 1011 150 954 1 1011 57 b 1011 822 1011 374 1011 599 z m 217 803 b 215 326 217 644 217 485 b 199 285 215 313 208 294 b 100 178 168 247 133 213 b 93 179 99 179 96 179 b 93 206 93 189 93 197 b 93 819 93 410 93 615 b 224 949 93 903 139 949 b 772 942 407 949 589 949 b 714 935 753 939 733 935 b 349 933 592 933 469 935 b 217 803 265 935 217 886 z m 831 304 b 729 201 831 239 793 201 b 342 201 600 201 471 201 b 242 301 281 201 242 240 b 242 807 242 469 242 639 b 336 908 242 867 278 907 b 738 908 471 910 604 910 b 832 808 796 907 832 867 b 832 553 832 724 832 638 b 831 304 831 471 831 388 z "},"":{"ha":1081,"x_min":0,"x_max":0,"o":"m 431 299 l 451 299 l 451 368 l 519 368 l 519 386 l 451 386 l 451 442 l 531 442 l 531 458 l 431 458 z m 621 381 b 640 394 628 383 635 389 b 646 417 644 401 646 408 b 633 449 646 431 642 442 b 599 460 624 456 613 460 b 564 449 585 460 574 456 b 550 417 556 442 550 431 b 558 394 550 408 553 401 b 578 381 564 389 569 383 b 556 365 568 378 560 372 b 547 342 550 358 547 351 b 563 307 547 326 553 315 b 600 296 572 299 585 296 b 636 307 615 296 626 299 b 651 342 646 315 651 326 b 643 365 651 351 647 358 b 621 381 638 372 631 378 z m 574 417 b 581 436 574 425 575 431 b 600 443 586 442 592 443 b 618 436 607 443 613 442 b 625 417 622 431 625 425 b 618 397 625 410 624 403 b 601 390 614 393 608 390 b 582 397 593 390 586 393 b 574 417 576 403 574 410 z m 621 321 b 600 313 615 315 608 313 b 578 321 592 313 583 315 b 568 343 572 326 568 333 b 578 364 568 351 572 358 b 600 372 583 371 592 372 b 621 364 608 372 615 369 b 629 343 626 358 629 351 b 621 321 629 333 626 326 z m 1011 822 b 860 972 1011 917 954 972 b 222 972 647 972 435 972 b 69 821 126 972 69 917 b 69 488 69 710 69 599 b 69 149 69 375 69 261 b 218 1 71 58 128 1 b 861 1 433 1 647 1 b 1011 150 954 1 1011 57 b 1011 822 1013 374 1011 599 z m 217 803 b 215 326 217 644 217 485 b 199 285 215 313 208 294 b 100 178 168 247 133 213 b 93 179 99 179 96 179 b 93 206 93 189 93 197 b 93 819 93 410 93 615 b 224 949 93 903 139 949 b 772 942 407 949 589 949 b 714 935 753 939 733 935 b 349 933 592 933 469 935 b 217 803 265 935 217 886 z m 831 304 b 729 201 831 239 793 201 b 342 201 600 201 471 201 b 242 301 281 201 242 240 b 242 807 242 469 242 639 b 336 908 242 867 278 907 b 738 908 471 910 604 910 b 832 808 796 907 832 867 b 832 553 832 724 832 638 b 831 304 831 471 831 388 z "},"":{"ha":1081,"x_min":0,"x_max":0,"o":"m 432 299 l 453 299 l 453 368 l 521 368 l 521 386 l 453 386 l 453 442 l 532 442 l 532 458 l 432 458 z m 596 460 b 561 444 582 460 569 454 b 547 406 553 435 547 422 b 560 365 547 389 551 375 b 596 351 569 356 582 351 b 614 356 603 351 608 353 b 626 367 618 358 624 363 l 626 354 b 617 324 626 340 624 331 b 592 313 611 315 603 313 b 575 314 586 313 579 314 b 561 319 571 315 565 317 l 558 303 b 575 297 564 300 568 299 b 592 296 581 296 586 296 b 632 313 608 296 622 301 b 647 354 643 322 647 336 l 647 403 b 633 446 647 421 643 435 b 596 460 624 456 613 460 z m 626 388 b 615 374 625 382 621 378 b 597 368 611 371 604 368 b 576 379 588 368 582 372 b 569 406 572 386 569 394 b 576 433 569 417 572 426 b 596 443 582 440 589 443 b 618 433 606 443 614 440 b 626 406 624 426 626 418 z m 1011 822 b 860 972 1011 917 954 972 b 222 972 647 972 435 972 b 69 821 126 972 69 917 b 69 488 69 710 69 599 b 69 149 69 375 69 261 b 218 1 71 58 128 1 b 861 1 433 1 647 1 b 1011 150 954 1 1011 57 b 1011 822 1011 374 1011 599 z m 217 803 b 215 326 217 644 217 485 b 199 285 215 313 208 294 b 100 178 168 247 133 213 b 93 179 99 179 96 179 b 93 206 93 189 93 197 b 93 819 93 410 93 615 b 224 949 93 903 139 949 b 772 942 407 949 589 949 b 714 935 753 939 733 935 b 349 933 592 933 469 935 b 217 803 265 935 217 886 z m 831 304 b 729 201 831 239 792 201 b 342 201 599 201 471 201 b 240 301 279 201 240 240 b 240 807 240 469 240 639 b 336 908 240 867 276 907 b 738 908 469 910 603 910 b 831 808 794 907 831 867 b 831 553 832 724 831 638 b 831 304 831 471 831 388 z "},"":{"ha":1082,"x_min":0,"x_max":0,"o":"m 368 299 l 390 299 l 390 368 l 457 368 l 457 386 l 390 386 l 390 442 l 468 442 l 468 458 l 368 458 z m 494 438 l 529 439 l 529 299 l 550 299 l 550 460 l 494 454 z m 663 460 b 626 444 647 460 635 454 b 613 401 617 433 613 419 l 613 354 b 626 313 613 336 617 322 b 664 296 636 301 649 296 b 700 313 679 296 692 301 b 714 354 710 322 714 336 l 714 401 b 700 444 714 419 710 433 b 663 460 690 454 678 460 z m 692 350 b 685 322 692 339 690 329 b 663 313 679 315 672 313 b 642 322 654 313 646 315 b 633 349 636 329 633 338 l 633 406 b 642 432 633 417 636 425 b 663 442 646 439 653 442 b 685 432 672 442 679 439 b 692 406 690 425 692 417 z m 1011 822 b 860 972 1011 917 954 972 b 222 972 647 972 435 972 b 69 821 126 972 69 917 b 69 488 69 710 69 599 b 69 149 69 375 69 261 b 218 1 71 58 128 1 b 861 1 433 1 647 1 b 1011 150 954 1 1011 57 b 1011 822 1013 374 1013 599 z m 217 803 b 215 326 217 644 217 485 b 199 285 215 313 208 294 b 100 178 168 247 133 213 b 93 179 99 179 96 179 b 93 206 93 189 93 197 b 93 819 93 410 93 615 b 224 949 93 903 139 949 b 772 942 407 949 589 949 b 714 935 753 939 733 935 b 349 933 592 933 469 935 b 217 803 265 935 217 886 z m 831 304 b 729 201 831 239 793 201 b 342 201 600 201 471 201 b 242 301 281 201 242 240 b 242 807 242 469 242 639 b 336 908 242 867 278 907 b 738 908 471 910 604 910 b 832 808 796 907 832 867 b 832 553 832 724 832 638 b 831 304 831 471 831 388 z "},"":{"ha":1081,"x_min":0,"x_max":0,"o":"m 385 299 l 407 299 l 407 368 l 475 368 l 475 386 l 407 386 l 407 442 l 486 442 l 486 458 l 385 458 z m 513 438 l 547 439 l 547 299 l 568 299 l 568 460 l 513 454 z m 638 438 l 674 439 l 674 299 l 694 299 l 694 460 l 638 454 z m 1011 822 b 860 972 1011 917 954 972 b 222 972 647 972 435 972 b 69 821 126 972 69 917 b 69 488 69 710 69 599 b 69 149 69 375 69 261 b 218 1 71 58 128 1 b 861 1 433 1 647 1 b 1011 150 954 1 1011 57 b 1011 822 1011 374 1011 599 z m 217 803 b 215 326 217 644 217 485 b 199 285 215 313 208 294 b 100 178 168 247 133 213 b 93 179 99 179 96 179 b 93 206 93 189 93 197 b 93 819 93 410 93 615 b 224 949 93 903 139 949 b 772 942 407 949 589 949 b 714 935 753 939 733 935 b 349 933 592 933 469 935 b 217 803 265 935 217 886 z m 831 304 b 729 201 831 239 792 201 b 342 201 599 201 471 201 b 240 301 279 201 240 240 b 240 807 240 469 240 639 b 336 908 240 867 276 907 b 738 908 469 910 603 910 b 831 808 794 907 831 867 b 831 553 832 724 831 638 b 831 304 831 471 831 388 z "},"":{"ha":1082,"x_min":0,"x_max":0,"o":"m 368 299 l 389 299 l 389 368 l 457 368 l 457 386 l 389 386 l 389 442 l 467 442 l 467 458 l 368 458 z m 494 438 l 528 439 l 528 299 l 550 299 l 550 460 l 494 454 z m 682 363 b 703 393 692 375 699 385 b 710 417 707 401 710 410 b 697 449 710 431 706 440 b 664 460 689 456 678 460 b 626 446 647 460 636 456 b 614 414 618 438 614 426 l 614 413 l 635 413 b 643 435 635 422 638 429 b 664 443 647 440 654 443 b 682 436 672 443 678 442 b 689 419 686 432 689 426 b 685 400 689 413 688 406 b 667 374 682 393 675 385 l 617 314 l 617 299 l 715 299 l 715 317 l 642 315 z m 1011 822 b 860 972 1011 917 954 972 b 222 972 647 972 435 972 b 69 821 126 972 69 917 b 69 488 69 710 69 599 b 69 149 69 375 69 261 b 218 1 71 58 128 1 b 861 1 433 1 647 1 b 1011 150 954 1 1011 57 b 1011 822 1013 374 1013 599 z m 217 803 b 215 326 217 644 217 485 b 199 285 215 313 208 294 b 100 178 168 247 133 213 b 93 179 99 179 96 179 b 93 206 93 189 93 197 b 93 819 93 410 93 615 b 224 949 93 903 139 949 b 772 942 407 949 589 949 b 714 935 753 939 733 935 b 349 933 592 933 469 935 b 217 803 265 935 217 886 z m 831 304 b 729 201 831 239 793 201 b 342 201 600 201 471 201 b 242 301 281 201 242 240 b 242 807 242 469 242 639 b 336 908 242 867 278 907 b 738 908 471 910 604 910 b 832 808 796 907 832 867 b 832 553 832 724 832 638 b 831 304 831 471 831 388 z "}}}
